<?xml version="1.0" encoding="UTF-8" standalone="no"?>
<!DOCTYPE svg  PUBLIC '-//W3C//DTD SVG 1.1//EN'  'http://www.w3.org/Graphics/SVG/1.1/DTD/svg11.dtd'>
<svg xmlns="http://www.w3.org/2000/svg">
<defs>
<font id="BrandonGrotesque-Bold" horiz-adv-x="426">
<font-face underline-position="-50" font-weight="450" descent="-200" panose-1="2 11 8 3 2 2 3 6 2 2" units-per-em="1000" unicode-range="U+0020-2215" bbox="-157 -384 944 1043" x-height="400" underline-thickness="50" font-family="BrandonGrotesque" ascent="800" cap-height="700"/>
<missing-glyph horiz-adv-x="1000"/>
<glyph glyph-name=".notdef" horiz-adv-x="1000"/>
<glyph glyph-name=".null" horiz-adv-x="0"/>
<glyph glyph-name="nonmarkingreturn" horiz-adv-x="333"/>
<glyph glyph-name="space" horiz-adv-x="221" unicode=" "/>
<glyph glyph-name="exclam" horiz-adv-x="310" unicode="!" d="M73 72q0 34 24 58.5t57 24.5q34 0 58.5 -24.5t24.5 -58.5t-24.5 -58t-58.5 -24q-33 0 -57 24t-24 58zM139 272q-7 0 -12.5 5t-6.5 11l-39 279v114q0 7 5.5 13t13.5 6h110q8 0 13.5 -6t5.5 -13v-112l-39 -281q-1 -6 -6.5 -11t-12.5 -5h-32z"/>
<glyph glyph-name="quotedbl" horiz-adv-x="343" unicode='&quot;' d="M55 501q-7 0 -13 5.5t-6 13.5v161q0 7 6 13t13 6h80q19 0 19 -18q0 -5 -1 -7l-41 -159q-4 -15 -18 -15h-39zM226 501q-8 0 -13.5 5.5t-5.5 13.5v161q0 7 5.5 13t13.5 6h80q19 0 19 -18q0 -5 -1 -7l-41 -159q-4 -15 -18 -15h-39z"/>
<glyph glyph-name="numbersign" horiz-adv-x="538" unicode="#" d="M185 240h159l22 164h-158zM104 22l23 166h-71q-8 0 -13.5 5.5t-5.5 13.5v14q0 19 19 19h78l23 164h-72q-7 0 -13 6t-6 13v14q0 7 6 13t13 6h79l32 228q1 6 6 11t12 5h14q8 0 13.5 -6.5t4.5 -15.5l-30 -222h158l33 228q1 6 6.5 11t12.5 5h12q9 0 14.5 -6.5t4.5 -15.5 l-32 -222h64q8 0 13.5 -5.5t5.5 -13.5v-14q0 -8 -5.5 -13.5t-13.5 -5.5h-71l-23 -164h65q8 0 13.5 -5.5t5.5 -13.5v-14q0 -7 -5.5 -13t-13.5 -6h-73l-22 -172q-2 -16 -19 -16h-13q-9 0 -14.5 6.5t-4.5 15.5l22 166h-159l-23 -172q-2 -16 -19 -16h-12q-10 0 -15.5 6.5 t-3.5 15.5z"/>
<glyph glyph-name="dollar" horiz-adv-x="525" unicode="$" d="M289 99q33 5 54 25.5t21 49.5q0 56 -75 100v-175zM235 437v161q-36 -4 -55.5 -22.5t-19.5 -42.5q0 -56 75 -96zM46 68q-10 10 -10 17q0 5 5 13q3 5 9.5 17t11.5 20t11.5 17t13 14t13.5 5t12 -4q62 -47 124 -62q0 33 0.5 96t0.5 96q-42 17 -71.5 32.5t-61.5 41.5t-49 63.5 t-17 84.5q0 76 51 129t149 61v32q0 8 5.5 13.5t13.5 5.5h13q8 0 13.5 -5.5t5.5 -13.5v-33q94 -7 174 -65q10 -7 10 -19q0 -9 -4 -14t-11.5 -17t-13 -20t-12.5 -17t-13.5 -13.5t-12.5 -4.5q-4 0 -9 3q-1 0 -18.5 11t-42.5 23.5t-47 19.5v-180q40 -17 70 -33.5t64.5 -43.5 t53 -65.5t18.5 -84.5q0 -84 -54.5 -137.5t-153.5 -59.5v-104q0 -18 -20 -18q-31 0 -31 18v104q-118 9 -190 77z"/>
<glyph glyph-name="percent" horiz-adv-x="662" unicode="%" d="M437 125q0 -20 14.5 -34.5t34.5 -14.5t34.5 14.5t14.5 34.5q0 19 -14.5 33.5t-34.5 14.5t-34.5 -14t-14.5 -34zM351 125q0 56 39.5 95.5t95.5 39.5t96 -39.5t40 -95.5t-40 -95.5t-96 -39.5t-95.5 39.5t-39.5 95.5zM157 526q20 0 34 14.5t14 34.5q0 19 -14.5 33.5 t-33.5 14.5q-20 0 -34.5 -14t-14.5 -34t14.5 -34.5t34.5 -14.5zM104 27l343 663q5 10 17 10h50q8 0 13.5 -5t5.5 -13q0 -6 -2 -9l-345 -663q-5 -10 -17 -10h-48q-8 0 -13.5 5t-5.5 13q0 6 2 9zM157 440q-56 0 -95.5 39.5t-39.5 95.5t39.5 95.5t95.5 39.5t95.5 -39.5 t39.5 -95.5t-39.5 -95.5t-95.5 -39.5z"/>
<glyph glyph-name="ampersand" horiz-adv-x="689" unicode="&amp;" d="M193 191q0 -41 30 -67.5t75 -26.5q77 0 129 59l-149 158l-8 -4q-8 -5 -12.5 -8t-13.5 -10t-15 -13.5t-13.5 -16t-12 -20t-7.5 -24t-3 -27.5zM308 436l8 4q7 5 11.5 7.5t13.5 9t15 12t13.5 14t12.5 17t8 19.5t3 22q0 30 -23.5 52.5t-61.5 22.5q-34 0 -54 -19.5t-20 -48.5 q0 -16 8 -33t16 -26t28 -31zM74 178q0 21 4 41t11.5 36.5t16 30.5t20.5 26.5t21 21.5t21.5 17.5t19 13t15.5 9.5l9 5v2l-21 23q-69 73 -68 144q0 63 50.5 112.5t138.5 49.5q83 0 136 -47t53 -116q0 -29 -10 -56t-27.5 -48t-32 -35t-32.5 -28t-20 -15l115 -116q25 49 36 111 q5 27 21 27q2 0 12 -2l55 -16q19 -5 19 -23q0 -8 -2 -16q-19 -79 -62 -159l89 -84q13 -13 13 -21q0 -11 -15 -25l-41 -42q-11 -9 -20 -9q-12 0 -24 12l-72 73q-14 -16 -35.5 -32.5t-72.5 -34.5t-110 -18q-93 0 -152 55t-59 133z"/>
<glyph glyph-name="quotesingle" horiz-adv-x="172" unicode="&apos;" d="M55 501q-7 0 -13 5.5t-6 13.5v161q0 7 6 13t13 6h80q19 0 19 -18q0 -5 -1 -7l-41 -159q-4 -15 -18 -15h-39z"/>
<glyph glyph-name="parenleft" horiz-adv-x="342" unicode="(" d="M291 -79q-48 3 -88 21.5t-78 59.5t-60 121t-22 192t22 192t60 121.5t78 59.5t88 21h2q17 0 17 -15l3 -66q1 -6 -3 -11.5t-9 -6.5q-71 -19 -103 -92.5t-32 -202.5t31.5 -202t103.5 -92q14 -3 12 -19l-3 -65q-2 -16 -19 -16z"/>
<glyph glyph-name="parenright" horiz-adv-x="343" unicode=")" d="M29 2q-2 16 12 19q72 19 103.5 92t31.5 202t-32 202.5t-103 92.5q-5 1 -9 6.5t-3 11.5l3 66q0 15 17 15h2q48 -3 88 -21t78 -59.5t60 -121.5t22 -192t-22 -192t-60 -121t-78 -59.5t-88 -21.5q-17 0 -19 16z"/>
<glyph glyph-name="asterisk" horiz-adv-x="350" unicode="*" d="M159 370q-7 0 -13 6t-6 13l2 87l-72 -50q-6 -4 -14 -2.5t-12 7.5l-17 27q-3 4 -3 11q0 11 8 16l83 50l-83 50q-9 6 -9 17q0 6 3 10q3 5 9 13.5t10 13.5t11.5 6.5t13.5 -2.5l72 -50l-2 88q0 7 6 13t13 6h32q7 0 13 -6t6 -13l-2 -88l72 51q16 10 26 -5l17 -27q4 -8 4 -12 q0 -9 -9 -15l-83 -50l83 -51q9 -6 9 -16q0 -6 -3 -10l-19 -27q-9 -16 -25 -6l-72 50l2 -86q0 -7 -6 -13t-13 -6h-32z"/>
<glyph glyph-name="plus" horiz-adv-x="560" unicode="+" d="M233 150v149h-150q-7 0 -13 5.5t-6 13.5v56q0 8 6 13.5t13 5.5h150v151q0 7 5.5 12.5t13.5 5.5h56q8 0 13.5 -5.5t5.5 -12.5v-151h151q7 0 12.5 -5.5t5.5 -13.5v-56q0 -8 -5.5 -13.5t-12.5 -5.5h-151v-149q0 -7 -5.5 -12.5t-13.5 -5.5h-56q-8 0 -13.5 5.5t-5.5 12.5z"/>
<glyph glyph-name="comma" horiz-adv-x="259" unicode="," d="M36 71q0 34 25 58.5t63 24.5q39 0 70 -32t31 -99q0 -81 -36.5 -136t-77.5 -80q-7 -5 -12 -5q-6 0 -13 7l-15 16q-12 14 4 27l5 4q6 5 10 9l10.5 10.5t12 14t12.5 16.5t12 19t9 21.5t6.5 24.5t2.5 27l-2 -1q-2 -1 -5.5 -2t-8 -2t-10.5 -2t-12 -1q-33 0 -57 24t-24 57z"/>
<glyph glyph-name="hyphen" horiz-adv-x="369" unicode="-" d="M73 192q-8 0 -13.5 5t-5.5 13v67q0 19 19 19h223q19 0 19 -19v-67q0 -8 -5.5 -13t-13.5 -5h-223z"/>
<glyph glyph-name="period" horiz-adv-x="235" unicode="." d="M35 72q0 34 24 58.5t58 24.5t58.5 -24.5t24.5 -58.5t-24.5 -58t-58.5 -24t-58 24t-24 58z"/>
<glyph glyph-name="slash" horiz-adv-x="353" unicode="/" d="M29 25l196 662q4 13 18 13h72q19 0 19 -18q0 -5 -1 -7l-195 -662q-4 -13 -18 -13h-73q-19 0 -19 18q0 5 1 7z"/>
<glyph glyph-name="zero" horiz-adv-x="626" unicode="0" d="M313 108q58 0 89.5 60t31.5 172q0 111 -31.5 171.5t-89.5 60.5t-89.5 -60.5t-31.5 -171.5q0 -112 31.5 -172t89.5 -60zM313 -10q-120 0 -186 92.5t-66 257.5t66 257.5t186 92.5t186 -92.5t66 -257.5t-66 -257.5t-186 -92.5z"/>
<glyph glyph-name="one" horiz-adv-x="357" unicode="1" d="M141 19v479l-88 -19q-7 -2 -13 2t-7 11l-6 49q-1 12 5 18l144 121h70q7 0 12.5 -5.5t5.5 -13.5v-642q0 -8 -5.5 -13.5t-12.5 -5.5h-86q-8 0 -13.5 5.5t-5.5 13.5z"/>
<glyph glyph-name="two" horiz-adv-x="518" unicode="2" d="M31 19v23q95 115 259 333q51 63 51 111q0 37 -27.5 64t-78.5 27q-58 0 -112 -59q-13 -14 -27 0l-48 48q-13 13 -1 26q3 4 9 10.5t26 23.5t41.5 30t54.5 23.5t66 10.5q103 0 163 -57t60 -142q0 -31 -10 -60t-21.5 -48t-35.5 -54q-30 -42 -172 -222h216q8 0 13.5 -5.5 t5.5 -13.5v-69q0 -7 -5.5 -13t-13.5 -6h-394q-8 0 -13.5 5.5t-5.5 13.5z"/>
<glyph glyph-name="three" horiz-adv-x="522" unicode="3" d="M36 79q-4 4 -4 11t5 14l51 49q14 12 26 0q3 -4 19 -16t46.5 -25t57.5 -13q42 0 74 27t32 67q0 41 -36.5 70t-101.5 29h-56q-19 0 -19 20v63q0 20 19 20h56q59 0 91.5 26t32.5 66t-29 66t-68 26q-60 0 -101 -48q-12 -14 -27 -1l-49 46q-14 12 0 26q3 4 9 9.5t25 21 t39.5 27t52 21t62.5 9.5q90 0 151.5 -50.5t61.5 -132.5q0 -53 -32 -95.5t-71 -60.5v-3q46 -19 83.5 -61t37.5 -102q0 -85 -63.5 -140t-166.5 -55q-133 0 -208 89z"/>
<glyph glyph-name="four" horiz-adv-x="597" unicode="4" d="M148 249h200v240zM35 145q-8 0 -13.5 5.5t-5.5 13.5v83l360 438q6 6 15 6h54q8 0 13.5 -5.5t5.5 -13.5v-426h80q8 0 13.5 -5t5.5 -13v-62q0 -8 -5.5 -13.5t-13.5 -5.5h-80l1 -128q0 -7 -5.5 -13t-13.5 -6h-83q-7 0 -13 6t-6 13v126h-309z"/>
<glyph glyph-name="five" horiz-adv-x="528" unicode="5" d="M57 73q-10 11 -10 19q0 7 8 15l50 49q13 11 24 1q6 -6 20 -16.5t46.5 -25t62.5 -14.5q50 0 83 35t33 83q0 49 -32 80.5t-89 31.5h-154q-14 0 -22.5 11t-8.5 24v295q0 8 5.5 13.5t13.5 5.5h316q8 0 13.5 -5.5t5.5 -13.5v-68q0 -8 -5.5 -13.5t-13.5 -5.5h-222v-133h86 q105 0 167 -61.5t62 -160.5q0 -95 -70 -162t-172 -67q-71 0 -121 26t-76 57z"/>
<glyph glyph-name="six" horiz-adv-x="539" unicode="6" d="M280 104q47 0 80.5 34.5t33.5 82.5t-33.5 82.5t-81.5 34.5q-45 0 -75.5 -27t-40.5 -60q0 -57 30.5 -102t86.5 -45zM43 266q0 83 27 154.5t65 117t87.5 82.5t85 54t68.5 28q3 1 9 1q15 0 19 -15l23 -59q2 -6 2 -9q0 -14 -20 -20q-22 -7 -51 -21.5t-64.5 -38t-64.5 -59 t-40 -73.5q48 28 114 28q81 0 142.5 -58t61.5 -159q0 -94 -67 -161.5t-159 -67.5q-113 0 -175.5 79t-62.5 197z"/>
<glyph glyph-name="seven" horiz-adv-x="484" unicode="7" d="M53 19v11l260 542h-264q-7 0 -13 6t-6 13v70q0 7 6 13t13 6h416q7 0 13 -6t6 -13v-7l-298 -627q-12 -27 -34 -27h-74q-25 0 -25 19z"/>
<glyph glyph-name="eight" horiz-adv-x="567" unicode="8" d="M180 184q0 -40 31 -66t73 -26q43 0 73.5 26t30.5 66q0 35 -28 65t-76 41q-48 -11 -76 -41t-28 -65zM284 407q45 10 68 35.5t23 59.5q0 36 -27 60.5t-66 24.5q-36 0 -62.5 -24.5t-26.5 -60.5q0 -73 91 -95zM47 182q0 56 42.5 102.5t78.5 64.5v3q-39 21 -71 61.5t-32 93.5 q0 82 62 132.5t155 50.5q95 0 158 -50.5t63 -132.5q0 -51 -31.5 -91t-71.5 -63v-4q45 -23 83 -66.5t38 -100.5q0 -83 -65.5 -137.5t-173.5 -54.5q-106 0 -170.5 54.5t-64.5 137.5z"/>
<glyph glyph-name="nine" horiz-adv-x="539" unicode="9" d="M260 348q45 0 75.5 27t40.5 60q0 57 -30.5 102t-86.5 45q-47 0 -80.5 -34.5t-33.5 -82.5t33.5 -82.5t81.5 -34.5zM112 57q-2 6 -2 9q0 14 20 20q22 7 51 21.5t64.5 38t64.5 59t40 73.5q-48 -28 -114 -28q-81 0 -142.5 58t-61.5 159q0 94 67 161.5t159 67.5 q113 0 175.5 -79t62.5 -197q0 -83 -27 -154.5t-65 -117t-87.5 -82.5t-85 -54t-68.5 -28q-3 -1 -9 -1q-14 0 -19 15z"/>
<glyph glyph-name="colon" horiz-adv-x="268" unicode=":" d="M62 62q0 30 21 51t51 21t51 -21t21 -51t-21 -51t-51 -21t-51 21t-21 51zM134 266q-30 0 -51 21t-21 51t21 51t51 21t51 -21t21 -51t-21 -51t-51 -21z"/>
<glyph glyph-name="semicolon" horiz-adv-x="247" unicode=";" d="M51 57q0 27 20.5 47t50.5 20q32 0 57.5 -26t25.5 -82q0 -101 -90 -181q-7 -5 -11 -5q-6 0 -12 6l-14 15q-11 11 2 22q10 7 23 19.5t29 42t16 60.5l-4 -1q-5 -2 -12 -3t-14 -1q-28 0 -47.5 19.5t-19.5 47.5zM119 266q-30 0 -51 21t-21 51t21 51t51 21t51 -21t21 -51 t-21 -51t-51 -21z"/>
<glyph glyph-name="less" horiz-adv-x="436" unicode="&lt;" d="M29 210q-10 6 -10 17v5q0 11 10 17l347 212q4 3 11 3q17 0 17 -19v-70q0 -9 -9 -16l-215 -128l215 -124q9 -7 9 -16v-70q0 -19 -17 -19q-7 0 -11 3z"/>
<glyph glyph-name="equal" horiz-adv-x="488" unicode="=" d="M81 127q-8 0 -13.5 5.5t-5.5 13.5v57q0 8 5.5 13.5t13.5 5.5h326q8 0 13.5 -5.5t5.5 -13.5v-57q0 -8 -5.5 -13.5t-13.5 -5.5h-326zM81 338q-8 0 -13.5 5.5t-5.5 13.5v56q0 8 5.5 13.5t13.5 5.5h326q8 0 13.5 -5.5t5.5 -13.5v-56q0 -8 -5.5 -13.5t-13.5 -5.5h-326z"/>
<glyph glyph-name="greater" horiz-adv-x="436" unicode="&gt;" d="M32 21v70q0 11 9 16l214 124l-214 128q-9 5 -9 16v70q0 19 17 19q7 0 11 -3l347 -212q10 -6 10 -17v-5q0 -11 -10 -17l-347 -205q-4 -3 -11 -3q-17 0 -17 19z"/>
<glyph glyph-name="question" horiz-adv-x="449" unicode="?" d="M123 72q0 34 24 58.5t58 24.5t58.5 -24.5t24.5 -58.5t-24.5 -58t-58.5 -24t-58 24t-24 58zM165 272q-8 0 -13.5 5.5t-5.5 13.5v42q0 32 21.5 61.5t48 48.5t48 43.5t21.5 47.5q0 28 -22 47.5t-58 19.5q-27 0 -47.5 -9t-40 -25.5t-20.5 -17.5q-12 -8 -22 1l-47 46 q-6 4 -6 13q0 7 6 13q3 4 8 9.5t24 21t40 27t54.5 21t69.5 9.5q80 0 137 -48t57 -120q0 -41 -24 -76t-52 -55t-52 -43t-24 -42v-33q0 -21 -20 -21h-81z"/>
<glyph glyph-name="at" horiz-adv-x="986" unicode="@" d="M383 208v-8q0 -44 26 -73.5t61 -29.5q81 0 85 109v37q-5 22 -29 44t-57 22q-36 0 -60 -28t-26 -73zM32 223q0 214 132 350.5t344 136.5q203 0 319.5 -118t116.5 -304q0 -53 -12.5 -103t-37.5 -95t-71 -72.5t-106 -27.5q-89 0 -119 78h-8q-17 -34 -51 -56t-79 -22 q-78 0 -129.5 61.5t-51.5 149.5q0 90 52 149.5t132 59.5q65 0 121 -59q2 5 5 14.5t4.5 13t4.5 9t7 7.5t10.5 3.5t15.5 1.5h17q8 0 13.5 -5.5t5.5 -13.5v-183q0 -62 16.5 -84t45.5 -22q47 0 75 56t28 135q0 144 -85 234t-243 90q-166 0 -264.5 -103.5t-98.5 -280.5 q0 -119 66 -213t175 -139q17 -8 11 -24l-24 -63q-5 -12 -15 -12q-5 0 -7 1q-139 51 -227 173.5t-88 276.5z"/>
<glyph glyph-name="A" horiz-adv-x="663" unicode="A" d="M231 239h201l-100 220h-3zM17 0q-19 0 -19 17q0 3 2 9l311 673q5 11 17 11h10q12 0 17 -11l308 -673q2 -6 2 -9q0 -17 -19 -17h-87q-19 0 -29 20l-49 108h-299l-49 -108q-8 -20 -29 -20h-87z"/>
<glyph glyph-name="B" horiz-adv-x="617" unicode="B" d="M220 118h121q38 0 64 26t26 65q0 37 -31 62t-71 25h-109v-178zM220 406h107q38 0 62 26t24 64t-24 61.5t-62 23.5h-107v-175zM91 19v662q0 8 5.5 13.5t13.5 5.5h229q89 0 150 -53t61 -132q0 -53 -34.5 -96.5t-75.5 -62.5q49 -16 89.5 -58.5t40.5 -104.5q0 -83 -63 -138 t-155 -55h-242q-8 0 -13.5 5.5t-5.5 13.5z"/>
<glyph glyph-name="C" horiz-adv-x="684" unicode="C" d="M40 349q0 150 105.5 255.5t255.5 105.5q138 0 242 -93q7 -6 7 -14t-6 -14l-61 -63q-12 -13 -25 0q-67 59 -154 59q-95 0 -159 -68.5t-64 -164.5q0 -95 64.5 -163t159.5 -68q83 0 153 57q13 12 25 0l62 -64q5 -4 5 -12q0 -9 -6 -15q-100 -97 -243 -97q-150 0 -255.5 104.5 t-105.5 254.5z"/>
<glyph glyph-name="D" horiz-adv-x="738" unicode="D" d="M220 122h114q97 0 161 65.5t64 163.5t-64 163t-161 65h-114v-457zM91 19v662q0 8 5.5 13.5t12.5 5.5h237q145 0 248 -102.5t103 -246.5q0 -145 -103 -248t-248 -103h-237q-7 0 -12.5 5.5t-5.5 13.5z"/>
<glyph glyph-name="E" horiz-adv-x="588" unicode="E" d="M91 19v662q0 8 5.5 13.5t13.5 5.5h407q8 0 13.5 -5.5t5.5 -13.5v-82q0 -8 -5.5 -13.5t-13.5 -5.5h-296v-164h247q8 0 13.5 -6t5.5 -13v-83q0 -8 -5.5 -13.5t-13.5 -5.5h-247v-175h296q8 0 13.5 -5.5t5.5 -13.5v-82q0 -8 -5.5 -13.5t-13.5 -5.5h-407q-8 0 -13.5 5.5 t-5.5 13.5z"/>
<glyph glyph-name="F" horiz-adv-x="564" unicode="F" d="M91 19v662q0 8 5.5 13.5t13.5 5.5h407q8 0 13.5 -5.5t5.5 -13.5v-82q0 -8 -5.5 -13.5t-13.5 -5.5h-296v-188h247q8 0 13.5 -6t5.5 -13v-82q0 -7 -5.5 -13t-13.5 -6h-247v-253q0 -7 -5.5 -13t-13.5 -6h-92q-8 0 -13.5 5.5t-5.5 13.5z"/>
<glyph glyph-name="G" horiz-adv-x="712" unicode="G" d="M41 349q0 150 105 255.5t254 105.5q135 0 244 -93q7 -7 7 -15q0 -7 -6 -13l-62 -65q-12 -12 -26 0q-66 58 -151 58q-93 0 -158.5 -68.5t-65.5 -163.5q0 -94 65.5 -161.5t159.5 -67.5q57 0 119 25v85h-80q-8 0 -13.5 5t-5.5 13v79q0 19 19 19h192q7 0 12.5 -5.5t5.5 -13.5 v-256q0 -10 -8 -16q-12 -7 -33 -18t-86 -29t-129 -18q-150 0 -254.5 104t-104.5 254z"/>
<glyph glyph-name="H" horiz-adv-x="769" unicode="H" d="M91 19v662q0 7 5.5 13t13.5 6h93q8 0 13.5 -5.5t5.5 -13.5v-265h326v265q0 8 5.5 13.5t13.5 5.5h92q7 0 13 -6t6 -13v-662q0 -7 -6 -13t-13 -6h-92q-8 0 -13.5 5.5t-5.5 13.5v276h-326v-276q0 -8 -5.5 -13.5t-13.5 -5.5h-93q-8 0 -13.5 6t-5.5 13z"/>
<glyph glyph-name="I" horiz-adv-x="313" unicode="I" d="M91 19v662q0 7 5.5 13t13.5 6h93q7 0 13 -6t6 -13v-662q0 -7 -6 -13t-13 -6h-93q-8 0 -13.5 6t-5.5 13z"/>
<glyph glyph-name="J" horiz-adv-x="418" unicode="J" d="M-16 63q-3 5 -3 11q0 7 5 14l52 53q7 7 15 7q7 0 15 -8q30 -32 66 -32q32 0 56 26.5t24 74.5v472q0 8 5.5 13.5t13.5 5.5h94q8 0 13.5 -5.5t5.5 -13.5v-472q0 -101 -59.5 -160t-150.5 -59q-93 0 -152 73z"/>
<glyph glyph-name="K" horiz-adv-x="655" unicode="K" d="M91 24v652q0 10 7 17t17 7h88q10 0 17 -7t7 -17v-270l252 284q8 10 19 10h100q10 0 16 -6t6 -15q0 -7 -6 -15l-261 -294l280 -335q4 -5 4 -13q0 -9 -6 -15.5t-16 -6.5h-109q-13 0 -18 7l-261 322v-305q0 -10 -7 -17t-17 -7h-88q-10 0 -17 7t-7 17z"/>
<glyph glyph-name="L" horiz-adv-x="505" unicode="L" d="M91 19v662q0 8 5.5 13.5t13.5 5.5h92q8 0 13.5 -6t5.5 -13v-561h255q8 0 13.5 -5.5t5.5 -13.5v-82q0 -8 -5.5 -13.5t-13.5 -5.5h-366q-8 0 -13.5 5.5t-5.5 13.5z"/>
<glyph glyph-name="M" horiz-adv-x="873" unicode="M" d="M45 23l119 672q2 15 18 15h16q12 0 17 -10l220 -472h3l220 472q5 10 17 10h16q16 0 18 -15l118 -672q0 -1 0.5 -3t0.5 -3q0 -17 -19 -17h-91q-15 0 -19 15l-59 379h-3l-175 -393q-4 -11 -17 -11h-18q-11 0 -17 11l-177 393h-3l-58 -379q-1 -6 -6.5 -10.5t-11.5 -4.5h-90 q-22 0 -19 23z"/>
<glyph glyph-name="N" horiz-adv-x="773" unicode="N" d="M91 19v673q0 7 5.5 12.5t13.5 5.5h25l416 -442h1v413q0 8 5.5 13.5t13.5 5.5h92q7 0 13 -6t6 -13v-673q0 -7 -5.5 -12.5t-13.5 -5.5h-24l-418 459h-1v-430q0 -8 -5.5 -13.5t-13.5 -5.5h-91q-8 0 -13.5 6t-5.5 13z"/>
<glyph glyph-name="O" horiz-adv-x="800" unicode="O" d="M171 349q0 -95 67.5 -162t161.5 -67q95 0 162.5 67.5t67.5 161.5q0 95 -68 163t-162 68t-161.5 -68t-67.5 -163zM41 349q0 150 104.5 255.5t254.5 105.5t255 -105.5t105 -255.5t-105 -254.5t-255 -104.5t-254.5 104.5t-104.5 254.5z"/>
<glyph glyph-name="P" horiz-adv-x="592" unicode="P" d="M221 376h116q42 0 72.5 30t30.5 74q0 41 -30.5 69t-72.5 28h-116v-201zM91 19v662q0 8 5.5 13.5t13.5 5.5h235q92 0 158 -65t66 -156q0 -93 -65.5 -159t-157.5 -66h-125v-235q0 -7 -5.5 -13t-13.5 -6h-92q-8 0 -13.5 5.5t-5.5 13.5z"/>
<glyph glyph-name="Q" horiz-adv-x="801" unicode="Q" d="M171 349q0 -95 67.5 -162t161.5 -67q95 0 162.5 67.5t67.5 161.5q0 95 -68 163t-162 68t-161.5 -68t-67.5 -163zM41 349q0 150 104.5 255.5t254.5 105.5t255 -105.5t105 -255.5q0 -100 -53 -185.5t-142 -134.5l125 -197q4 -8 4 -12q0 -18 -20 -18h-106q-11 0 -16 10 l-107 181q-24 -3 -45 -3q-150 0 -254.5 104.5t-104.5 254.5z"/>
<glyph glyph-name="R" horiz-adv-x="666" unicode="R" d="M222 381h163q40 0 69.5 30t29.5 72q0 40 -29.5 68.5t-69.5 28.5h-163v-199zM91 19v662q0 8 5.5 13.5t13.5 5.5h286q90 0 154 -63t64 -152q0 -68 -40.5 -121.5t-107.5 -80.5l137 -254q3 -5 3 -10q0 -19 -20 -19h-105q-11 0 -16 9l-133 265h-111v-255q0 -7 -5.5 -13 t-13.5 -6h-92q-8 0 -13.5 5.5t-5.5 13.5z"/>
<glyph glyph-name="S" horiz-adv-x="542" unicode="S" d="M55 68q-10 10 -10 16q0 4 5 14l36 62q8 12 20 12q7 0 14 -5l5 -3q5 -4 11.5 -8t16.5 -10t20 -11.5t23 -11t25 -9.5t25 -6.5t25 -2.5q39 0 65 22.5t26 54.5q0 37 -31 65.5t-96 54.5q-84 34 -136 85t-52 131q0 76 57.5 134t167.5 58q111 0 200 -67q10 -7 10 -20 q0 -8 -4 -13l-38 -57q-10 -15 -24 -15q-6 0 -11 3q-88 55 -139 55q-40 0 -64 -22t-24 -48q0 -35 28 -61t90 -51q43 -17 74.5 -34.5t65 -44t51.5 -64t18 -83.5q0 -81 -64 -139.5t-166 -58.5q-57 0 -108.5 17t-73.5 31.5t-38 29.5z"/>
<glyph glyph-name="T" horiz-adv-x="501" unicode="T" d="M185 19v561h-153q-8 0 -13.5 5.5t-5.5 13.5v82q0 8 5.5 13.5t13.5 5.5h437q8 0 13.5 -5.5t5.5 -13.5v-82q0 -8 -5.5 -13.5t-13.5 -5.5h-153v-561q0 -7 -6 -13t-13 -6h-93q-8 0 -13.5 6t-5.5 13z"/>
<glyph glyph-name="U" horiz-adv-x="719" unicode="U" d="M81 265v416q0 7 5.5 13t13.5 6h95q8 0 13.5 -5.5t5.5 -13.5v-409q0 -65 40.5 -108.5t104.5 -43.5t105 43.5t41 107.5v410q0 8 5.5 13.5t13.5 5.5h95q7 0 13 -6t6 -13v-416q0 -115 -80.5 -195t-198.5 -80q-117 0 -197.5 80t-80.5 195z"/>
<glyph glyph-name="V" horiz-adv-x="663" unicode="V" d="M309 1l-309 673q-2 6 -2 9q0 17 19 17h102q13 0 17 -11l192 -430h7l192 430q4 11 17 11h102q19 0 19 -17q0 -3 -2 -9l-310 -673q-5 -11 -17 -11h-10q-12 0 -17 11z"/>
<glyph glyph-name="W" horiz-adv-x="899" unicode="W" d="M218 4l-189 672q-1 2 -1 7q0 17 19 17h92q14 0 18 -14l104 -399h4l159 412q4 11 17 11h18q13 0 17 -11l160 -412h4l102 399q4 14 18 14h92q19 0 19 -17q0 -5 -1 -7l-189 -672q-3 -14 -18 -14h-16q-13 0 -17 11l-179 453h-5l-177 -453q-5 -11 -17 -11h-16q-14 0 -18 14z "/>
<glyph glyph-name="X" horiz-adv-x="632" unicode="X" d="M30 28l208 331l-200 313q-3 4 -3 10q0 7 5.5 12.5t14.5 5.5h116q9 0 16 -9l128 -212h1l130 212q4 9 16 9h116q9 0 14.5 -5.5t5.5 -12.5q0 -6 -3 -10l-201 -313l208 -331q3 -6 3 -11q0 -17 -20 -17h-108q-13 0 -17 9l-143 229h-3l-141 -229q-7 -9 -17 -9h-108 q-9 0 -15 5.5t-6 12.5q0 6 3 10z"/>
<glyph glyph-name="Y" horiz-adv-x="583" unicode="Y" d="M225 19v318l-228 334q-3 5 -3 11q0 18 19 18h102q9 0 16 -9l160 -230l160 230q7 9 16 9h103q19 0 19 -18q0 -6 -3 -11l-231 -333v-319q0 -7 -5.5 -13t-13.5 -6h-92q-8 0 -13.5 5.5t-5.5 13.5z"/>
<glyph glyph-name="Z" horiz-adv-x="538" unicode="Z" d="M25 19v18l298 538v4h-250q-7 0 -13 5.5t-6 13.5v83q0 7 6 13t13 6h418q7 0 13 -6t6 -13v-13l-294 -545v-2h255q8 0 13.5 -5.5t5.5 -13.5v-83q0 -8 -5.5 -13.5t-13.5 -5.5h-427q-8 0 -13.5 6t-5.5 13z"/>
<glyph glyph-name="bracketleft" horiz-adv-x="349" unicode="[" d="M181 -200h130q8 0 13.5 -5.5t5.5 -12.5v-63q0 -7 -6 -13t-13 -6h-226q-7 0 -13 6t-6 13v962q0 7 6 13t13 6h226q7 0 13 -6t6 -13v-62q0 -8 -5.5 -13.5t-13.5 -5.5h-130v-800z"/>
<glyph glyph-name="backslash" horiz-adv-x="357" unicode="\" d="M215 13l-195 662q-1 2 -1 7q0 18 19 18h76q14 0 18 -13l196 -662q1 -2 1 -7q0 -18 -19 -18h-77q-14 0 -18 13z"/>
<glyph glyph-name="bracketright" horiz-adv-x="349" unicode="]" d="M38 -200h130v800h-130q-8 0 -13.5 5.5t-5.5 13.5v62q0 7 5.5 13t13.5 6h226q8 0 13.5 -6t5.5 -13v-962q0 -7 -5.5 -13t-13.5 -6h-226q-8 0 -13.5 6t-5.5 13v63q0 7 5.5 12.5t13.5 5.5z"/>
<glyph glyph-name="asciicircum" horiz-adv-x="524" unicode="^" d="M53 385q-19 0 -19 17q0 6 3 11l208 291q6 10 17 10h5q11 0 17 -10l203 -291q3 -4 3 -11q0 -17 -19 -17h-69q-9 0 -16 9l-123 169l-125 -169q-7 -9 -16 -9h-69z"/>
<glyph glyph-name="underscore" horiz-adv-x="415" unicode="_" d="M19 -29q0 19 19 19h339q19 0 19 -19v-39q0 -8 -5.5 -13t-13.5 -5h-339q-8 0 -13.5 5t-5.5 13v39z"/>
<glyph glyph-name="grave" horiz-adv-x="302" unicode="`" d="M234 528l-175 77q-9 5 -9 15q0 6 3 12l28 51q4 7 13 7q8 0 13 -4l164 -97q8 -4 8 -12q0 -3 -2 -7l-18 -36q-5 -9 -13 -9q-4 0 -12 3z"/>
<glyph glyph-name="a" horiz-adv-x="427" unicode="a" d="M141 127q0 -23 14.5 -37.5t37.5 -14.5q22 0 42.5 14t26.5 25v55q-27 12 -56 12t-47 -15t-18 -39zM31 127q0 55 43 90.5t117 35.5q18 0 36 -2.5t27 -5.5l10 -3q1 38 -11.5 53.5t-40.5 15.5q-63 0 -112 -15q-2 -1 -6 -1q-14 0 -17 19l-9 52q0 1 -0.5 3t-0.5 3q0 13 15 19 q6 2 24 6t50.5 8.5t61.5 4.5q89 0 121.5 -42.5t32.5 -131.5v-217q0 -7 -6 -13t-13 -6h-36q-11 0 -17 14l-12 27q-56 -51 -122 -51q-61 0 -98 37t-37 100z"/>
<glyph glyph-name="b" horiz-adv-x="500" unicode="b" d="M179 163q7 -24 28 -44.5t56 -20.5q39 0 65 29.5t26 72.5t-27.5 72.5t-69.5 29.5q-22 0 -41.5 -6t-27.5 -12l-9 -5v-116zM60 19v662q0 7 6 13t13 6h85q8 0 13.5 -6t5.5 -13v-289q46 18 89 18q88 0 143 -60.5t55 -149.5q0 -87 -55.5 -148.5t-136.5 -61.5q-37 0 -70 15 t-47 30l-14 15l-10 -31q-5 -19 -19 -19h-39q-7 0 -13 6t-6 13z"/>
<glyph glyph-name="c" d="M29 200q0 87 64 148.5t149 61.5q89 0 148 -71q4 -5 4 -12q0 -10 -9 -16l-46 -44q-11 -9 -25 3q-28 32 -69 32q-40 0 -69 -30t-29 -72q0 -43 28 -72.5t69 -29.5q20 0 37 7t23 12t20 19q12 12 25 3l43 -37q11 -8 11 -18q0 -4 -4 -10q-54 -84 -158 -84q-86 0 -149 60.5 t-63 149.5z" unicode="c"/>
<glyph glyph-name="d" horiz-adv-x="500" unicode="d" d="M146 200q0 -43 26 -72.5t65 -29.5q35 0 56 20.5t28 44.5v116q-28 23 -78 23q-42 0 -69.5 -29.5t-27.5 -72.5zM30 200q0 89 55 149.5t143 60.5q43 0 89 -18v289q0 7 5.5 13t13.5 6h85q7 0 13 -6t6 -13v-662q0 -7 -6 -13t-13 -6h-39q-14 0 -19 19l-10 31q-5 -7 -15.5 -17 t-44.5 -26.5t-71 -16.5q-81 0 -136.5 61.5t-55.5 148.5z"/>
<glyph glyph-name="e" horiz-adv-x="445" unicode="e" d="M153 250h151q-2 28 -23.5 48t-49.5 20q-30 0 -52 -19.5t-26 -48.5zM30 200q0 86 58 148t146 62q78 0 132.5 -53t54.5 -133q0 -13 -2 -27q-2 -17 -19 -17h-256q2 -34 28.5 -60.5t67.5 -26.5q43 0 78 25q17 10 26 0l41 -47q14 -14 -1 -26q-59 -55 -149 -55q-89 0 -147 61 t-58 149z"/>
<glyph glyph-name="f" horiz-adv-x="344" unicode="f" d="M84 19v276h-34q-8 0 -13.5 5.5t-5.5 13.5v67q0 19 19 19h34v108q0 96 52 149t135 53q36 0 69 -12.5t49 -26.5q6 -4 6 -14q0 -5 -2 -9l-34 -64q-7 -14 -24 -5q-32 20 -59 20q-32 0 -49.5 -23.5t-17.5 -67.5v-108h100q19 0 19 -19v-67q0 -8 -5.5 -13.5t-13.5 -5.5h-100 v-276q0 -7 -5.5 -13t-13.5 -6h-87q-7 0 -13 6t-6 13z"/>
<glyph glyph-name="g" horiz-adv-x="462" unicode="g" d="M148 -151q0 -26 24 -42.5t64 -16.5q42 0 67.5 17.5t25.5 45.5q0 18 -17 33.5t-56 15.5q-37 0 -65 -4q-43 -14 -43 -49zM170 231q0 -31 20 -51.5t50 -20.5q31 0 50 20t19 52t-19 52t-50 20q-30 0 -50 -20.5t-20 -51.5zM18 30q0 22 7.5 41.5t19 32t22.5 21.5t19 13l7 4 q-30 34 -30 94q0 71 50.5 122.5t123.5 51.5h182q19 0 19 -19v-33q0 -14 -11 -17l-56 -18q4 -3 11 -10.5t18 -33.5t11 -58q0 -62 -47.5 -109.5t-123.5 -47.5q-22 0 -48.5 4t-31.5 4q-12 0 -24.5 -10.5t-12.5 -27.5q0 -15 11.5 -24.5t28.5 -9.5h128q71 0 118 -38t47 -102 q0 -73 -57.5 -121.5t-161.5 -48.5q-102 0 -153 41t-51 96q0 59 60 95v3q-13 4 -27.5 13t-31 34t-16.5 58z"/>
<glyph glyph-name="h" horiz-adv-x="520" unicode="h" d="M60 19v662q0 7 6 13t13 6h85q8 0 13.5 -6t5.5 -13v-304q44 33 106 33q89 0 134 -57.5t45 -141.5v-192q0 -7 -6 -13t-13 -6h-81q-8 0 -13.5 5.5t-5.5 13.5v193q0 41 -21.5 65.5t-57.5 24.5q-33 0 -56 -19.5t-31 -51.5v-212q0 -19 -21 -19h-83q-7 0 -13 6t-6 13z"/>
<glyph glyph-name="i" horiz-adv-x="241" unicode="i" d="M60 19v362q0 8 5.5 13.5t13.5 5.5h83q8 0 13.5 -5.5t5.5 -13.5v-362q0 -7 -5.5 -13t-13.5 -6h-83q-7 0 -13 6t-6 13zM119 542q-28 0 -48 20t-20 49t20 49t48 20q29 0 49.5 -20t20.5 -49t-20.5 -49t-49.5 -20z"/>
<glyph glyph-name="j" horiz-adv-x="242" unicode="j" d="M60 -108v489q0 8 5.5 13.5t13.5 5.5h84q8 0 13.5 -5.5t5.5 -13.5v-489q0 -96 -52 -149t-134 -53q-36 0 -69.5 12.5t-48.5 26.5q-6 5 -6 14q0 6 2 9l33 64q7 14 24 5q32 -20 59 -20q34 0 52 23.5t18 67.5zM120 542q-28 0 -48 20t-20 49t20 49t48 20q29 0 49.5 -20 t20.5 -49t-20.5 -49t-49.5 -20z"/>
<glyph glyph-name="k" horiz-adv-x="489" unicode="k" d="M60 19v662q0 7 6 13t13 6h85q8 0 13.5 -6t5.5 -13v-433l138 140q14 12 25 12h91q18 0 18 -17q0 -5 -5 -12l-149 -152l178 -191q5 -7 5 -12q0 -6 -5 -11t-13 -5h-108q-11 0 -17 8l-158 180v-169q0 -7 -5.5 -13t-13.5 -6h-85q-7 0 -13 6t-6 13z"/>
<glyph glyph-name="l" horiz-adv-x="242" unicode="l" d="M60 19v662q0 7 6 13t13 6h84q7 0 13 -6t6 -13v-662q0 -7 -6 -13t-13 -6h-84q-7 0 -13 6t-6 13z"/>
<glyph glyph-name="m" horiz-adv-x="779" unicode="m" d="M60 19v362q0 8 5.5 13.5t13.5 5.5h37q13 0 17 -11l14 -38q53 59 134 59q79 0 130 -62q59 62 141 62q90 0 132.5 -56.5t42.5 -143.5v-191q0 -8 -5.5 -13.5t-13.5 -5.5h-81q-8 0 -13.5 5.5t-5.5 13.5v198q0 40 -19 62.5t-56 22.5q-26 0 -47 -10.5t-29 -21.5l-8 -10 q1 -20 1 -38v-203q0 -7 -6 -13t-13 -6h-75q-8 0 -13.5 5.5t-5.5 13.5v198q0 85 -74 85q-61 0 -84 -63v-220q0 -7 -5.5 -13t-13.5 -6h-81q-7 0 -13 6t-6 13z"/>
<glyph glyph-name="n" horiz-adv-x="519" unicode="n" d="M60 19v362q0 8 5.5 13.5t13.5 5.5h38q12 0 17 -12l14 -37q55 59 141 59q90 0 134 -57t44 -142v-192q0 -7 -5.5 -13t-13.5 -6h-82q-8 0 -13.5 5.5t-5.5 13.5v198q0 39 -19.5 62t-55.5 23t-60.5 -19.5t-33.5 -43.5v-220q0 -19 -25 -19h-74q-7 0 -13 6t-6 13z"/>
<glyph glyph-name="o" horiz-adv-x="468" unicode="o" d="M138 201q0 -43 28 -73t68 -30t68 30t28 73q0 42 -28 71.5t-68 29.5t-68 -29.5t-28 -71.5zM29 201q0 85 60.5 147t144.5 62t144.5 -62t60.5 -147q0 -86 -60 -148.5t-145 -62.5t-145 62.5t-60 148.5z"/>
<glyph glyph-name="p" horiz-adv-x="500" unicode="p" d="M178 121q28 -23 78 -23q42 0 69.5 29.5t27.5 72.5t-26 72.5t-67 29.5q-34 0 -55 -20t-27 -41v-120zM183 12v-293q0 -19 -24 -19h-80q-7 0 -13 6t-6 13v662q0 8 5.5 13.5t13.5 5.5h39q12 0 17 -12l13 -33q14 19 49.5 37t79.5 18q82 0 137.5 -61.5t55.5 -148.5 q0 -88 -58 -149t-140 -61q-50 0 -89 22z"/>
<glyph glyph-name="q" horiz-adv-x="500" unicode="q" d="M147 198q0 -42 27.5 -71t69.5 -29q22 0 41.5 6t28.5 12l8 5v120q-6 21 -27 41t-55 20q-40 0 -66.5 -30.5t-26.5 -73.5zM30 200q0 87 55.5 148.5t137.5 61.5q44 0 79.5 -18t49.5 -37l13 33q5 12 17 12h39q8 0 13.5 -5.5t5.5 -13.5v-662q0 -7 -6 -13t-13 -6h-80 q-24 0 -24 19v293q-39 -22 -89 -22q-82 0 -140 61t-58 149z"/>
<glyph glyph-name="r" horiz-adv-x="341" unicode="r" d="M60 19v362q0 8 5.5 13.5t13.5 5.5h38q13 0 18 -13l14 -39q43 62 113 62q32 0 55.5 -9t23.5 -23q0 -2 -2 -8l-37 -65q-9 -16 -23 -9q-18 6 -29 6q-27 0 -45.5 -13.5t-25.5 -27.5v-242q0 -19 -23 -19h-77q-7 0 -13 6t-6 13z"/>
<glyph glyph-name="s" horiz-adv-x="364" unicode="s" d="M44 27q-12 10 -6 21l27 54q6 16 23 7q45 -24 91 -24q34 0 34 25q0 14 -14 24t-53 26q-113 44 -113 132q0 50 37.5 84t109.5 34q76 0 123 -31q17 -11 9 -27l-25 -51q-7 -13 -24 -7q-45 21 -83 21q-34 0 -34 -23q0 -12 9.5 -18t38.5 -18q5 -2 7 -3q67 -26 101 -56.5 t34 -84.5q0 -52 -43 -87t-116 -35q-84 0 -133 37z"/>
<glyph glyph-name="t" horiz-adv-x="345" unicode="t" d="M81 119v176h-34q-7 0 -12.5 5.5t-5.5 13.5v67q0 8 5 13.5t13 5.5h34v111q0 7 5.5 13t13.5 6l82 1q7 0 12.5 -5.5t5.5 -13.5v-112h88q19 0 19 -19v-67q0 -8 -5.5 -13.5t-13.5 -5.5h-88v-160q0 -32 31 -32q19 0 49 11q17 6 22 -11l20 -63q1 -2 1 -7q0 -13 -12 -17 q-4 -2 -21.5 -8t-46.5 -12t-51 -6q-111 0 -111 129z"/>
<glyph glyph-name="u" horiz-adv-x="503" unicode="u" d="M53 187v194q0 8 5.5 13.5t13.5 5.5h82q8 0 13.5 -5.5t5.5 -13.5v-197q0 -40 19.5 -63t53.5 -23q30 0 52.5 23t27.5 52v208q0 11 5 15t17 4h76q8 0 13.5 -5.5t5.5 -13.5v-362q0 -7 -5.5 -13t-13.5 -6h-37q-13 0 -19 15l-12 33q-1 -1 -7.5 -7t-10 -9t-12 -9t-15 -10t-17 -9 t-21 -7.5t-24 -4.5t-27.5 -2q-87 0 -128 56t-41 141z"/>
<glyph glyph-name="v" horiz-adv-x="418" unicode="v" d="M189 0l-182 376q-2 4 -2 10q0 14 16 14h87q12 0 18 -11l81 -186h2l86 186q5 11 24 11h78q17 0 17 -14q0 -4 -3 -10l-183 -376q-6 -10 -17 -10h-5q-11 0 -17 10z"/>
<glyph glyph-name="w" horiz-adv-x="616" unicode="w" d="M143 1l-125 376q-2 6 -2 8q0 15 19 15h72q15 0 18 -12l60 -179h1l102 192q4 9 16 9h8q11 0 16 -9l101 -192h1l60 179q4 12 23 12h65q19 0 19 -16q0 -5 -1 -7l-125 -376q-4 -11 -18 -11h-4q-11 0 -16 9l-126 233h-1l-125 -233q-5 -9 -16 -9h-5q-13 0 -17 11z"/>
<glyph glyph-name="x" horiz-adv-x="451" unicode="x" d="M36 0q-17 0 -17 15q0 7 5 14l130 175l-126 167q-4 5 -4 12q0 17 19 17h83q23 0 33 -14l65 -94h1l66 94q10 14 30 14h90q17 0 17 -15q0 -7 -5 -14l-126 -166l127 -176q4 -5 4 -13q0 -16 -16 -16h-88q-17 0 -28 16l-71 100h-1l-76 -108q-6 -8 -16 -8h-96z"/>
<glyph glyph-name="y" horiz-adv-x="463" unicode="y" d="M171 28l-163 346q-2 6 -2 9q0 17 19 17h90q11 0 17 -11l101 -226h1l100 226q6 11 24 11h80q9 0 14.5 -5t5.5 -12q0 -5 -3 -9l-306 -662q-6 -12 -17 -12h-86q-19 0 -19 17q0 7 2 10z"/>
<glyph glyph-name="z" horiz-adv-x="366" unicode="z" d="M30 19v10l142 262v2h-114q-7 0 -12.5 5.5t-5.5 13.5v69q0 8 5 13.5t13 5.5h264q8 0 14 -5.5t6 -12.5q0 -4 -3 -9l-145 -264v-3h108q19 0 19 -19v-68q0 -8 -5.5 -13.5t-13.5 -5.5h-253q-7 0 -13 6t-6 13z"/>
<glyph glyph-name="braceleft" horiz-adv-x="394" unicode="{" d="M103 -36v123q0 30 -22.5 47t-46.5 21q-15 2 -15 18v49q0 13 14 17q8 2 22.5 9t31 24t16.5 36v127q0 78 23.5 134.5t63 85t78.5 41t83 14.5h2q16 0 18 -17l4 -63q1 -16 -14 -18q-61 -13 -97.5 -58t-36.5 -119v-105q0 -30 -11 -55.5t-27.5 -41t-27 -23t-17.5 -10.5v-4 q83 -34 83 -125v-107q0 -74 36.5 -118t97.5 -57q15 -4 14 -19l-4 -63q-2 -17 -18 -17h-2q-44 2 -83 14.5t-78.5 41t-63 84.5t-23.5 134z"/>
<glyph glyph-name="bar" horiz-adv-x="180" unicode="|" d="M65 -282v1023q0 8 5.5 13.5t13.5 5.5h13q8 0 13 -5.5t5 -13.5v-1023q0 -7 -5.5 -12.5t-13.5 -5.5h-12q-8 0 -13.5 5.5t-5.5 12.5z"/>
<glyph glyph-name="braceright" horiz-adv-x="394" unicode="}" d="M167 -36v107q0 91 83 125v4q-7 3 -17.5 10.5t-27 23t-27.5 41t-11 55.5v105q0 74 -36.5 119t-97.5 58q-15 2 -14 18l4 63q2 17 18 17h2q44 -2 83 -14.5t78.5 -41t63 -85t23.5 -134.5v-127q0 -27 26.5 -46t43.5 -23q14 -4 14 -17v-49q0 -16 -15 -18q-24 -4 -46.5 -21 t-22.5 -47v-123q0 -78 -23.5 -134t-63 -84.5t-78.5 -41t-83 -14.5h-2q-16 0 -18 17l-4 63q-1 15 14 19q61 13 97.5 57t36.5 118z"/>
<glyph glyph-name="asciitilde" horiz-adv-x="533" unicode="~" d="M78 194q-28 28 -45 44q-6 8 -6 14t4 10q3 4 8.5 10.5t22 24t33 30.5t40.5 23.5t46 10.5q41 0 101 -41q49 -32 73 -32q40 0 74 52q6 8 15 8q8 0 14 -6l42 -44q6 -4 6 -13q0 -7 -4 -11q-3 -4 -8 -10.5t-21.5 -23.5t-33 -30t-39.5 -23.5t-45 -10.5q-8 0 -15 0.5t-14.5 2.5 t-13 3.5t-13 5t-11.5 5t-12 6.5t-10 6.5t-11 7t-10 6.5q-41 28 -65 28q-41 0 -74 -51q-6 -8 -15 -8q-7 0 -13 6z"/>
<glyph glyph-name="uni00A0" horiz-adv-x="221" unicode=" "/>
<glyph glyph-name="exclamdown" horiz-adv-x="266" unicode="¡" d="M98 112q1 6 6.5 11t12.5 5h32q7 0 12.5 -5t6.5 -11l39 -279v-114q0 -7 -5.5 -13t-13.5 -6h-110q-8 0 -13.5 6t-5.5 13v112zM134 245q-34 0 -58.5 24.5t-24.5 58.5t24.5 58t58.5 24q33 0 57 -24t24 -58t-24 -58.5t-57 -24.5z"/>
<glyph glyph-name="cent" horiz-adv-x="412" unicode="¢" d="M183 113l51 188q-40 -1 -68.5 -30.5t-28.5 -70.5q0 -57 46 -87zM154 4q-60 23 -97.5 76t-37.5 120q0 87 64 148.5t149 61.5q11 0 31 -2l11 41q4 14 18 14q3 0 5 -1l12 -3q18 -4 13 -23l-12 -42q38 -17 70 -55q4 -5 4 -12q0 -10 -9 -16l-46 -44q-11 -9 -25 3q-8 9 -22 18 l-51 -189q21 0 38.5 6.5t24.5 12t20 18.5q12 12 25 3l43 -37q11 -8 11 -18q0 -4 -4 -10q-54 -84 -158 -84q-11 0 -29 2l-26 -96q-3 -13 -19 -13h-4l-11 3q-18 4 -14 22z"/>
<glyph glyph-name="sterling" horiz-adv-x="485" unicode="£" d="M66 19v18q45 85 45 175q0 39 -8 79h-43q-7 0 -12.5 5.5t-5.5 13.5v13q0 8 5.5 13.5t12.5 5.5h31q-2 9 -9 34t-10.5 40.5t-7 38.5t-3.5 43q0 97 60.5 154.5t151.5 57.5q42 0 81 -15t54 -26t36 -30q7 -5 7 -14q0 -5 -5 -12l-49 -59q-11 -15 -27 -3q-52 46 -96 46 q-36 0 -62 -26t-26 -68q0 -29 17.5 -88t20.5 -73h116q8 0 13.5 -5.5t5.5 -13.5v-14q0 -8 -5.5 -13t-13.5 -5h-106q3 -24 3 -55q0 -73 -17 -125h196q8 0 13 -5.5t5 -13.5v-73q0 -8 -5.5 -13.5t-12.5 -5.5h-331q-7 0 -13 6t-6 13z"/>
<glyph glyph-name="currency" horiz-adv-x="456" unicode="¤" d="M227 281q22 0 37 14.5t15 36.5t-14.5 37t-37.5 15q-22 0 -36.5 -15t-14.5 -37t14.5 -36.5t36.5 -14.5zM96 161l-39 40q-5 5 -5 13q0 9 5 14l48 48q-12 27 -12 56q0 30 13 56l-48 48q-5 5 -5 14q0 8 5 13l40 39q5 5 14 5q8 0 13 -5l47 -47q29 13 56 13t56 -13l47 47 q5 5 13 5q9 0 14 -5l39 -40q6 -6 6 -14q0 -7 -5 -12l-47 -47q13 -31 13 -59q0 -30 -12 -55l47 -47q5 -5 5 -13q0 -9 -5 -14l-40 -39q-6 -6 -14 -6q-7 0 -12 5l-48 48q-29 -13 -57 -13t-57 13l-48 -48q-5 -5 -13 -5q-9 0 -14 5z"/>
<glyph glyph-name="yen" horiz-adv-x="633" unicode="¥" d="M139 120q-7 0 -12.5 5.5t-5.5 13.5v13q0 8 5.5 13.5t12.5 5.5h111v69h-111q-7 0 -12.5 5.5t-5.5 13.5v13q0 8 5.5 13.5t12.5 5.5h111v46l-228 334q-3 5 -3 11q0 18 19 18h103q9 0 16 -9l160 -230l160 230q7 9 16 9h102q19 0 19 -18q0 -6 -3 -11l-231 -333v-47h109 q8 0 13.5 -5.5t5.5 -13.5v-14q0 -8 -5.5 -13t-13.5 -5h-109v-69h109q8 0 13.5 -5.5t5.5 -13.5v-14q0 -8 -5.5 -13t-13.5 -5h-109v-101q0 -7 -6 -13t-13 -6h-92q-8 0 -13.5 5.5t-5.5 13.5v101h-111z"/>
<glyph glyph-name="brokenbar" horiz-adv-x="315" unicode="¦" d="M132 49q0 8 5.5 13.5t13.5 5.5h13q8 0 13 -5.5t5 -13.5v-331q0 -7 -5.5 -12.5t-13.5 -5.5h-12q-8 0 -13.5 5.5t-5.5 12.5v331zM151 392q-8 0 -13.5 5.5t-5.5 12.5v331q0 8 5.5 13.5t13.5 5.5h13q8 0 13 -5.5t5 -13.5v-331q0 -7 -5.5 -12.5t-13.5 -5.5h-12z"/>
<glyph glyph-name="section" horiz-adv-x="512" unicode="§" d="M155 260q0 -26 17 -46t42 -34t67 -33l21 -9q4 3 11 8.5t18 26.5t11 45q0 70 -151 117q-36 -36 -36 -75zM71 -88q9 14 20 14q7 0 15 -6l16 -10q16 -10 34.5 -20t45 -19t48.5 -9q34 0 59.5 17.5t25.5 50.5q0 66 -120 117q-180 74 -180 204q0 76 72 136q-72 66 -72 142 q0 73 54.5 127t160.5 54q102 0 191 -64q10 -5 10 -19q0 -6 -3 -12l-41 -59q-8 -11 -17 -11q-7 0 -16 6q-72 50 -129 50q-40 0 -63 -19.5t-23 -44.5q0 -32 27 -56.5t86 -48.5q43 -17 73 -33t62.5 -41t49.5 -59.5t17 -76.5q0 -74 -73 -139q73 -67 73 -146q0 -76 -61 -131 t-159 -55q-130 0 -209 74q-11 11 -11 19q0 6 6 15z"/>
<glyph glyph-name="dieresis" horiz-adv-x="414" unicode="¨" d="M112 551q-26 0 -44.5 19t-18.5 45t18.5 44.5t44.5 18.5t45 -18.5t19 -44.5t-19 -45t-45 -19zM313 551q-26 0 -44.5 19t-18.5 45t18.5 44.5t44.5 18.5t45 -18.5t19 -44.5t-19 -45t-45 -19z"/>
<glyph glyph-name="copyright" horiz-adv-x="804" unicode="©" d="M223 348q0 78 54.5 133t132.5 55q64 0 112 -38q7 -6 7 -15t-5 -14l-34 -38q-9 -12 -25 -2q-23 16 -54 16q-39 0 -65.5 -27.5t-26.5 -66.5q0 -40 26 -67t66 -27q28 0 53 16q14 11 25 -2l36 -40q13 -14 -1 -28q-49 -42 -114 -42q-77 0 -132 55t-55 132zM120 350 q0 -116 82.5 -198.5t198.5 -82.5q117 0 199 82.5t82 198.5q0 117 -82 199t-199 82q-116 0 -198.5 -82t-82.5 -199zM42 350q0 149 105.5 254.5t253.5 105.5q149 0 254.5 -106t105.5 -254t-105.5 -253.5t-254.5 -105.5t-254 105.5t-105 253.5z"/>
<glyph glyph-name="ordfeminine" horiz-adv-x="311" unicode="ª" d="M141 462q17 0 31.5 11t19.5 24v33q-13 11 -45 11q-19 0 -31.5 -11.5t-12.5 -28.5t10.5 -28t27.5 -11zM121 398q-44 0 -72 28t-28 74q0 41 31.5 67.5t86.5 26.5q14 0 27.5 -2t19.5 -4l7 -2q0 29 -8.5 41.5t-33.5 12.5q-27 0 -78 -12q-14 -3 -17 15l-6 33q-3 14 9 19 q7 4 38.5 9.5t62.5 5.5q64 0 89 -31t25 -98v-161q0 -6 -4.5 -10t-9.5 -4h-27q-9 0 -14 10q-1 4 -4 11t-4 10q-41 -39 -90 -39z"/>
<glyph glyph-name="guillemotleft" horiz-adv-x="471" unicode="«" d="M130 39l-104 155q-4 5 -4 12q0 6 4 12l109 148q7 12 18 12h57q19 0 19 -17q0 -4 -4 -14l-68 -139l65 -147q3 -8 3 -13q0 -17 -18 -17h-62q-9 0 -15 8zM226 194q-4 5 -4 12q0 6 4 12l109 148q7 12 18 12h57q19 0 19 -17q0 -4 -4 -14l-68 -139l65 -147q3 -8 3 -13 q0 -17 -18 -17h-62q-9 0 -15 8z"/>
<glyph glyph-name="logicalnot" horiz-adv-x="504" unicode="¬" d="M42 300q-8 0 -13.5 6t-5.5 13v56q0 7 5.5 13t13.5 6h393q8 0 13.5 -6t5.5 -13v-226q0 -7 -5.5 -12.5t-13.5 -5.5h-56q-8 0 -13.5 5.5t-5.5 12.5v151h-318z"/>
<glyph glyph-name="uni00AD" horiz-adv-x="347" unicode="­" d="M62 192q-8 0 -13.5 5t-5.5 13v67q0 19 19 19h223q19 0 19 -19v-67q0 -8 -5.5 -13t-13.5 -5h-223z"/>
<glyph glyph-name="registered" horiz-adv-x="804" unicode="®" d="M351 368h79q18 0 29.5 12t11.5 29q0 18 -11.5 29.5t-29.5 11.5h-79v-82zM267 187v328q0 8 5.5 13.5t13.5 5.5h155q49 0 86 -34t37 -90q0 -77 -71 -111l46 -104q2 -6 2 -9q0 -8 -5.5 -13t-13.5 -5h-54q-12 0 -18 14l-44 112h-52v-107q0 -8 -5.5 -13.5t-13.5 -5.5h-49 q-8 0 -13.5 5.5t-5.5 13.5zM120 350q0 -116 82.5 -198.5t198.5 -82.5q117 0 199 82.5t82 198.5q0 117 -82 199t-199 82q-116 0 -198.5 -82t-82.5 -199zM42 350q0 149 105.5 254.5t253.5 105.5q149 0 254.5 -106t105.5 -254t-105.5 -253.5t-254.5 -105.5t-254 105.5 t-105 253.5z"/>
<glyph glyph-name="macron" horiz-adv-x="414" unicode="¯" d="M79 570q-8 0 -13.5 5t-5.5 13v34q0 19 19 19h256q19 0 19 -19v-34q0 -8 -5.5 -13t-13.5 -5h-256z"/>
<glyph glyph-name="degree" horiz-adv-x="310" unicode="°" d="M155 524q19 0 34 15.5t15 35.5q0 19 -15 34t-34 15q-20 0 -35.5 -15t-15.5 -34q0 -20 15.5 -35.5t35.5 -15.5zM155 440q-56 0 -95.5 39.5t-39.5 95.5t39.5 95.5t95.5 39.5t95.5 -39.5t39.5 -95.5t-39.5 -95.5t-95.5 -39.5z"/>
<glyph glyph-name="plusminus" horiz-adv-x="560" unicode="±" d="M64 66v56q0 8 6 13.5t13 5.5h394q7 0 12.5 -5.5t5.5 -13.5v-56q0 -8 -5.5 -13.5t-12.5 -5.5h-394q-7 0 -13 5.5t-6 13.5zM233 260v103h-150q-7 0 -13 5.5t-6 13.5v56q0 8 6 13.5t13 5.5h150v148q0 7 5.5 12.5t13.5 5.5h56q8 0 13.5 -5.5t5.5 -12.5v-148h150 q7 0 12.5 -5.5t5.5 -13.5v-56q0 -8 -5.5 -13.5t-12.5 -5.5h-150v-103q0 -7 -5.5 -12.5t-13.5 -5.5h-56q-8 0 -13.5 5.5t-5.5 12.5z"/>
<glyph glyph-name="twosuperior" horiz-adv-x="277" unicode="²" d="M37 504q-10 0 -10 9v17l110 126q25 28 25 50q0 15 -11 25t-29 10q-26 0 -44 -20q-9 -6 -16 3l-22 31q-9 12 3 21q41 34 94 34q47 0 76.5 -25.5t29.5 -66.5t-37 -86l-54 -64h80q9 0 9 -9v-46q0 -9 -9 -9h-195z"/>
<glyph glyph-name="threesuperior" horiz-adv-x="265" unicode="³" d="M122 494q-58 0 -95 33q-5 5 -5 9q0 3 4 9l22 29q6 9 17 2l3 -2q2 -1 6.5 -3.5t10 -5t13 -4t14.5 -1.5q42 0 42 31q0 33 -47 33h-29q-15 0 -15 14v31q0 14 15 14h29q19 0 30 8.5t11 22.5q0 13 -10.5 21.5t-27.5 8.5q-21 0 -39 -16q-9 -5 -15 3l-24 29q-11 11 1 18 q33 32 89 32q48 0 78 -22.5t30 -60.5q0 -25 -15.5 -43t-35.5 -27v-1q60 -23 60 -76q0 -40 -33.5 -63t-83.5 -23z"/>
<glyph glyph-name="acute" horiz-adv-x="302" unicode="´" d="M89 528q-7 -3 -13 -3q-8 0 -13 9l-17 36q-2 4 -2 6q0 7 8 13l163 97q5 4 13 4q9 0 13 -7l29 -51q3 -6 3 -12q0 -10 -9 -15z"/>
<glyph glyph-name="mu" horiz-adv-x="524" unicode="µ" d="M181 -4v-277q0 -7 -5.5 -13t-13.5 -6h-82q-8 0 -13.5 6t-5.5 13v662q0 8 5.5 13.5t13.5 5.5h82q8 0 13.5 -5.5t5.5 -13.5v-199q2 -37 21 -57.5t52 -20.5q30 0 52.5 23t27.5 52v202q0 11 5 15t17 4h76q8 0 13.5 -5.5t5.5 -13.5v-362q0 -7 -5.5 -13t-13.5 -6h-37 q-13 0 -19 15l-12 33q-1 -1 -7.5 -7t-10 -9t-12 -9t-15 -10t-17 -9t-21 -7.5t-24 -4.5t-27.5 -2q-26 0 -49 6z"/>
<glyph glyph-name="paragraph" horiz-adv-x="701" unicode="¶" d="M227 281q-85 0 -146.5 61t-61.5 149q0 86 56.5 147.5t137.5 61.5l456 -1q7 0 13 -5.5t6 -13.5v-46q0 -8 -5.5 -13.5t-13.5 -5.5h-78v-896q0 -8 -5.5 -13.5t-13.5 -5.5h-54q-8 0 -13.5 6t-5.5 13v896h-136v-896q0 -7 -5.5 -13t-13.5 -6h-54q-8 0 -13.5 6t-5.5 13v562h-44z "/>
<glyph glyph-name="periodcentered" horiz-adv-x="258" unicode="·" d="M128 167q-36 0 -62.5 26.5t-26.5 62.5q0 38 26.5 65t62.5 27q38 0 65 -27t27 -65q0 -36 -27 -62.5t-65 -26.5z"/>
<glyph glyph-name="cedilla" horiz-adv-x="247" unicode="¸" d="M54 0h66v-52q46 -6 71.5 -33.5t25.5 -69.5q0 -44 -31 -74.5t-75 -30.5q-46 0 -76 35q-5 7 -5 12q0 8 8 16l20 17q11 11 21 -1q11 -12 30 -12q15 0 25 11t10 26q0 43 -73 49q-17 2 -17 18v89z"/>
<glyph glyph-name="onesuperior" horiz-adv-x="196" unicode="¹" d="M83 504q-10 0 -10 9v193l-49 -4q-9 0 -9 9l-2 31q0 5 7 11l74 47h51q9 0 9 -9v-278q0 -9 -9 -9h-62z"/>
<glyph glyph-name="ordmasculine" horiz-adv-x="302" unicode="º" d="M152 464q44 0 44 88t-44 88t-44 -88t44 -88zM152 394q-61 0 -94 42t-33 116q0 75 32.5 116.5t94.5 41.5q61 0 93 -41.5t32 -116.5t-32 -116.5t-93 -41.5z"/>
<glyph glyph-name="guillemotright" horiz-adv-x="471" unicode="»" d="M63 31q-18 0 -18 17q0 6 3 13l65 147l-68 139q-4 10 -4 14q0 17 19 17h57q11 0 18 -12l109 -148q8 -13 0 -24l-104 -155q-6 -8 -15 -8h-62zM248 61l65 147l-68 139q-4 10 -4 14q0 17 19 17h57q11 0 18 -12l109 -148q4 -6 4 -12q0 -7 -4 -12l-104 -155q-6 -8 -15 -8h-62 q-18 0 -18 17q0 6 3 13z"/>
<glyph glyph-name="onequarter" horiz-adv-x="664" unicode="¼" d="M424 116h74v83zM351 65v51l163 177q3 3 8 3h41q9 0 9 -9v-170h40q9 0 9 -8v-43q0 -9 -9 -9h-40v-48q0 -9 -9 -9h-56q-10 0 -10 9v48h-137q-9 0 -9 8zM91 404q-10 0 -10 9v193l-49 -4q-9 0 -9 9l-2 31q0 5 7 11l74 47h51q9 0 9 -9v-278q0 -9 -9 -9h-62zM89 27l343 663 q5 10 17 10h50q8 0 13.5 -5t5.5 -13q0 -6 -2 -9l-345 -663q-5 -10 -17 -10h-48q-8 0 -13.5 5t-5.5 13q0 6 2 9z"/>
<glyph glyph-name="onehalf" horiz-adv-x="661" unicode="½" d="M391 9v17l110 126q25 28 25 50q0 15 -11 25t-29 10q-26 0 -44 -20q-9 -6 -16 3l-22 31q-9 12 3 21q41 34 94 34q47 0 76.5 -25.5t29.5 -66.5t-37 -86l-54 -64h80q9 0 9 -9v-46q0 -9 -9 -9h-195q-10 0 -10 9zM91 404q-10 0 -10 9v193l-49 -4q-9 0 -9 9l-2 31q0 5 7 11 l74 47h51q9 0 9 -9v-278q0 -9 -9 -9h-62zM89 27l343 663q5 10 17 10h50q8 0 13.5 -5t5.5 -13q0 -6 -2 -9l-345 -663q-5 -10 -17 -10h-48q-8 0 -13.5 5t-5.5 13q0 6 2 9z"/>
<glyph glyph-name="threequarters" horiz-adv-x="701" unicode="¾" d="M461 116h74v83zM388 65v51l163 177q3 3 8 3h41q9 0 9 -9v-170h40q9 0 9 -8v-43q0 -9 -9 -9h-40v-48q0 -9 -9 -9h-56q-10 0 -10 9v48h-137q-9 0 -9 8zM126 27l343 663q5 10 17 10h50q8 0 13.5 -5t5.5 -13q0 -6 -2 -9l-345 -663q-5 -10 -17 -10h-48q-8 0 -13.5 5t-5.5 13 q0 6 2 9zM128 394q-58 0 -95 33q-5 5 -5 9q0 3 4 9l22 29q6 9 17 2l3 -2q2 -1 6.5 -3.5t10 -5t13 -4t14.5 -1.5q42 0 42 31q0 33 -47 33h-29q-15 0 -15 14v31q0 14 15 14h29q19 0 30 8.5t11 22.5q0 13 -10.5 21.5t-27.5 8.5q-21 0 -39 -16q-9 -5 -15 3l-24 29q-11 11 1 18 q33 32 89 32q48 0 78 -22.5t30 -60.5q0 -25 -15.5 -43t-35.5 -27v-1q60 -23 60 -76q0 -40 -33.5 -63t-83.5 -23z"/>
<glyph glyph-name="questiondown" horiz-adv-x="434" unicode="¿" d="M19 -142q0 34 15.5 63t38 48.5t45 36.5t38 34.5t15.5 33.5v33q0 21 20 21h81q8 0 13.5 -5.5t5.5 -13.5v-42q0 -32 -21.5 -61.5t-48 -48.5t-48 -43.5t-21.5 -47.5q0 -28 22 -47.5t58 -19.5q27 0 47.5 9t40 25.5t20.5 17.5q12 8 22 -1l47 -46q6 -4 6 -13q0 -7 -6 -13 q-3 -4 -8 -9.5t-24 -21t-40 -27t-54.5 -21t-69.5 -9.5q-80 0 -137 48t-57 120zM232 245q-34 0 -58.5 24.5t-24.5 58.5t24.5 58t58.5 24t58 -24t24 -58t-24 -58.5t-58 -24.5z"/>
<glyph glyph-name="Agrave" horiz-adv-x="663" unicode="À" d="M402 768l-175 77q-10 5 -10 15q0 4 4 12l28 52q4 7 13 7q5 0 13 -4l164 -98q12 -7 6 -19l-18 -35q-7 -15 -25 -7zM231 239h201l-100 220h-3zM17 0q-19 0 -19 17q0 3 2 9l311 673q5 11 17 11h10q12 0 17 -11l308 -673q2 -6 2 -9q0 -17 -19 -17h-87q-19 0 -29 20l-49 108 h-299l-49 -108q-8 -20 -29 -20h-87z"/>
<glyph glyph-name="Aacute" horiz-adv-x="663" unicode="Á" d="M261 768q-18 -8 -25 7l-18 35q-6 12 6 19l164 98q8 5 14 5q7 0 12 -8l28 -52q4 -8 4 -12q0 -10 -10 -15zM231 239h201l-100 220h-3zM17 0q-19 0 -19 17q0 3 2 9l311 673q5 11 17 11h10q12 0 17 -11l308 -673q2 -6 2 -9q0 -17 -19 -17h-87q-19 0 -29 20l-49 108h-299 l-49 -108q-8 -20 -29 -20h-87z"/>
<glyph glyph-name="Acircumflex" horiz-adv-x="663" unicode="Â" d="M234 766q-14 -8 -23 3l-26 37q-7 10 6 19l130 101q6 4 10 4q3 0 11 -4l130 -101q13 -9 6 -19l-26 -37q-9 -11 -23 -3l-97 61zM231 239h201l-100 220h-3zM17 0q-19 0 -19 17q0 3 2 9l311 673q5 11 17 11h10q12 0 17 -11l308 -673q2 -6 2 -9q0 -17 -19 -17h-87 q-19 0 -29 20l-49 108h-299l-49 -108q-8 -20 -29 -20h-87z"/>
<glyph glyph-name="Atilde" horiz-adv-x="663" unicode="Ã" d="M211 789l-29 21q-12 9 -6 23q8 15 12.5 22t19 25.5t33 27.5t39.5 9q28 0 59 -27.5t48 -27.5q16 0 31 22.5t23 22.5q6 0 11 -4l28 -20q6 -6 6 -14q0 -9 -5 -17q-30 -52 -60 -67q-17 -9 -37 -9q-28 0 -61.5 28t-47.5 28q-17 0 -31 -23.5t-23 -23.5q-5 0 -10 4zM231 239h201 l-100 220h-3zM17 0q-19 0 -19 17q0 3 2 9l311 673q5 11 17 11h10q12 0 17 -11l308 -673q2 -6 2 -9q0 -17 -19 -17h-87q-19 0 -29 20l-49 108h-299l-49 -108q-8 -20 -29 -20h-87z"/>
<glyph glyph-name="Adieresis" horiz-adv-x="663" unicode="Ä" d="M207 775q-26 0 -44.5 19t-18.5 45t18.5 44.5t44.5 18.5t45 -18.5t19 -44.5t-19 -45t-45 -19zM454 775q-26 0 -44.5 19t-18.5 45t18.5 44.5t44.5 18.5t45 -18.5t19 -44.5t-19 -45t-45 -19zM231 239h201l-100 220h-3zM17 0q-19 0 -19 17q0 3 2 9l311 673q5 11 17 11h10 q12 0 17 -11l308 -673q2 -6 2 -9q0 -17 -19 -17h-87q-19 0 -29 20l-49 108h-299l-49 -108q-8 -20 -29 -20h-87z"/>
<glyph glyph-name="Aring" horiz-adv-x="663" unicode="Å" d="M331 817q19 0 33.5 15t14.5 35q0 19 -14.5 33.5t-33.5 14.5q-20 0 -35 -14.5t-15 -33.5t15.5 -34.5t34.5 -15.5zM331 754q-47 0 -80 33t-33 80t33 80t80 33t80 -33t33 -80t-33 -80t-80 -33zM231 239h201l-100 220h-3zM17 0q-19 0 -19 17q0 3 2 9l311 673q5 11 17 11h10 q12 0 17 -11l308 -673q2 -6 2 -9q0 -17 -19 -17h-87q-19 0 -29 20l-49 108h-299l-49 -108q-8 -20 -29 -20h-87z"/>
<glyph glyph-name="AE" horiz-adv-x="900" unicode="Æ" d="M262 239h140v226zM1 0q-16 0 -16 14q0 7 4 12l401 643q15 24 25 28q7 3 19 3h395q8 0 13.5 -5.5t5.5 -13.5v-82q0 -8 -5.5 -13.5t-13.5 -5.5h-299v-164h250q8 0 13.5 -6t5.5 -13v-83q0 -8 -5.5 -13.5t-13.5 -5.5h-250v-175h299q8 0 13.5 -5.5t5.5 -13.5v-82 q0 -8 -5.5 -13.5t-13.5 -5.5h-408q-8 0 -13.5 5.5t-5.5 13.5v109h-210l-71 -113q-10 -15 -25 -15h-95z"/>
<glyph glyph-name="Ccedilla" horiz-adv-x="686" unicode="Ç" d="M338 -4q-128 22 -212.5 121.5t-84.5 231.5q0 150 105.5 255.5t255.5 105.5q138 0 242 -93q7 -6 7 -14t-6 -14l-61 -63q-12 -13 -25 0q-67 59 -154 59q-95 0 -159 -68.5t-64 -164.5q0 -95 64.5 -163t159.5 -68q83 0 153 57q13 12 25 0l62 -64q5 -4 5 -12q0 -9 -6 -15 q-98 -95 -241 -97v-42q46 -6 71.5 -33.5t25.5 -69.5q0 -44 -31 -74.5t-75 -30.5q-46 0 -76 35q-5 7 -5 12q0 8 8 16l20 17q11 11 21 -1q11 -12 30 -12q15 0 25 11t10 26q0 43 -73 49q-17 2 -17 18v85z"/>
<glyph glyph-name="Egrave" horiz-adv-x="588" unicode="È" d="M390 768l-175 77q-10 5 -10 15q0 4 4 12l28 52q4 7 13 7q5 0 13 -4l164 -98q12 -7 6 -19l-18 -35q-7 -15 -25 -7zM91 19v662q0 8 5.5 13.5t13.5 5.5h407q8 0 13.5 -5.5t5.5 -13.5v-82q0 -8 -5.5 -13.5t-13.5 -5.5h-296v-164h247q8 0 13.5 -6t5.5 -13v-83q0 -8 -5.5 -13.5 t-13.5 -5.5h-247v-175h296q8 0 13.5 -5.5t5.5 -13.5v-82q0 -8 -5.5 -13.5t-13.5 -5.5h-407q-8 0 -13.5 5.5t-5.5 13.5z"/>
<glyph glyph-name="Eacute" horiz-adv-x="588" unicode="É" d="M250 768q-18 -8 -25 7l-18 35q-6 12 6 19l164 98q8 5 14 5q7 0 12 -8l28 -52q4 -8 4 -12q0 -10 -10 -15zM91 19v662q0 8 5.5 13.5t13.5 5.5h407q8 0 13.5 -5.5t5.5 -13.5v-82q0 -8 -5.5 -13.5t-13.5 -5.5h-296v-164h247q8 0 13.5 -6t5.5 -13v-83q0 -8 -5.5 -13.5 t-13.5 -5.5h-247v-175h296q8 0 13.5 -5.5t5.5 -13.5v-82q0 -8 -5.5 -13.5t-13.5 -5.5h-407q-8 0 -13.5 5.5t-5.5 13.5z"/>
<glyph glyph-name="Ecircumflex" horiz-adv-x="588" unicode="Ê" d="M217 766q-14 -8 -23 3l-26 37q-7 10 6 19l130 101q6 4 10 4q3 0 11 -4l130 -101q13 -9 6 -19l-26 -37q-9 -11 -23 -3l-97 61zM91 19v662q0 8 5.5 13.5t13.5 5.5h407q8 0 13.5 -5.5t5.5 -13.5v-82q0 -8 -5.5 -13.5t-13.5 -5.5h-296v-164h247q8 0 13.5 -6t5.5 -13v-83 q0 -8 -5.5 -13.5t-13.5 -5.5h-247v-175h296q8 0 13.5 -5.5t5.5 -13.5v-82q0 -8 -5.5 -13.5t-13.5 -5.5h-407q-8 0 -13.5 5.5t-5.5 13.5z"/>
<glyph glyph-name="Edieresis" horiz-adv-x="588" unicode="Ë" d="M195 775q-26 0 -44.5 19t-18.5 45t18.5 44.5t44.5 18.5t45 -18.5t19 -44.5t-19 -45t-45 -19zM442 775q-26 0 -44.5 19t-18.5 45t18.5 44.5t44.5 18.5t45 -18.5t19 -44.5t-19 -45t-45 -19zM91 19v662q0 8 5.5 13.5t13.5 5.5h407q8 0 13.5 -5.5t5.5 -13.5v-82 q0 -8 -5.5 -13.5t-13.5 -5.5h-296v-164h247q8 0 13.5 -6t5.5 -13v-83q0 -8 -5.5 -13.5t-13.5 -5.5h-247v-175h296q8 0 13.5 -5.5t5.5 -13.5v-82q0 -8 -5.5 -13.5t-13.5 -5.5h-407q-8 0 -13.5 5.5t-5.5 13.5z"/>
<glyph glyph-name="Igrave" horiz-adv-x="313" unicode="Ì" d="M226 768l-175 77q-10 5 -10 15q0 4 4 12l28 52q4 7 13 7q5 0 13 -4l164 -98q7 -3 7 -13q0 -4 -1 -6l-18 -35q-7 -15 -25 -7zM91 19v662q0 7 5.5 13t13.5 6h93q7 0 13 -6t6 -13v-662q0 -7 -6 -13t-13 -6h-93q-8 0 -13.5 6t-5.5 13z"/>
<glyph glyph-name="Iacute" horiz-adv-x="313" unicode="Í" d="M86 768q-18 -8 -25 7l-18 35q-1 2 -1 6q0 10 7 13l164 98q8 5 14 5q7 0 12 -8l28 -52q4 -8 4 -12q0 -10 -10 -15zM91 19v662q0 7 5.5 13t13.5 6h93q7 0 13 -6t6 -13v-662q0 -7 -6 -13t-13 -6h-93q-8 0 -13.5 6t-5.5 13z"/>
<glyph glyph-name="Icircumflex" horiz-adv-x="313" unicode="Î" d="M57 766q-14 -8 -23 3l-26 37q-2 4 -2 6q0 7 8 13l130 101q6 4 10 4q3 0 11 -4l130 -101q8 -6 8 -13q0 -2 -2 -6l-26 -37q-9 -11 -23 -3l-97 61zM91 19v662q0 7 5.5 13t13.5 6h93q7 0 13 -6t6 -13v-662q0 -7 -6 -13t-13 -6h-93q-8 0 -13.5 6t-5.5 13z"/>
<glyph glyph-name="Idieresis" horiz-adv-x="313" unicode="Ï" d="M32 775q-26 0 -44.5 19t-18.5 45t18.5 44.5t44.5 18.5t45 -18.5t19 -44.5t-19 -45t-45 -19zM279 775q-26 0 -44.5 19t-18.5 45t18.5 44.5t44.5 18.5t45 -18.5t19 -44.5t-19 -45t-45 -19zM91 19v662q0 7 5.5 13t13.5 6h93q7 0 13 -6t6 -13v-662q0 -7 -6 -13t-13 -6h-93 q-8 0 -13.5 6t-5.5 13z"/>
<glyph glyph-name="Eth" horiz-adv-x="743" unicode="Ð" d="M225 122h114q97 0 161 65.5t64 163.5t-64 163t-161 65h-114v-207h165q8 0 13.5 -5.5t5.5 -13.5v-14q0 -8 -5.5 -13t-13.5 -5h-165v-199zM96 19v302h-29q-7 0 -12.5 5.5t-5.5 13.5v13q0 8 5.5 13.5t12.5 5.5h29v309q0 8 5.5 13.5t12.5 5.5h237q145 0 248 -102.5 t103 -246.5q0 -145 -103 -248t-248 -103h-237q-7 0 -12.5 5.5t-5.5 13.5z"/>
<glyph glyph-name="Ntilde" horiz-adv-x="773" unicode="Ñ" d="M266 789l-29 21q-12 9 -6 23q8 15 12.5 22t19 25.5t33 27.5t39.5 9q28 0 59 -27.5t48 -27.5q16 0 31 22.5t23 22.5q6 0 11 -4l28 -20q7 -7 7 -14q0 -8 -6 -17q-30 -52 -60 -67q-17 -9 -37 -9q-28 0 -61.5 28t-47.5 28q-17 0 -31 -23.5t-23 -23.5q-5 0 -10 4zM91 19v673 q0 7 5.5 12.5t13.5 5.5h25l416 -442h1v413q0 8 5.5 13.5t13.5 5.5h92q7 0 13 -6t6 -13v-673q0 -7 -5.5 -12.5t-13.5 -5.5h-24l-418 459h-1v-430q0 -8 -5.5 -13.5t-13.5 -5.5h-91q-8 0 -13.5 6t-5.5 13z"/>
<glyph glyph-name="Ograve" horiz-adv-x="800" unicode="Ò" d="M473 768l-175 77q-10 5 -10 15q0 4 4 12l28 52q4 7 13 7q5 0 13 -4l164 -98q12 -7 6 -19l-18 -35q-7 -15 -25 -7zM171 349q0 -95 67.5 -162t161.5 -67q95 0 162.5 67.5t67.5 161.5q0 95 -68 163t-162 68t-161.5 -68t-67.5 -163zM41 349q0 150 104.5 255.5t254.5 105.5 t255 -105.5t105 -255.5t-105 -254.5t-255 -104.5t-254.5 104.5t-104.5 254.5z"/>
<glyph glyph-name="Oacute" horiz-adv-x="800" unicode="Ó" d="M331 768q-18 -8 -25 7l-18 35q-6 12 6 19l164 98q8 5 14 5q7 0 12 -8l28 -52q4 -8 4 -12q0 -10 -10 -15zM171 349q0 -95 67.5 -162t161.5 -67q95 0 162.5 67.5t67.5 161.5q0 95 -68 163t-162 68t-161.5 -68t-67.5 -163zM41 349q0 150 104.5 255.5t254.5 105.5t255 -105.5 t105 -255.5t-105 -254.5t-255 -104.5t-254.5 104.5t-104.5 254.5z"/>
<glyph glyph-name="Ocircumflex" horiz-adv-x="800" unicode="Ô" d="M302 766q-14 -8 -23 3l-26 37q-7 10 6 19l130 101q6 4 10 4q3 0 11 -4l130 -101q13 -9 6 -19l-26 -37q-9 -11 -23 -3l-97 61zM171 349q0 -95 67.5 -162t161.5 -67q95 0 162.5 67.5t67.5 161.5q0 95 -68 163t-162 68t-161.5 -68t-67.5 -163zM41 349q0 150 104.5 255.5 t254.5 105.5t255 -105.5t105 -255.5t-105 -254.5t-255 -104.5t-254.5 104.5t-104.5 254.5z"/>
<glyph glyph-name="Otilde" horiz-adv-x="800" unicode="Õ" d="M281 789l-29 21q-12 9 -6 23q8 15 12.5 22t19 25.5t33 27.5t39.5 9q28 0 59 -27.5t48 -27.5q16 0 31 22.5t23 22.5q6 0 11 -4l28 -20q6 -6 6 -14q0 -9 -5 -17q-30 -52 -60 -67q-17 -9 -37 -9q-28 0 -61.5 28t-47.5 28q-17 0 -31 -23.5t-23 -23.5q-5 0 -10 4zM171 349 q0 -95 67.5 -162t161.5 -67q95 0 162.5 67.5t67.5 161.5q0 95 -68 163t-162 68t-161.5 -68t-67.5 -163zM41 349q0 150 104.5 255.5t254.5 105.5t255 -105.5t105 -255.5t-105 -254.5t-255 -104.5t-254.5 104.5t-104.5 254.5z"/>
<glyph glyph-name="Odieresis" horiz-adv-x="800" unicode="Ö" d="M276 775q-26 0 -44.5 19t-18.5 45t18.5 44.5t44.5 18.5t45 -18.5t19 -44.5t-19 -45t-45 -19zM523 775q-26 0 -44.5 19t-18.5 45t18.5 44.5t44.5 18.5t45 -18.5t19 -44.5t-19 -45t-45 -19zM171 349q0 -95 67.5 -162t161.5 -67q95 0 162.5 67.5t67.5 161.5q0 95 -68 163 t-162 68t-161.5 -68t-67.5 -163zM41 349q0 150 104.5 255.5t254.5 105.5t255 -105.5t105 -255.5t-105 -254.5t-255 -104.5t-254.5 104.5t-104.5 254.5z"/>
<glyph glyph-name="multiply" horiz-adv-x="464" unicode="×" d="M100 175l-40 40q-5 5 -5 13t5 13l106 106l-106 106q-5 5 -5 13q0 9 5 14l39 40q5 5 13 5q9 0 14 -5l106 -106l106 107q5 5 12 5q8 0 14 -6l40 -40q6 -6 6 -14q0 -7 -5 -12l-106 -107l106 -106q5 -7 5 -13q0 -8 -6 -14l-40 -39q-6 -6 -14 -6q-7 0 -12 5l-106 107 l-106 -106q-5 -5 -13 -5t-13 5z"/>
<glyph glyph-name="Oslash" horiz-adv-x="799" unicode="Ø" d="M257 170q63 -50 143 -50q94 0 162 68t68 162q0 81 -51 142zM221 207l323 322q-66 51 -144 51q-94 0 -161.5 -68t-67.5 -163q0 -79 50 -142zM63 23q-13 13 -1 26l65 64q-86 100 -86 236q0 150 104.5 255.5t254.5 105.5q133 0 236 -88l68 67q13 13 26 0l10 -10 q12 -12 0 -26l-68 -68q88 -103 88 -235q0 -150 -105 -255t-255 -105q-138 0 -236 87l-65 -65q-13 -12 -26 1z"/>
<glyph glyph-name="Ugrave" horiz-adv-x="721" unicode="Ù" d="M430 768l-175 77q-10 5 -10 15q0 4 4 12l28 52q4 7 13 7q5 0 13 -4l164 -98q12 -7 6 -19l-18 -35q-7 -15 -25 -7zM82 265v416q0 7 6 13t13 6h95q8 0 13.5 -5.5t5.5 -13.5v-409q0 -65 40.5 -108.5t104.5 -43.5t105 43.5t41 107.5v410q0 8 5.5 13.5t13.5 5.5h95 q8 0 13.5 -6t5.5 -13v-416q0 -115 -80.5 -195t-198.5 -80q-117 0 -197.5 80t-80.5 195z"/>
<glyph glyph-name="Uacute" horiz-adv-x="721" unicode="Ú" d="M292 768q-18 -8 -25 7l-18 35q-6 12 6 19l164 98q8 5 14 5q7 0 12 -8l28 -52q4 -8 4 -12q0 -10 -10 -15zM82 265v416q0 7 6 13t13 6h95q8 0 13.5 -5.5t5.5 -13.5v-409q0 -65 40.5 -108.5t104.5 -43.5t105 43.5t41 107.5v410q0 8 5.5 13.5t13.5 5.5h95q8 0 13.5 -6 t5.5 -13v-416q0 -115 -80.5 -195t-198.5 -80q-117 0 -197.5 80t-80.5 195z"/>
<glyph glyph-name="Ucircumflex" horiz-adv-x="721" unicode="Û" d="M263 766q-14 -8 -23 3l-26 37q-7 10 6 19l130 101q6 4 10 4q3 0 11 -4l130 -101q13 -9 6 -19l-26 -37q-9 -11 -23 -3l-97 61zM82 265v416q0 7 6 13t13 6h95q8 0 13.5 -5.5t5.5 -13.5v-409q0 -65 40.5 -108.5t104.5 -43.5t105 43.5t41 107.5v410q0 8 5.5 13.5t13.5 5.5h95 q8 0 13.5 -6t5.5 -13v-416q0 -115 -80.5 -195t-198.5 -80q-117 0 -197.5 80t-80.5 195z"/>
<glyph glyph-name="Udieresis" horiz-adv-x="721" unicode="Ü" d="M236 775q-26 0 -44.5 19t-18.5 45t18.5 44.5t44.5 18.5t45 -18.5t19 -44.5t-19 -45t-45 -19zM483 775q-26 0 -44.5 19t-18.5 45t18.5 44.5t44.5 18.5t45 -18.5t19 -44.5t-19 -45t-45 -19zM82 265v416q0 7 6 13t13 6h95q8 0 13.5 -5.5t5.5 -13.5v-409q0 -65 40.5 -108.5 t104.5 -43.5t105 43.5t41 107.5v410q0 8 5.5 13.5t13.5 5.5h95q8 0 13.5 -6t5.5 -13v-416q0 -115 -80.5 -195t-198.5 -80q-117 0 -197.5 80t-80.5 195z"/>
<glyph glyph-name="Yacute" horiz-adv-x="583" unicode="Ý" d="M221 768q-18 -8 -25 7l-18 35q-6 12 6 19l164 98q8 5 14 5q7 0 12 -8l28 -52q4 -8 4 -12q0 -10 -10 -15zM225 19v318l-228 334q-3 5 -3 11q0 18 19 18h102q9 0 16 -9l160 -230l160 230q7 9 16 9h103q19 0 19 -18q0 -6 -3 -11l-231 -333v-319q0 -7 -5.5 -13t-13.5 -6h-92 q-8 0 -13.5 5.5t-5.5 13.5z"/>
<glyph glyph-name="Thorn" horiz-adv-x="591" unicode="Þ" d="M221 249h116q42 0 72.5 30t30.5 74q0 41 -30.5 69t-72.5 28h-116v-201zM91 19v662q0 8 5.5 13.5t13.5 5.5h92q8 0 13.5 -6t5.5 -13v-108h124h2q91 0 156.5 -65.5t65.5 -155.5q0 -93 -65.5 -159t-157.5 -66h-125v-108q0 -7 -5.5 -13t-13.5 -6h-92q-8 0 -13.5 5.5 t-5.5 13.5z"/>
<glyph glyph-name="germandbls" horiz-adv-x="517" unicode="ß" d="M60 19v393q0 146 63.5 222t173.5 76q68 0 118 -40.5t50 -116.5q0 -39 -19.5 -78.5t-39.5 -72t-20 -52.5q0 -14 16 -35.5t35 -43t35 -56.5t16 -71q0 -77 -48.5 -115.5t-115.5 -38.5q-41 0 -44 20l-9 67q-1 7 4 13.5t13 5.5h6q28 0 48.5 13t20.5 38q0 26 -26 56.5t-52 63.5 t-26 65q0 34 40.5 107.5t40.5 108.5q0 24 -15.5 39t-39.5 15q-42 0 -72 -45.5t-30 -146.5v-391q0 -7 -5.5 -13t-13.5 -6h-85q-7 0 -13 6t-6 13z"/>
<glyph glyph-name="agrave" d="M297 528l-175 77q-16 8 -6 27l28 51q4 7 13 7q8 0 13 -4l164 -97q12 -6 6 -19l-18 -36q-6 -14 -25 -6zM141 127q0 -23 14.5 -37.5t37.5 -14.5q22 0 42.5 14t26.5 25v55q-27 12 -56 12t-47 -15t-18 -39zM31 127q0 55 43 90.5t117 35.5q18 0 36 -2.5t27 -5.5l10 -3 q1 38 -11.5 53.5t-40.5 15.5q-63 0 -112 -15q-2 -1 -6 -1q-14 0 -17 19l-9 52q0 1 -0.5 3t-0.5 3q0 13 15 19q6 2 24 6t50.5 8.5t61.5 4.5q89 0 121.5 -42.5t32.5 -131.5v-217q0 -7 -6 -13t-13 -6h-36q-11 0 -17 14l-12 27q-56 -51 -122 -51q-61 0 -98 37t-37 100z" unicode="à"/>
<glyph glyph-name="aacute" d="M156 528q-19 -7 -26 6l-17 36q-6 11 6 19l163 97q5 4 13 4q9 0 13 -7l29 -51q9 -20 -6 -27zM141 127q0 -23 14.5 -37.5t37.5 -14.5q22 0 42.5 14t26.5 25v55q-27 12 -56 12t-47 -15t-18 -39zM31 127q0 55 43 90.5t117 35.5q18 0 36 -2.5t27 -5.5l10 -3q1 38 -11.5 53.5 t-40.5 15.5q-63 0 -112 -15q-2 -1 -6 -1q-14 0 -17 19l-9 52q0 1 -0.5 3t-0.5 3q0 13 15 19q6 2 24 6t50.5 8.5t61.5 4.5q89 0 121.5 -42.5t32.5 -131.5v-217q0 -7 -6 -13t-13 -6h-36q-11 0 -17 14l-12 27q-56 -51 -122 -51q-61 0 -98 37t-37 100z" unicode="á"/>
<glyph glyph-name="acircumflex" d="M94 529l-26 37q-7 10 6 19l130 101q6 4 10 4q3 0 11 -4l130 -101q13 -9 6 -19l-26 -37q-9 -11 -23 -3l-97 61l-98 -61q-14 -8 -23 3zM141 127q0 -23 14.5 -37.5t37.5 -14.5q22 0 42.5 14t26.5 25v55q-27 12 -56 12t-47 -15t-18 -39zM31 127q0 55 43 90.5t117 35.5 q18 0 36 -2.5t27 -5.5l10 -3q1 38 -11.5 53.5t-40.5 15.5q-63 0 -112 -15q-2 -1 -6 -1q-14 0 -17 19l-9 52q0 1 -0.5 3t-0.5 3q0 13 15 19q6 2 24 6t50.5 8.5t61.5 4.5q89 0 121.5 -42.5t32.5 -131.5v-217q0 -7 -6 -13t-13 -6h-36q-11 0 -17 14l-12 27q-56 -51 -122 -51 q-61 0 -98 37t-37 100z" unicode="â"/>
<glyph glyph-name="atilde" d="M97 562l-29 21q-12 9 -6 23q8 15 12.5 22t19 25.5t33 27.5t39.5 9q28 0 59 -27.5t48 -27.5q16 0 31 22.5t23 22.5q6 0 11 -4l28 -20q6 -6 6 -14q0 -10 -5 -17q-30 -52 -60 -67q-17 -9 -37 -9q-28 0 -61.5 28t-47.5 28q-17 0 -31 -23.5t-23 -23.5q-5 0 -10 4zM141 127 q0 -23 14.5 -37.5t37.5 -14.5q22 0 42.5 14t26.5 25v55q-27 12 -56 12t-47 -15t-18 -39zM31 127q0 55 43 90.5t117 35.5q18 0 36 -2.5t27 -5.5l10 -3q1 38 -11.5 53.5t-40.5 15.5q-63 0 -112 -15q-2 -1 -6 -1q-14 0 -17 19l-9 52q0 1 -0.5 3t-0.5 3q0 13 15 19q6 2 24 6 t50.5 8.5t61.5 4.5q89 0 121.5 -42.5t32.5 -131.5v-217q0 -7 -6 -13t-13 -6h-36q-11 0 -17 14l-12 27q-56 -51 -122 -51q-61 0 -98 37t-37 100z" unicode="ã"/>
<glyph glyph-name="adieresis" d="M118 551q-26 0 -44.5 19t-18.5 45t18.5 44.5t44.5 18.5t45 -18.5t19 -44.5t-19 -45t-45 -19zM319 551q-26 0 -44.5 19t-18.5 45t18.5 44.5t44.5 18.5t45 -18.5t19 -44.5t-19 -45t-45 -19zM141 127q0 -23 14.5 -37.5t37.5 -14.5q22 0 42.5 14t26.5 25v55q-27 12 -56 12 t-47 -15t-18 -39zM31 127q0 55 43 90.5t117 35.5q18 0 36 -2.5t27 -5.5l10 -3q1 38 -11.5 53.5t-40.5 15.5q-63 0 -112 -15q-2 -1 -6 -1q-14 0 -17 19l-9 52q0 1 -0.5 3t-0.5 3q0 13 15 19q6 2 24 6t50.5 8.5t61.5 4.5q89 0 121.5 -42.5t32.5 -131.5v-217q0 -7 -6 -13 t-13 -6h-36q-11 0 -17 14l-12 27q-56 -51 -122 -51q-61 0 -98 37t-37 100z" unicode="ä"/>
<glyph glyph-name="aring" d="M220 547q19 0 33.5 15t14.5 35q0 19 -14 33.5t-34 14.5t-35 -14.5t-15 -33.5t15 -34.5t35 -15.5zM220 484q-47 0 -80 33t-33 80t33 80t80 33t80 -33t33 -80t-33 -80t-80 -33zM141 127q0 -23 14.5 -37.5t37.5 -14.5q22 0 42.5 14t26.5 25v55q-27 12 -56 12t-47 -15 t-18 -39zM31 127q0 55 43 90.5t117 35.5q18 0 36 -2.5t27 -5.5l10 -3q1 38 -11.5 53.5t-40.5 15.5q-63 0 -112 -15q-2 -1 -6 -1q-14 0 -17 19l-9 52q0 1 -0.5 3t-0.5 3q0 13 15 19q6 2 24 6t50.5 8.5t61.5 4.5q89 0 121.5 -42.5t32.5 -131.5v-217q0 -7 -6 -13t-13 -6h-36 q-11 0 -17 14l-12 27q-56 -51 -122 -51q-61 0 -98 37t-37 100z" unicode="å"/>
<glyph glyph-name="ae" horiz-adv-x="670" unicode="æ" d="M140 130q0 -24 16.5 -39t39.5 -15q20 0 36.5 10.5t23.5 21.5l6 10v52q-27 13 -62 13q-25 0 -42.5 -15t-17.5 -38zM379 251h150q-1 28 -22.5 47.5t-50.5 19.5q-30 0 -51.5 -19t-25.5 -48zM30 127q0 55 42 90.5t114 35.5q18 0 37 -2t29 -4l10 -2q-2 41 -12.5 57t-42.5 16 q-48 0 -109 -16q-19 -2 -23 16l-9 54q-2 16 16 20q74 18 136 18q89 0 121 -41q52 41 120 41q78 0 132.5 -52.5t54.5 -133.5q0 -44 -21 -44h-255q4 -34 30 -61t65 -27q41 0 79 26q17 11 26 0l40 -47q12 -16 -1 -26q-59 -55 -149 -55q-96 0 -150 65q-18 -23 -55.5 -44 t-86.5 -21q-62 0 -100 37t-38 100z"/>
<glyph glyph-name="ccedilla" horiz-adv-x="428" unicode="ç" d="M180 0q-65 19 -107.5 73.5t-42.5 126.5q0 87 64 148.5t149 61.5q89 0 148 -71q4 -5 4 -12q0 -10 -9 -16l-46 -44q-11 -9 -25 3q-28 32 -69 32q-40 0 -69 -30t-29 -72q0 -43 28 -72.5t69 -29.5q20 0 37 7t23 12t20 19q12 12 25 3l43 -37q11 -8 11 -18q0 -4 -4 -10 q-54 -83 -154 -84v-41q46 -6 71.5 -33.5t25.5 -69.5q0 -44 -31 -74.5t-75 -30.5q-46 0 -76 35q-5 7 -5 12q0 8 8 16l20 17q11 11 21 -1q11 -12 30 -12q15 0 25 11t10 26q0 43 -73 49q-17 2 -17 18v88z"/>
<glyph glyph-name="egrave" horiz-adv-x="445" unicode="è" d="M302 528l-175 77q-16 8 -6 27l28 51q4 7 13 7q8 0 13 -4l164 -97q12 -6 6 -19l-18 -36q-6 -14 -25 -6zM153 250h151q-2 28 -23.5 48t-49.5 20q-30 0 -52 -19.5t-26 -48.5zM30 200q0 86 58 148t146 62q78 0 132.5 -53t54.5 -133q0 -13 -2 -27q-2 -17 -19 -17h-256 q2 -34 28.5 -60.5t67.5 -26.5q43 0 78 25q17 10 26 0l41 -47q14 -14 -1 -26q-59 -55 -149 -55q-89 0 -147 61t-58 149z"/>
<glyph glyph-name="eacute" horiz-adv-x="445" unicode="é" d="M160 528q-19 -7 -26 6l-17 36q-6 11 6 19l163 97q5 4 13 4q9 0 13 -7l29 -51q9 -20 -6 -27zM153 250h151q-2 28 -23.5 48t-49.5 20q-30 0 -52 -19.5t-26 -48.5zM30 200q0 86 58 148t146 62q78 0 132.5 -53t54.5 -133q0 -13 -2 -27q-2 -17 -19 -17h-256q2 -34 28.5 -60.5 t67.5 -26.5q43 0 78 25q17 10 26 0l41 -47q14 -14 -1 -26q-59 -55 -149 -55q-89 0 -147 61t-58 149z"/>
<glyph glyph-name="ecircumflex" horiz-adv-x="445" unicode="ê" d="M111 529l-26 37q-7 10 6 19l130 101q6 4 10 4q3 0 11 -4l130 -101q13 -9 6 -19l-26 -37q-9 -11 -23 -3l-97 61l-98 -61q-14 -8 -23 3zM153 250h151q-2 28 -23.5 48t-49.5 20q-30 0 -52 -19.5t-26 -48.5zM30 200q0 86 58 148t146 62q78 0 132.5 -53t54.5 -133 q0 -13 -2 -27q-2 -17 -19 -17h-256q2 -34 28.5 -60.5t67.5 -26.5q43 0 78 25q17 10 26 0l41 -47q14 -14 -1 -26q-59 -55 -149 -55q-89 0 -147 61t-58 149z"/>
<glyph glyph-name="edieresis" horiz-adv-x="445" unicode="ë" d="M131 551q-26 0 -44.5 19t-18.5 45t18.5 44.5t44.5 18.5t45 -18.5t19 -44.5t-19 -45t-45 -19zM332 551q-26 0 -44.5 19t-18.5 45t18.5 44.5t44.5 18.5t45 -18.5t19 -44.5t-19 -45t-45 -19zM153 250h151q-2 28 -23.5 48t-49.5 20q-30 0 -52 -19.5t-26 -48.5zM30 200 q0 86 58 148t146 62q78 0 132.5 -53t54.5 -133q0 -13 -2 -27q-2 -17 -19 -17h-256q2 -34 28.5 -60.5t67.5 -26.5q43 0 78 25q17 10 26 0l41 -47q14 -14 -1 -26q-59 -55 -149 -55q-89 0 -147 61t-58 149z"/>
<glyph glyph-name="igrave" horiz-adv-x="241" unicode="ì" d="M60 19v362q0 8 5.5 13.5t13.5 5.5h83q8 0 13.5 -5.5t5.5 -13.5v-362q0 -7 -5.5 -13t-13.5 -6h-83q-7 0 -13 6t-6 13zM189 528l-175 77q-9 5 -9 15q0 6 3 12l28 51q4 7 13 7q8 0 13 -4l164 -97q8 -4 8 -12q0 -3 -2 -7l-18 -36q-4 -9 -13 -9q-5 0 -12 3z"/>
<glyph glyph-name="iacute" horiz-adv-x="241" unicode="í" d="M60 19v362q0 8 5.5 13.5t13.5 5.5h83q8 0 13.5 -5.5t5.5 -13.5v-362q0 -7 -5.5 -13t-13.5 -6h-83q-7 0 -13 6t-6 13zM48 528q-7 -3 -13 -3q-9 0 -13 9l-17 36q-2 4 -2 6q0 7 8 13l163 97q5 4 13 4q9 0 13 -7l29 -51q3 -6 3 -12q0 -10 -9 -15z"/>
<glyph glyph-name="icircumflex" horiz-adv-x="241" unicode="î" d="M-2 529l-26 37q-2 4 -2 6q0 7 8 13l130 101q6 4 10 4q3 0 11 -4l130 -101q8 -6 8 -13q0 -2 -2 -6l-26 -37q-9 -11 -23 -3l-97 61l-98 -61q-14 -8 -23 3zM60 19v362q0 8 5.5 13.5t13.5 5.5h83q8 0 13.5 -5.5t5.5 -13.5v-362q0 -7 -5.5 -13t-13.5 -6h-83q-7 0 -13 6t-6 13z "/>
<glyph glyph-name="idieresis" horiz-adv-x="241" unicode="ï" d="M60 19v362q0 8 5.5 13.5t13.5 5.5h83q8 0 13.5 -5.5t5.5 -13.5v-362q0 -7 -5.5 -13t-13.5 -6h-83q-7 0 -13 6t-6 13zM19 551q-26 0 -44.5 19t-18.5 45t18.5 44.5t44.5 18.5t45 -18.5t19 -44.5t-19 -45t-45 -19zM220 551q-26 0 -44.5 19t-18.5 45t18.5 44.5t44.5 18.5 t45 -18.5t19 -44.5t-19 -45t-45 -19z"/>
<glyph glyph-name="eth" horiz-adv-x="528" unicode="ð" d="M142 221q0 -48 33.5 -82.5t80.5 -34.5q56 0 86.5 45t30.5 102q-10 33 -40.5 60t-75.5 27q-48 0 -81.5 -34.5t-33.5 -82.5zM29 219q0 101 61.5 159t142.5 58q66 0 114 -28q-21 72 -105 132l-81 -47q-16 -9 -25 6l-7 13q-10 16 6 25l58 33q-32 18 -66 30q-20 6 -20 20 q0 3 2 9l23 59q4 15 19 15q6 0 9 -1q78 -31 137 -71l69 40q17 8 26 -8l7 -11q10 -17 -6 -26l-52 -30q152 -129 152 -330q0 -118 -62.5 -197t-175.5 -79q-92 0 -159 67.5t-67 161.5z"/>
<glyph glyph-name="ntilde" horiz-adv-x="519" unicode="ñ" d="M148 562l-29 21q-12 9 -6 23q8 15 12.5 22t19 25.5t33 27.5t39.5 9q28 0 59 -27.5t48 -27.5q16 0 31 22.5t23 22.5q6 0 11 -4l28 -20q7 -7 7 -14q0 -8 -6 -17q-30 -52 -60 -67q-17 -9 -37 -9q-28 0 -61.5 28t-47.5 28q-17 0 -31 -23.5t-23 -23.5q-5 0 -10 4zM60 19v362 q0 8 5.5 13.5t13.5 5.5h38q12 0 17 -12l14 -37q55 59 141 59q90 0 134 -57t44 -142v-192q0 -7 -5.5 -13t-13.5 -6h-82q-8 0 -13.5 5.5t-5.5 13.5v198q0 39 -19.5 62t-55.5 23t-60.5 -19.5t-33.5 -43.5v-220q0 -19 -25 -19h-74q-7 0 -13 6t-6 13z"/>
<glyph glyph-name="ograve" horiz-adv-x="468" unicode="ò" d="M306 528l-175 77q-16 8 -6 27l28 51q4 7 13 7q8 0 13 -4l164 -97q12 -6 6 -19l-18 -36q-6 -14 -25 -6zM138 201q0 -43 28 -73t68 -30t68 30t28 73q0 42 -28 71.5t-68 29.5t-68 -29.5t-28 -71.5zM29 201q0 85 60.5 147t144.5 62t144.5 -62t60.5 -147q0 -86 -60 -148.5 t-145 -62.5t-145 62.5t-60 148.5z"/>
<glyph glyph-name="oacute" horiz-adv-x="468" unicode="ó" d="M163 528q-19 -7 -26 6l-17 36q-6 11 6 19l163 97q5 4 13 4q9 0 13 -7l29 -51q9 -20 -6 -27zM138 201q0 -43 28 -73t68 -30t68 30t28 73q0 42 -28 71.5t-68 29.5t-68 -29.5t-28 -71.5zM29 201q0 85 60.5 147t144.5 62t144.5 -62t60.5 -147q0 -86 -60 -148.5t-145 -62.5 t-145 62.5t-60 148.5z"/>
<glyph glyph-name="ocircumflex" horiz-adv-x="468" unicode="ô" d="M112 529l-26 37q-7 10 6 19l130 101q6 4 10 4q3 0 11 -4l130 -101q13 -9 6 -19l-26 -37q-9 -11 -23 -3l-97 61l-98 -61q-14 -8 -23 3zM138 201q0 -43 28 -73t68 -30t68 30t28 73q0 42 -28 71.5t-68 29.5t-68 -29.5t-28 -71.5zM29 201q0 85 60.5 147t144.5 62t144.5 -62 t60.5 -147q0 -86 -60 -148.5t-145 -62.5t-145 62.5t-60 148.5z"/>
<glyph glyph-name="otilde" horiz-adv-x="468" unicode="õ" d="M113 562l-29 21q-12 9 -6 23q8 15 12.5 22t19 25.5t33 27.5t39.5 9q28 0 59 -27.5t48 -27.5q16 0 31 22.5t23 22.5q6 0 11 -4l28 -20q6 -6 6 -14q0 -10 -5 -17q-30 -52 -60 -67q-17 -9 -37 -9q-28 0 -61.5 28t-47.5 28q-17 0 -31 -23.5t-23 -23.5q-5 0 -10 4zM138 201 q0 -43 28 -73t68 -30t68 30t28 73q0 42 -28 71.5t-68 29.5t-68 -29.5t-28 -71.5zM29 201q0 85 60.5 147t144.5 62t144.5 -62t60.5 -147q0 -86 -60 -148.5t-145 -62.5t-145 62.5t-60 148.5z"/>
<glyph glyph-name="odieresis" horiz-adv-x="468" unicode="ö" d="M132 551q-26 0 -44.5 19t-18.5 45t18.5 44.5t44.5 18.5t45 -18.5t19 -44.5t-19 -45t-45 -19zM333 551q-26 0 -44.5 19t-18.5 45t18.5 44.5t44.5 18.5t45 -18.5t19 -44.5t-19 -45t-45 -19zM138 201q0 -43 28 -73t68 -30t68 30t28 73q0 42 -28 71.5t-68 29.5t-68 -29.5 t-28 -71.5zM29 201q0 85 60.5 147t144.5 62t144.5 -62t60.5 -147q0 -86 -60 -148.5t-145 -62.5t-145 62.5t-60 148.5z"/>
<glyph glyph-name="divide" horiz-adv-x="505" unicode="÷" d="M181 160q0 28 19.5 48t48.5 20t49 -20t20 -48t-20 -48.5t-49 -20.5q-28 0 -48 20t-20 49zM56 299q-8 0 -13.5 5.5t-5.5 13.5v56q0 8 5.5 13.5t13.5 5.5h394q7 0 12.5 -5.5t5.5 -13.5v-56q0 -8 -5.5 -13.5t-12.5 -5.5h-394zM250 471q-28 0 -48.5 20.5t-20.5 48.5 t20.5 48.5t48.5 20.5t48.5 -20.5t20.5 -48.5t-20.5 -48.5t-48.5 -20.5z"/>
<glyph glyph-name="oslash" horiz-adv-x="468" unicode="ø" d="M185 112q22 -14 50 -14q40 0 67.5 30.5t27.5 73.5q0 25 -11 47zM150 152l134 135q-21 15 -49 15q-40 0 -68 -29t-28 -71q0 -28 11 -50zM51 24q-13 14 -1 26l22 22q-42 57 -42 130q0 85 60.5 146.5t144.5 61.5q70 0 126 -46l26 26q12 14 26 0l10 -10q14 -12 0 -26l-26 -26 q42 -57 42 -126q0 -87 -60 -149.5t-144 -62.5q-71 0 -127 45l-21 -22q-5 -5 -13.5 -5t-13.5 6z"/>
<glyph glyph-name="ugrave" horiz-adv-x="503" unicode="ù" d="M324 528l-175 77q-16 8 -6 27l28 51q4 7 13 7q8 0 13 -4l164 -97q12 -6 6 -19l-18 -36q-6 -14 -25 -6zM53 187v194q0 8 5.5 13.5t13.5 5.5h82q8 0 13.5 -5.5t5.5 -13.5v-197q0 -40 19.5 -63t53.5 -23q30 0 52.5 23t27.5 52v208q0 11 5 15t17 4h76q8 0 13.5 -5.5 t5.5 -13.5v-362q0 -7 -5.5 -13t-13.5 -6h-37q-13 0 -19 15l-12 33q-1 -1 -7.5 -7t-10 -9t-12 -9t-15 -10t-17 -9t-21 -7.5t-24 -4.5t-27.5 -2q-87 0 -128 56t-41 141z"/>
<glyph glyph-name="uacute" horiz-adv-x="503" unicode="ú" d="M182 528q-19 -7 -26 6l-17 36q-6 11 6 19l163 97q5 4 13 4q9 0 13 -7l29 -51q9 -20 -6 -27zM53 187v194q0 8 5.5 13.5t13.5 5.5h82q8 0 13.5 -5.5t5.5 -13.5v-197q0 -40 19.5 -63t53.5 -23q30 0 52.5 23t27.5 52v208q0 11 5 15t17 4h76q8 0 13.5 -5.5t5.5 -13.5v-362 q0 -7 -5.5 -13t-13.5 -6h-37q-13 0 -19 15l-12 33q-1 -1 -7.5 -7t-10 -9t-12 -9t-15 -10t-17 -9t-21 -7.5t-24 -4.5t-27.5 -2q-87 0 -128 56t-41 141z"/>
<glyph glyph-name="ucircumflex" horiz-adv-x="503" unicode="û" d="M129 529l-26 37q-7 10 6 19l130 101q6 4 10 4q3 0 11 -4l130 -101q13 -9 6 -19l-26 -37q-9 -11 -23 -3l-97 61l-98 -61q-14 -8 -23 3zM53 187v194q0 8 5.5 13.5t13.5 5.5h82q8 0 13.5 -5.5t5.5 -13.5v-197q0 -40 19.5 -63t53.5 -23q30 0 52.5 23t27.5 52v208q0 11 5 15 t17 4h76q8 0 13.5 -5.5t5.5 -13.5v-362q0 -7 -5.5 -13t-13.5 -6h-37q-13 0 -19 15l-12 33q-1 -1 -7.5 -7t-10 -9t-12 -9t-15 -10t-17 -9t-21 -7.5t-24 -4.5t-27.5 -2q-87 0 -128 56t-41 141z"/>
<glyph glyph-name="udieresis" horiz-adv-x="503" unicode="ü" d="M156 551q-26 0 -44.5 19t-18.5 45t18.5 44.5t44.5 18.5t45 -18.5t19 -44.5t-19 -45t-45 -19zM357 551q-26 0 -44.5 19t-18.5 45t18.5 44.5t44.5 18.5t45 -18.5t19 -44.5t-19 -45t-45 -19zM53 187v194q0 8 5.5 13.5t13.5 5.5h82q8 0 13.5 -5.5t5.5 -13.5v-197 q0 -40 19.5 -63t53.5 -23q30 0 52.5 23t27.5 52v208q0 11 5 15t17 4h76q8 0 13.5 -5.5t5.5 -13.5v-362q0 -7 -5.5 -13t-13.5 -6h-37q-13 0 -19 15l-12 33q-1 -1 -7.5 -7t-10 -9t-12 -9t-15 -10t-17 -9t-21 -7.5t-24 -4.5t-27.5 -2q-87 0 -128 56t-41 141z"/>
<glyph glyph-name="yacute" horiz-adv-x="463" unicode="ý" d="M164 528q-19 -7 -26 6l-17 36q-6 11 6 19l163 97q5 4 13 4q9 0 13 -7l29 -51q9 -20 -6 -27zM171 28l-163 346q-2 6 -2 9q0 17 19 17h90q11 0 17 -11l101 -226h1l100 226q6 11 24 11h80q9 0 14.5 -5t5.5 -12q0 -5 -3 -9l-306 -662q-6 -12 -17 -12h-86q-19 0 -19 17 q0 7 2 10z"/>
<glyph glyph-name="thorn" horiz-adv-x="500" unicode="þ" d="M183 126q23 -27 74 -27q42 0 69.5 29t27.5 72q0 42 -26.5 72t-68.5 30q-31 0 -51.5 -13t-24.5 -25v-138zM183 12v-294q0 -8 -5.5 -13.5t-13.5 -5.5h-85q-7 0 -13 5.5t-6 13.5v963q0 7 6 13t13 6h85q8 0 13.5 -6t5.5 -13v-300q45 28 94 28q82 0 137.5 -61.5t55.5 -147.5 q0 -89 -59 -149.5t-144 -60.5q-40 0 -84 22z"/>
<glyph glyph-name="ydieresis" horiz-adv-x="463" unicode="ÿ" d="M132 551q-26 0 -44.5 19t-18.5 45t18.5 44.5t44.5 18.5t45 -18.5t19 -44.5t-19 -45t-45 -19zM333 551q-26 0 -44.5 19t-18.5 45t18.5 44.5t44.5 18.5t45 -18.5t19 -44.5t-19 -45t-45 -19zM171 28l-163 346q-2 6 -2 9q0 17 19 17h90q11 0 17 -11l101 -226h1l100 226 q6 11 24 11h80q9 0 14.5 -5t5.5 -12q0 -5 -3 -9l-306 -662q-6 -12 -17 -12h-86q-19 0 -19 17q0 7 2 10z"/>
<glyph glyph-name="Amacron" horiz-adv-x="663" unicode="Ā" d="M203 808q-8 0 -13.5 5t-5.5 13v34q0 19 19 19h256q19 0 19 -19v-34q0 -8 -5.5 -13t-13.5 -5h-256zM231 239h201l-100 220h-3zM17 0q-19 0 -19 17q0 3 2 9l311 673q5 11 17 11h10q12 0 17 -11l308 -673q2 -6 2 -9q0 -17 -19 -17h-87q-19 0 -29 20l-49 108h-299l-49 -108 q-8 -20 -29 -20h-87z"/>
<glyph glyph-name="amacron" d="M89 570q-8 0 -13.5 5t-5.5 13v34q0 19 19 19h256q19 0 19 -19v-34q0 -8 -5.5 -13t-13.5 -5h-256zM141 127q0 -23 14.5 -37.5t37.5 -14.5q22 0 42.5 14t26.5 25v55q-27 12 -56 12t-47 -15t-18 -39zM31 127q0 55 43 90.5t117 35.5q18 0 36 -2.5t27 -5.5l10 -3 q1 38 -11.5 53.5t-40.5 15.5q-63 0 -112 -15q-2 -1 -6 -1q-14 0 -17 19l-9 52q0 1 -0.5 3t-0.5 3q0 13 15 19q6 2 24 6t50.5 8.5t61.5 4.5q89 0 121.5 -42.5t32.5 -131.5v-217q0 -7 -6 -13t-13 -6h-36q-11 0 -17 14l-12 27q-56 -51 -122 -51q-61 0 -98 37t-37 100z" unicode="ā"/>
<glyph glyph-name="Abreve" horiz-adv-x="663" unicode="Ă" d="M332 766q-53 0 -96.5 35.5t-43.5 86.5q0 17 18 17h37q13 0 17 -14q8 -23 26 -38t42 -15q21 0 39.5 15.5t26.5 37.5q3 14 17 14h39q18 0 18 -19q0 -50 -44.5 -85t-95.5 -35zM231 239h201l-100 220h-3zM17 0q-19 0 -19 17q0 3 2 9l311 673q5 11 17 11h10q12 0 17 -11 l308 -673q2 -6 2 -9q0 -17 -19 -17h-87q-19 0 -29 20l-49 108h-299l-49 -108q-8 -20 -29 -20h-87z"/>
<glyph glyph-name="abreve" d="M224 528q-53 0 -96.5 35.5t-43.5 86.5q0 18 18 18h37q13 0 17 -14q8 -24 26 -38.5t42 -14.5q22 0 40 15.5t26 37.5q4 14 17 14h39q18 0 18 -20q0 -50 -44.5 -85t-95.5 -35zM141 127q0 -23 14.5 -37.5t37.5 -14.5q22 0 42.5 14t26.5 25v55q-27 12 -56 12t-47 -15t-18 -39z M31 127q0 55 43 90.5t117 35.5q18 0 36 -2.5t27 -5.5l10 -3q1 38 -11.5 53.5t-40.5 15.5q-63 0 -112 -15q-2 -1 -6 -1q-14 0 -17 19l-9 52q0 1 -0.5 3t-0.5 3q0 13 15 19q6 2 24 6t50.5 8.5t61.5 4.5q89 0 121.5 -42.5t32.5 -131.5v-217q0 -7 -6 -13t-13 -6h-36 q-11 0 -17 14l-12 27q-56 -51 -122 -51q-61 0 -98 37t-37 100z" unicode="ă"/>
<glyph glyph-name="Aogonek" horiz-adv-x="663" unicode="Ą" d="M231 239h201l-100 220h-3zM17 0q-19 0 -19 17q0 3 2 9l311 673q5 11 17 11h10q12 0 17 -11l308 -673q2 -6 2 -9q0 -17 -19 -17h-61q-45 -45 -45 -96q0 -27 17.5 -45.5t48.5 -18.5q10 0 46 9q8 2 14 -3t6 -14v-30q0 -13 -14 -19q-40 -10 -66 -10q-55 0 -91 28t-36 82 q0 76 68 129l-52 116h-299l-49 -108q-8 -20 -29 -20h-87z"/>
<glyph glyph-name="aogonek" d="M140 127q0 -23 14.5 -38.5t37.5 -15.5q22 0 43 15t26 29v52q-27 12 -56 12t-47 -15t-18 -39zM30 127q0 55 43 90.5t117 35.5q18 0 36 -2.5t28 -5.5l9 -3v5q0 37 -13 54.5t-45 17.5t-106 -16q-1 0 -3 -0.5t-3 -0.5q-14 0 -17 19l-9 45q0 1 -0.5 3t-0.5 3q0 13 15 19 q6 2 24 6t50.5 8.5t61.5 4.5q89 0 121.5 -42.5t32.5 -131.5v-217q0 -7 -5.5 -13t-13.5 -6h-4q-45 -45 -45 -96q0 -27 17.5 -45.5t48.5 -18.5q10 0 46 9q8 2 14 -3t6 -14v-30q0 -13 -14 -19q-40 -10 -66 -10q-55 0 -91 28t-36 82q0 35 18 67.5t32.5 46t20.5 16.5l-12 28 q-56 -51 -122 -51q-61 0 -98 37t-37 100z" unicode="ą"/>
<glyph glyph-name="Cacute" horiz-adv-x="684" unicode="Ć" d="M335 768q-18 -8 -25 7l-18 35q-6 12 6 19l164 98q8 5 14 5q7 0 12 -8l28 -52q4 -8 4 -12q0 -10 -10 -15zM40 349q0 150 105.5 255.5t255.5 105.5q138 0 242 -93q7 -6 7 -14t-6 -14l-61 -63q-12 -13 -25 0q-67 59 -154 59q-95 0 -159 -68.5t-64 -164.5q0 -95 64.5 -163 t159.5 -68q83 0 153 57q13 12 25 0l62 -64q5 -4 5 -12q0 -9 -6 -15q-100 -97 -243 -97q-150 0 -255.5 104.5t-105.5 254.5z"/>
<glyph glyph-name="cacute" d="M171 528q-19 -7 -26 6l-17 36q-6 11 6 19l163 97q5 4 13 4q9 0 13 -7l29 -51q9 -20 -6 -27zM29 200q0 87 64 148.5t149 61.5q89 0 148 -71q4 -5 4 -12q0 -10 -9 -16l-46 -44q-11 -9 -25 3q-28 32 -69 32q-40 0 -69 -30t-29 -72q0 -43 28 -72.5t69 -29.5q20 0 37 7t23 12 t20 19q12 12 25 3l43 -37q11 -8 11 -18q0 -4 -4 -10q-54 -84 -158 -84q-86 0 -149 60.5t-63 149.5z" unicode="ć"/>
<glyph glyph-name="Ccircumflex" horiz-adv-x="684" unicode="Ĉ" d="M303 766q-14 -8 -23 3l-26 37q-7 10 6 19l130 101q6 4 10 4q3 0 11 -4l130 -101q13 -9 6 -19l-26 -37q-9 -11 -23 -3l-97 61zM40 349q0 150 105.5 255.5t255.5 105.5q138 0 242 -93q7 -6 7 -14t-6 -14l-61 -63q-12 -13 -25 0q-67 59 -154 59q-95 0 -159 -68.5t-64 -164.5 q0 -95 64.5 -163t159.5 -68q83 0 153 57q13 12 25 0l62 -64q5 -4 5 -12q0 -9 -6 -15q-100 -97 -243 -97q-150 0 -255.5 104.5t-105.5 254.5z"/>
<glyph glyph-name="ccircumflex" d="M121 529l-26 37q-7 10 6 19l130 101q6 4 10 4q3 0 11 -4l130 -101q13 -9 6 -19l-26 -37q-9 -11 -23 -3l-97 61l-98 -61q-14 -8 -23 3zM29 200q0 87 64 148.5t149 61.5q89 0 148 -71q4 -5 4 -12q0 -10 -9 -16l-46 -44q-11 -9 -25 3q-28 32 -69 32q-40 0 -69 -30t-29 -72 q0 -43 28 -72.5t69 -29.5q20 0 37 7t23 12t20 19q12 12 25 3l43 -37q11 -8 11 -18q0 -4 -4 -10q-54 -84 -158 -84q-86 0 -149 60.5t-63 149.5z" unicode="ĉ"/>
<glyph glyph-name="Cdotaccent" horiz-adv-x="684" unicode="Ċ" d="M402 781q-30 0 -51 21t-21 51t21 51t51 21t51 -21t21 -51t-21 -51t-51 -21zM40 349q0 150 105.5 255.5t255.5 105.5q138 0 242 -93q7 -6 7 -14t-6 -14l-61 -63q-12 -13 -25 0q-67 59 -154 59q-95 0 -159 -68.5t-64 -164.5q0 -95 64.5 -163t159.5 -68q83 0 153 57 q13 12 25 0l62 -64q5 -4 5 -12q0 -9 -6 -15q-100 -97 -243 -97q-150 0 -255.5 104.5t-105.5 254.5z"/>
<glyph glyph-name="cdotaccent" d="M242 536q-30 0 -51 21t-21 51t21 51t51 21t51 -21t21 -51t-21 -51t-51 -21zM29 200q0 87 64 148.5t149 61.5q89 0 148 -71q4 -5 4 -12q0 -10 -9 -16l-46 -44q-11 -9 -25 3q-28 32 -69 32q-40 0 -69 -30t-29 -72q0 -43 28 -72.5t69 -29.5q20 0 37 7t23 12t20 19 q12 12 25 3l43 -37q11 -8 11 -18q0 -4 -4 -10q-54 -84 -158 -84q-86 0 -149 60.5t-63 149.5z" unicode="ċ"/>
<glyph glyph-name="Ccaron" horiz-adv-x="684" unicode="Č" d="M390 764l-130 101q-13 9 -6 19l26 37q4 7 11 7q5 0 12 -4l97 -61l98 61q7 4 12 4q7 0 11 -7l26 -37q7 -10 -6 -19l-130 -101q-10 -8 -21 0zM40 349q0 150 105.5 255.5t255.5 105.5q138 0 242 -93q7 -6 7 -14t-6 -14l-61 -63q-12 -13 -25 0q-67 59 -154 59 q-95 0 -159 -68.5t-64 -164.5q0 -95 64.5 -163t159.5 -68q83 0 153 57q13 12 25 0l62 -64q5 -4 5 -12q0 -9 -6 -15q-100 -97 -243 -97q-150 0 -255.5 104.5t-105.5 254.5z"/>
<glyph glyph-name="ccaron" d="M231 524l-130 101q-13 9 -6 19l26 37q4 7 11 7q5 0 12 -4l97 -61l98 61q7 4 12 4q7 0 11 -7l26 -37q7 -10 -6 -19l-130 -101q-10 -8 -21 0zM29 200q0 87 64 148.5t149 61.5q89 0 148 -71q4 -5 4 -12q0 -10 -9 -16l-46 -44q-11 -9 -25 3q-28 32 -69 32q-40 0 -69 -30 t-29 -72q0 -43 28 -72.5t69 -29.5q20 0 37 7t23 12t20 19q12 12 25 3l43 -37q11 -8 11 -18q0 -4 -4 -10q-54 -84 -158 -84q-86 0 -149 60.5t-63 149.5z" unicode="č"/>
<glyph glyph-name="Dcaron" horiz-adv-x="738" unicode="Ď" d="M339 764l-130 101q-13 9 -6 19l26 37q4 7 11 7q5 0 12 -4l97 -61l98 61q7 4 12 4q7 0 11 -7l26 -37q7 -10 -6 -19l-130 -101q-10 -8 -21 0zM220 122h114q97 0 161 65.5t64 163.5t-64 163t-161 65h-114v-457zM91 19v662q0 8 5.5 13.5t12.5 5.5h237q145 0 248 -102.5 t103 -246.5q0 -145 -103 -248t-248 -103h-237q-7 0 -12.5 5.5t-5.5 13.5z"/>
<glyph glyph-name="dcaron" horiz-adv-x="530" unicode="ď" d="M576 423l-14 14q-11 11 2 23q10 7 22.5 19t29 42t16.5 61h-2q-2 -1 -4.5 -1.5t-6 -1.5t-8.5 -1.5t-9 -0.5q-28 0 -47.5 19t-19.5 47t20.5 47.5t50.5 19.5q33 0 58 -25.5t25 -81.5q0 -101 -90 -181q-13 -9 -23 1zM146 200q0 -43 26 -72.5t65 -29.5q35 0 56 20.5t28 44.5 v116q-28 23 -78 23q-42 0 -69.5 -29.5t-27.5 -72.5zM30 200q0 89 55 149.5t143 60.5q43 0 89 -18v289q0 7 5.5 13t13.5 6h85q7 0 13 -6t6 -13v-662q0 -7 -6 -13t-13 -6h-39q-14 0 -19 19l-10 31q-5 -7 -15.5 -17t-44.5 -26.5t-71 -16.5q-81 0 -136.5 61.5t-55.5 148.5z"/>
<glyph glyph-name="Dcroat" horiz-adv-x="743" unicode="Đ" d="M225 122h114q97 0 161 65.5t64 163.5t-64 163t-161 65h-114v-207h165q8 0 13.5 -5.5t5.5 -13.5v-14q0 -8 -5.5 -13t-13.5 -5h-165v-199zM96 19v302h-29q-7 0 -12.5 5.5t-5.5 13.5v13q0 8 5.5 13.5t12.5 5.5h29v309q0 8 5.5 13.5t12.5 5.5h237q145 0 248 -102.5 t103 -246.5q0 -145 -103 -248t-248 -103h-237q-7 0 -12.5 5.5t-5.5 13.5z"/>
<glyph glyph-name="dcroat" horiz-adv-x="500" unicode="đ" d="M146 200q0 -43 26 -72.5t65 -29.5q35 0 56 20.5t28 44.5v114q-28 23 -78 23q-42 0 -69.5 -29t-27.5 -71zM30 200q0 89 55 149.5t143 60.5q43 0 89 -18v141h-115q-8 0 -13.5 5t-5.5 13v14q0 8 5.5 13.5t13.5 5.5h115v97q0 7 5.5 13t13.5 6h85q7 0 13 -6t6 -13v-97h33 q7 0 12.5 -5.5t5.5 -13.5v-13q0 -8 -5.5 -13.5t-12.5 -5.5h-33v-514q0 -7 -6 -13t-13 -6h-39q-14 0 -19 19l-10 31q-5 -7 -15.5 -17t-44.5 -26.5t-71 -16.5q-81 0 -136.5 61.5t-55.5 148.5z"/>
<glyph glyph-name="Emacron" horiz-adv-x="588" unicode="Ē" d="M189 808q-8 0 -13.5 5t-5.5 13v34q0 19 19 19h256q19 0 19 -19v-34q0 -8 -5.5 -13t-13.5 -5h-256zM91 19v662q0 8 5.5 13.5t13.5 5.5h407q8 0 13.5 -5.5t5.5 -13.5v-82q0 -8 -5.5 -13.5t-13.5 -5.5h-296v-164h247q8 0 13.5 -6t5.5 -13v-83q0 -8 -5.5 -13.5t-13.5 -5.5 h-247v-175h296q8 0 13.5 -5.5t5.5 -13.5v-82q0 -8 -5.5 -13.5t-13.5 -5.5h-407q-8 0 -13.5 5.5t-5.5 13.5z"/>
<glyph glyph-name="emacron" horiz-adv-x="445" unicode="ē" d="M103 570q-8 0 -13.5 5t-5.5 13v34q0 19 19 19h256q19 0 19 -19v-34q0 -8 -5.5 -13t-13.5 -5h-256zM153 250h151q-2 28 -23.5 48t-49.5 20q-30 0 -52 -19.5t-26 -48.5zM30 200q0 86 58 148t146 62q78 0 132.5 -53t54.5 -133q0 -13 -2 -27q-2 -17 -19 -17h-256 q2 -34 28.5 -60.5t67.5 -26.5q43 0 78 25q17 10 26 0l41 -47q14 -14 -1 -26q-59 -55 -149 -55q-89 0 -147 61t-58 149z"/>
<glyph glyph-name="Ebreve" horiz-adv-x="588" unicode="Ĕ" d="M322 766q-53 0 -96.5 35.5t-43.5 86.5q0 17 18 17h37q13 0 17 -14q8 -23 26 -38t42 -15q21 0 39.5 15.5t26.5 37.5q3 14 17 14h39q18 0 18 -19q0 -50 -44.5 -85t-95.5 -35zM91 19v662q0 8 5.5 13.5t13.5 5.5h407q8 0 13.5 -5.5t5.5 -13.5v-82q0 -8 -5.5 -13.5t-13.5 -5.5 h-296v-164h247q8 0 13.5 -6t5.5 -13v-83q0 -8 -5.5 -13.5t-13.5 -5.5h-247v-175h296q8 0 13.5 -5.5t5.5 -13.5v-82q0 -8 -5.5 -13.5t-13.5 -5.5h-407q-8 0 -13.5 5.5t-5.5 13.5z"/>
<glyph glyph-name="ebreve" horiz-adv-x="445" unicode="ĕ" d="M232 528q-53 0 -96.5 35.5t-43.5 86.5q0 18 18 18h37q13 0 17 -14q8 -24 26 -38.5t42 -14.5q22 0 40 15.5t26 37.5q4 14 17 14h39q18 0 18 -20q0 -50 -44.5 -85t-95.5 -35zM153 250h151q-2 28 -23.5 48t-49.5 20q-30 0 -52 -19.5t-26 -48.5zM30 200q0 86 58 148t146 62 q78 0 132.5 -53t54.5 -133q0 -13 -2 -27q-2 -17 -19 -17h-256q2 -34 28.5 -60.5t67.5 -26.5q43 0 78 25q17 10 26 0l41 -47q14 -14 -1 -26q-59 -55 -149 -55q-89 0 -147 61t-58 149z"/>
<glyph glyph-name="Edotaccent" horiz-adv-x="588" unicode="Ė" d="M322 781q-30 0 -51 21t-21 51t21 51t51 21t51 -21t21 -51t-21 -51t-51 -21zM91 19v662q0 8 5.5 13.5t13.5 5.5h407q8 0 13.5 -5.5t5.5 -13.5v-82q0 -8 -5.5 -13.5t-13.5 -5.5h-296v-164h247q8 0 13.5 -6t5.5 -13v-83q0 -8 -5.5 -13.5t-13.5 -5.5h-247v-175h296 q8 0 13.5 -5.5t5.5 -13.5v-82q0 -8 -5.5 -13.5t-13.5 -5.5h-407q-8 0 -13.5 5.5t-5.5 13.5z"/>
<glyph glyph-name="edotaccent" horiz-adv-x="445" unicode="ė" d="M232 536q-30 0 -51 21t-21 51t21 51t51 21t51 -21t21 -51t-21 -51t-51 -21zM153 250h151q-2 28 -23.5 48t-49.5 20q-30 0 -52 -19.5t-26 -48.5zM30 200q0 86 58 148t146 62q78 0 132.5 -53t54.5 -133q0 -13 -2 -27q-2 -17 -19 -17h-256q2 -34 28.5 -60.5t67.5 -26.5 q43 0 78 25q17 10 26 0l41 -47q14 -14 -1 -26q-59 -55 -149 -55q-89 0 -147 61t-58 149z"/>
<glyph glyph-name="Eogonek" horiz-adv-x="588" unicode="Ę" d="M91 19v662q0 8 5.5 13.5t13.5 5.5h407q8 0 13.5 -5.5t5.5 -13.5v-82q0 -8 -5.5 -13.5t-13.5 -5.5h-296v-164h247q8 0 13.5 -6t5.5 -13v-83q0 -8 -5.5 -13.5t-13.5 -5.5h-247v-175h296q8 0 13.5 -5.5t5.5 -13.5v-69q0 -20 -16 -32q-46 -46 -46 -96q0 -27 17.5 -45.5 t48.5 -18.5q10 0 46 9q8 2 14 -3t6 -14v-30q0 -13 -14 -19q-40 -10 -66 -10q-55 0 -91 28t-36 82q0 67 55 117h-344q-8 0 -13.5 5.5t-5.5 13.5z"/>
<glyph glyph-name="eogonek" horiz-adv-x="446" unicode="ę" d="M153 250h151q-2 28 -23.5 48t-49.5 20q-30 0 -52 -19.5t-26 -48.5zM153 -117q0 60 48 110q-76 12 -123.5 70t-47.5 137q0 86 58 148t146 62q78 0 132.5 -53t54.5 -133q0 -13 -2 -27q-2 -17 -19 -17h-256q2 -34 28.5 -61t67.5 -27q42 0 78 26q19 11 26 0q8 -8 20.5 -23 t20.5 -24q14 -14 -1 -26q-46 -43 -118 -53q-38 -42 -38 -88q0 -27 17.5 -45.5t48.5 -18.5q10 0 46 9q8 2 14 -3t6 -14v-30q0 -13 -14 -19q-40 -10 -66 -10q-55 0 -91 28t-36 82z"/>
<glyph glyph-name="Ecaron" horiz-adv-x="588" unicode="Ě" d="M305 764l-130 101q-13 9 -6 19l26 37q4 7 11 7q5 0 12 -4l97 -61l98 61q7 4 12 4q7 0 11 -7l26 -37q7 -10 -6 -19l-130 -101q-10 -8 -21 0zM91 19v662q0 8 5.5 13.5t13.5 5.5h407q8 0 13.5 -5.5t5.5 -13.5v-82q0 -8 -5.5 -13.5t-13.5 -5.5h-296v-164h247q8 0 13.5 -6 t5.5 -13v-83q0 -8 -5.5 -13.5t-13.5 -5.5h-247v-175h296q8 0 13.5 -5.5t5.5 -13.5v-82q0 -8 -5.5 -13.5t-13.5 -5.5h-407q-8 0 -13.5 5.5t-5.5 13.5z"/>
<glyph glyph-name="ecaron" horiz-adv-x="445" unicode="ě" d="M221 524l-130 101q-13 9 -6 19l26 37q4 7 11 7q5 0 12 -4l97 -61l98 61q7 4 12 4q7 0 11 -7l26 -37q7 -10 -6 -19l-130 -101q-10 -8 -21 0zM153 250h151q-2 28 -23.5 48t-49.5 20q-30 0 -52 -19.5t-26 -48.5zM30 200q0 86 58 148t146 62q78 0 132.5 -53t54.5 -133 q0 -13 -2 -27q-2 -17 -19 -17h-256q2 -34 28.5 -60.5t67.5 -26.5q43 0 78 25q17 10 26 0l41 -47q14 -14 -1 -26q-59 -55 -149 -55q-89 0 -147 61t-58 149z"/>
<glyph glyph-name="Gcircumflex" horiz-adv-x="712" unicode="Ĝ" d="M301 766q-14 -8 -23 3l-26 37q-7 10 6 19l130 101q6 4 10 4q3 0 11 -4l130 -101q13 -9 6 -19l-26 -37q-9 -11 -23 -3l-97 61zM41 349q0 150 105 255.5t254 105.5q135 0 244 -93q7 -7 7 -15q0 -7 -6 -13l-62 -65q-12 -12 -26 0q-66 58 -151 58q-93 0 -158.5 -68.5 t-65.5 -163.5q0 -94 65.5 -161.5t159.5 -67.5q57 0 119 25v85h-80q-8 0 -13.5 5t-5.5 13v79q0 19 19 19h192q7 0 12.5 -5.5t5.5 -13.5v-256q0 -10 -8 -16q-12 -7 -33 -18t-86 -29t-129 -18q-150 0 -254.5 104t-104.5 254z"/>
<glyph glyph-name="gcircumflex" horiz-adv-x="462" unicode="ĝ" d="M129 529l-26 37q-7 10 6 19l130 101q6 4 10 4q3 0 11 -4l130 -101q13 -9 6 -19l-26 -37q-9 -11 -23 -3l-97 61l-98 -61q-14 -8 -23 3zM148 -151q0 -26 24 -42.5t64 -16.5q42 0 67.5 17.5t25.5 45.5q0 18 -17 33.5t-56 15.5q-37 0 -65 -4q-43 -14 -43 -49zM170 231 q0 -31 20 -51.5t50 -20.5q31 0 50 20t19 52t-19 52t-50 20q-30 0 -50 -20.5t-20 -51.5zM18 30q0 22 7.5 41.5t19 32t22.5 21.5t19 13l7 4q-30 34 -30 94q0 71 50.5 122.5t123.5 51.5h182q19 0 19 -19v-33q0 -14 -11 -17l-56 -18q4 -3 11 -10.5t18 -33.5t11 -58 q0 -62 -47.5 -109.5t-123.5 -47.5q-22 0 -48.5 4t-31.5 4q-12 0 -24.5 -10.5t-12.5 -27.5q0 -15 11.5 -24.5t28.5 -9.5h128q71 0 118 -38t47 -102q0 -73 -57.5 -121.5t-161.5 -48.5q-102 0 -153 41t-51 96q0 59 60 95v3q-13 4 -27.5 13t-31 34t-16.5 58z"/>
<glyph glyph-name="Gbreve" horiz-adv-x="712" unicode="Ğ" d="M401 766q-53 0 -96.5 35.5t-43.5 86.5q0 17 18 17h37q13 0 17 -14q8 -23 26 -38t42 -15q21 0 39.5 15.5t26.5 37.5q3 14 17 14h39q18 0 18 -19q0 -50 -44.5 -85t-95.5 -35zM41 349q0 150 105 255.5t254 105.5q135 0 244 -93q7 -7 7 -15q0 -7 -6 -13l-62 -65 q-12 -12 -26 0q-66 58 -151 58q-93 0 -158.5 -68.5t-65.5 -163.5q0 -94 65.5 -161.5t159.5 -67.5q57 0 119 25v85h-80q-8 0 -13.5 5t-5.5 13v79q0 19 19 19h192q7 0 12.5 -5.5t5.5 -13.5v-256q0 -10 -8 -16q-12 -7 -33 -18t-86 -29t-129 -18q-150 0 -254.5 104t-104.5 254z "/>
<glyph glyph-name="gbreve" horiz-adv-x="462" unicode="ğ" d="M249 528q-53 0 -96.5 35.5t-43.5 86.5q0 18 18 18h37q13 0 17 -14q8 -24 26 -38.5t42 -14.5q22 0 40 15.5t26 37.5q3 14 17 14h39q18 0 18 -20q0 -50 -44.5 -85t-95.5 -35zM148 -151q0 -26 24 -42.5t64 -16.5q42 0 67.5 17.5t25.5 45.5q0 18 -17 33.5t-56 15.5 q-37 0 -65 -4q-43 -14 -43 -49zM170 231q0 -31 20 -51.5t50 -20.5q31 0 50 20t19 52t-19 52t-50 20q-30 0 -50 -20.5t-20 -51.5zM18 30q0 22 7.5 41.5t19 32t22.5 21.5t19 13l7 4q-30 34 -30 94q0 71 50.5 122.5t123.5 51.5h182q19 0 19 -19v-33q0 -14 -11 -17l-56 -18 q4 -3 11 -10.5t18 -33.5t11 -58q0 -62 -47.5 -109.5t-123.5 -47.5q-22 0 -48.5 4t-31.5 4q-12 0 -24.5 -10.5t-12.5 -27.5q0 -15 11.5 -24.5t28.5 -9.5h128q71 0 118 -38t47 -102q0 -73 -57.5 -121.5t-161.5 -48.5q-102 0 -153 41t-51 96q0 59 60 95v3q-13 4 -27.5 13 t-31 34t-16.5 58z"/>
<glyph glyph-name="Gdotaccent" horiz-adv-x="712" unicode="Ġ" d="M401 781q-30 0 -51 21t-21 51t21 51t51 21t51 -21t21 -51t-21 -51t-51 -21zM41 349q0 150 105 255.5t254 105.5q135 0 244 -93q7 -7 7 -15q0 -7 -6 -13l-62 -65q-12 -12 -26 0q-66 58 -151 58q-93 0 -158.5 -68.5t-65.5 -163.5q0 -94 65.5 -161.5t159.5 -67.5 q57 0 119 25v85h-80q-8 0 -13.5 5t-5.5 13v79q0 19 19 19h192q7 0 12.5 -5.5t5.5 -13.5v-256q0 -10 -8 -16q-12 -7 -33 -18t-86 -29t-129 -18q-150 0 -254.5 104t-104.5 254z"/>
<glyph glyph-name="gdotaccent" horiz-adv-x="462" unicode="ġ" d="M247 536q-30 0 -51 21t-21 51t21 51t51 21t51 -21t21 -51t-21 -51t-51 -21zM148 -151q0 -26 24 -42.5t64 -16.5q42 0 67.5 17.5t25.5 45.5q0 18 -17 33.5t-56 15.5q-37 0 -65 -4q-43 -14 -43 -49zM170 231q0 -31 20 -51.5t50 -20.5q31 0 50 20t19 52t-19 52t-50 20 q-30 0 -50 -20.5t-20 -51.5zM18 30q0 22 7.5 41.5t19 32t22.5 21.5t19 13l7 4q-30 34 -30 94q0 71 50.5 122.5t123.5 51.5h182q19 0 19 -19v-33q0 -14 -11 -17l-56 -18q4 -3 11 -10.5t18 -33.5t11 -58q0 -62 -47.5 -109.5t-123.5 -47.5q-22 0 -48.5 4t-31.5 4 q-12 0 -24.5 -10.5t-12.5 -27.5q0 -15 11.5 -24.5t28.5 -9.5h128q71 0 118 -38t47 -102q0 -73 -57.5 -121.5t-161.5 -48.5q-102 0 -153 41t-51 96q0 59 60 95v3q-13 4 -27.5 13t-31 34t-16.5 58z"/>
<glyph glyph-name="Gcommaaccent" horiz-adv-x="712" unicode="Ģ" d="M396 -91q33 0 58 -25.5t25 -81.5q0 -101 -90 -181q-7 -5 -12 -5t-11 6l-15 14q-10 12 3 23q10 7 22.5 19t29 42t16.5 61l-2 -1q-2 0 -4.5 -1t-6.5 -1.5t-8.5 -1t-9.5 -0.5q-27 0 -47 19.5t-20 46.5q0 28 20.5 47.5t51.5 19.5zM41 349q0 150 105 255.5t254 105.5 q135 0 244 -93q7 -7 7 -15q0 -7 -6 -13l-62 -65q-12 -12 -26 0q-66 58 -151 58q-93 0 -158.5 -68.5t-65.5 -163.5q0 -94 65.5 -161.5t159.5 -67.5q57 0 119 25v85h-80q-8 0 -13.5 5t-5.5 13v79q0 19 19 19h192q7 0 12.5 -5.5t5.5 -13.5v-256q0 -10 -8 -16q-12 -7 -33 -18 t-86 -29t-129 -18q-150 0 -254.5 104t-104.5 254z"/>
<glyph glyph-name="gcommaaccent" horiz-adv-x="462" unicode="ģ" d="M148 -151q0 -26 24 -42.5t64 -16.5q42 0 67.5 17.5t25.5 45.5q0 18 -17 33.5t-56 15.5q-37 0 -65 -4q-43 -14 -43 -49zM170 231q0 -31 20 -51.5t50 -20.5q31 0 50 20t19 52t-19 52t-50 20q-30 0 -50 -20.5t-20 -51.5zM18 30q0 22 7.5 41.5t19 32t22.5 21.5t19 13l7 4 q-30 34 -30 94q0 71 50.5 122.5t123.5 51.5h182q19 0 19 -19v-33q0 -14 -11 -17l-56 -18q4 -3 11 -10.5t18 -33.5t11 -58q0 -62 -47.5 -109.5t-123.5 -47.5q-22 0 -48.5 4t-31.5 4q-12 0 -24.5 -10.5t-12.5 -27.5q0 -15 11.5 -24.5t28.5 -9.5h128q71 0 118 -38t47 -102 q0 -73 -57.5 -121.5t-161.5 -48.5q-102 0 -153 41t-51 96q0 59 60 95v3q-13 4 -27.5 13t-31 34t-16.5 58zM252 529q-33 0 -58 25.5t-25 81.5q0 101 90 181q7 5 12 5t11 -6l15 -14q10 -12 -3 -23q-10 -7 -22.5 -19t-29 -42t-16.5 -61l2 1q2 0 4.5 1t6.5 1.5t8.5 1t9.5 0.5 q27 0 47 -19.5t20 -46.5q0 -28 -20.5 -47.5t-51.5 -19.5z"/>
<glyph glyph-name="Hcircumflex" horiz-adv-x="769" unicode="Ĥ" d="M291 766q-14 -8 -23 3l-26 37q-7 10 6 19l130 101q6 4 10 4q3 0 11 -4l130 -101q13 -9 6 -19l-26 -37q-9 -11 -23 -3l-97 61zM91 19v662q0 7 5.5 13t13.5 6h93q8 0 13.5 -5.5t5.5 -13.5v-265h326v265q0 8 5.5 13.5t13.5 5.5h92q7 0 13 -6t6 -13v-662q0 -7 -6 -13t-13 -6 h-92q-8 0 -13.5 5.5t-5.5 13.5v276h-326v-276q0 -8 -5.5 -13.5t-13.5 -5.5h-93q-8 0 -13.5 6t-5.5 13z"/>
<glyph glyph-name="hcircumflex" horiz-adv-x="520" unicode="ĥ" d="M-2 746l-26 37q-2 4 -2 6q0 7 8 13l130 101q6 4 10 4q3 0 11 -4l130 -101q13 -9 6 -19l-26 -37q-9 -11 -23 -3l-97 61l-98 -61q-14 -8 -23 3zM60 19v662q0 7 6 13t13 6h85q8 0 13.5 -6t5.5 -13v-304q44 33 106 33q89 0 134 -57.5t45 -141.5v-192q0 -7 -6 -13t-13 -6h-81 q-8 0 -13.5 5.5t-5.5 13.5v193q0 41 -21.5 65.5t-57.5 24.5q-33 0 -56 -19.5t-31 -51.5v-212q0 -19 -21 -19h-83q-7 0 -13 6t-6 13z"/>
<glyph glyph-name="Hbar" horiz-adv-x="769" unicode="Ħ" d="M222 416h326v117h-326v-117zM91 19v514h-26q-7 0 -12.5 5.5t-5.5 13.5v13q0 8 5.5 13.5t12.5 5.5h26v97q0 7 5.5 13t13.5 6h93q8 0 13.5 -5.5t5.5 -13.5v-97h326v97q0 8 5.5 13.5t13.5 5.5h92q7 0 13 -6t6 -13v-97h26q8 0 13.5 -5.5t5.5 -13.5v-14q0 -8 -5.5 -13 t-13.5 -5h-26v-514q0 -7 -6 -13t-13 -6h-92q-8 0 -13.5 5.5t-5.5 13.5v276h-326v-276q0 -8 -5.5 -13.5t-13.5 -5.5h-93q-8 0 -13.5 6t-5.5 13z"/>
<glyph glyph-name="hbar" horiz-adv-x="520" unicode="ħ" d="M60 19v514h-31q-7 0 -12.5 5.5t-5.5 13.5v13q0 8 5.5 13.5t12.5 5.5h31v97q0 7 6 13t13 6h85q8 0 13.5 -6t5.5 -13v-97h116q8 0 13.5 -5.5t5.5 -13.5v-14q0 -8 -5.5 -13t-13.5 -5h-116v-156q44 33 106 33q89 0 134 -57.5t45 -141.5v-192q0 -7 -6 -13t-13 -6h-81 q-8 0 -13.5 5.5t-5.5 13.5v191q0 41 -21.5 65.5t-57.5 24.5q-33 0 -56 -19.5t-31 -51.5v-210q0 -19 -21 -19h-83q-7 0 -13 6t-6 13z"/>
<glyph glyph-name="Itilde" horiz-adv-x="313" unicode="Ĩ" d="M37 789l-29 21q-7 6 -7 16q0 5 1 7q8 15 12.5 22t19 25.5t33 27.5t39.5 9q28 0 59 -27.5t48 -27.5q16 0 31 22.5t23 22.5q6 0 11 -4l28 -20q6 -6 6 -14q0 -9 -5 -17q-30 -52 -60 -67q-17 -9 -37 -9q-28 0 -61.5 28t-47.5 28q-17 0 -31 -23.5t-23 -23.5q-5 0 -10 4zM91 19 v662q0 7 5.5 13t13.5 6h93q7 0 13 -6t6 -13v-662q0 -7 -6 -13t-13 -6h-93q-8 0 -13.5 6t-5.5 13z"/>
<glyph glyph-name="itilde" horiz-adv-x="241" unicode="ĩ" d="M60 19v362q0 8 5.5 13.5t13.5 5.5h83q8 0 13.5 -5.5t5.5 -13.5v-362q0 -7 -5.5 -13t-13.5 -6h-83q-7 0 -13 6t-6 13zM1 562l-29 21q-7 6 -7 16q0 5 1 7q8 15 12.5 22t19 25.5t33 27.5t39.5 9q28 0 59 -27.5t48 -27.5q16 0 31 22.5t23 22.5q6 0 11 -4l28 -20q6 -6 6 -14 q0 -10 -5 -17q-30 -52 -60 -67q-17 -9 -37 -9q-28 0 -61.5 28t-47.5 28q-17 0 -31 -23.5t-23 -23.5q-5 0 -10 4z"/>
<glyph glyph-name="Imacron" horiz-adv-x="313" unicode="Ī" d="M29 808q-8 0 -13.5 5t-5.5 13v34q0 19 19 19h256q19 0 19 -19v-34q0 -8 -5.5 -13t-13.5 -5h-256zM91 19v662q0 7 5.5 13t13.5 6h93q7 0 13 -6t6 -13v-662q0 -7 -6 -13t-13 -6h-93q-8 0 -13.5 6t-5.5 13z"/>
<glyph glyph-name="imacron" horiz-adv-x="241" unicode="ī" d="M60 19v362q0 8 5.5 13.5t13.5 5.5h83q8 0 13.5 -5.5t5.5 -13.5v-362q0 -7 -5.5 -13t-13.5 -6h-83q-7 0 -13 6t-6 13zM-7 570q-8 0 -13.5 5t-5.5 13v34q0 19 19 19h256q19 0 19 -19v-34q0 -8 -5.5 -13t-13.5 -5h-256z"/>
<glyph glyph-name="Ibreve" horiz-adv-x="313" unicode="Ĭ" d="M157 766q-53 0 -96.5 35.5t-43.5 86.5q0 17 18 17h37q13 0 17 -14q8 -23 26 -38t42 -15q21 0 39.5 15.5t26.5 37.5q3 14 17 14h39q18 0 18 -19q0 -50 -44.5 -85t-95.5 -35zM91 19v662q0 7 5.5 13t13.5 6h93q7 0 13 -6t6 -13v-662q0 -7 -6 -13t-13 -6h-93q-8 0 -13.5 6 t-5.5 13z"/>
<glyph glyph-name="ibreve" horiz-adv-x="241" unicode="ĭ" d="M60 19v362q0 8 5.5 13.5t13.5 5.5h83q8 0 13.5 -5.5t5.5 -13.5v-362q0 -7 -5.5 -13t-13.5 -6h-83q-7 0 -13 6t-6 13zM121 528q-53 0 -96.5 35.5t-43.5 86.5q0 18 18 18h37q13 0 17 -14q8 -24 26 -38.5t42 -14.5q22 0 40 15.5t26 37.5q3 14 17 14h39q18 0 18 -20 q0 -50 -44.5 -85t-95.5 -35z"/>
<glyph glyph-name="Iogonek" horiz-adv-x="313" unicode="Į" d="M91 19v662q0 7 5.5 13t13.5 6h93q7 0 13 -6t6 -13v-662q0 -7 -6 -13t-13 -6h-18q-45 -45 -45 -96q0 -27 17.5 -45.5t48.5 -18.5q10 0 46 9q8 2 14 -3t6 -14v-30q0 -13 -14 -19q-40 -10 -66 -10q-55 0 -91 28t-36 82q0 67 55 117h-10q-8 0 -13.5 6t-5.5 13z"/>
<glyph glyph-name="iogonek" horiz-adv-x="241" unicode="į" d="M60 19v362q0 8 5.5 13.5t13.5 5.5h83q8 0 13.5 -5.5t5.5 -13.5v-362q0 -7 -5.5 -13t-13.5 -6h-18q-45 -45 -45 -96q0 -27 17.5 -45.5t48.5 -18.5q10 0 46 9q8 2 14 -3t6 -14v-30q0 -13 -14 -19q-40 -10 -66 -10q-55 0 -91 28t-36 82q0 67 55 117q-7 0 -13 6t-6 13z M119 542q-28 0 -48 20t-20 49t20 49t48 20q29 0 49.5 -20t20.5 -49t-20.5 -49t-49.5 -20z"/>
<glyph glyph-name="Idotaccent" horiz-adv-x="313" unicode="İ" d="M157 781q-30 0 -51 21t-21 51t21 51t51 21t51 -21t21 -51t-21 -51t-51 -21zM91 19v662q0 7 5.5 13t13.5 6h93q7 0 13 -6t6 -13v-662q0 -7 -6 -13t-13 -6h-93q-8 0 -13.5 6t-5.5 13z"/>
<glyph glyph-name="dotlessi" horiz-adv-x="241" unicode="ı" d="M60 19v362q0 8 5.5 13.5t13.5 5.5h83q8 0 13.5 -5.5t5.5 -13.5v-362q0 -7 -5.5 -13t-13.5 -6h-83q-7 0 -13 6t-6 13z"/>
<glyph glyph-name="IJ" horiz-adv-x="750" unicode="Ĳ" d="M316 63q-8 13 2 25l52 53q7 7 15 7q7 0 15 -8q30 -32 66 -32q32 0 56 26.5t24 74.5v472q0 8 5.5 13.5t13.5 5.5h94q8 0 13.5 -5.5t5.5 -13.5v-472q0 -101 -59.5 -160t-150.5 -59q-93 0 -152 73zM91 19v662q0 7 5.5 13t13.5 6h93q7 0 13 -6t6 -13v-662q0 -7 -6 -13t-13 -6 h-93q-8 0 -13.5 6t-5.5 13z"/>
<glyph glyph-name="ij" horiz-adv-x="500" unicode="ĳ" d="M318 -108v489q0 8 5.5 13.5t13.5 5.5h84q8 0 13.5 -5.5t5.5 -13.5v-489q0 -96 -52 -149t-134 -53q-36 0 -69.5 12.5t-48.5 26.5q-12 9 -4 23l33 64q7 14 24 5q33 -20 59 -20q34 0 52 23.5t18 67.5zM378 542q-28 0 -48 20t-20 49t20 49t48 20q29 0 49.5 -20t20.5 -49 t-20.5 -49t-49.5 -20zM60 19v362q0 8 5.5 13.5t13.5 5.5h83q8 0 13.5 -5.5t5.5 -13.5v-362q0 -7 -5.5 -13t-13.5 -6h-83q-7 0 -13 6t-6 13zM119 542q-28 0 -48 20t-20 49t20 49t48 20q29 0 49.5 -20t20.5 -49t-20.5 -49t-49.5 -20z"/>
<glyph glyph-name="Jcircumflex" horiz-adv-x="418" unicode="Ĵ" d="M184 766q-14 -8 -23 3l-26 37q-7 10 6 19l130 101q6 4 10 4q3 0 11 -4l130 -101q8 -6 8 -13q0 -2 -2 -6l-26 -37q-9 -11 -23 -3l-97 61zM-16 63q-3 5 -3 11q0 7 5 14l52 53q7 7 15 7q7 0 15 -8q30 -32 66 -32q32 0 56 26.5t24 74.5v472q0 8 5.5 13.5t13.5 5.5h94 q8 0 13.5 -5.5t5.5 -13.5v-472q0 -101 -59.5 -160t-150.5 -59q-93 0 -152 73z"/>
<glyph glyph-name="jcircumflex" horiz-adv-x="242" unicode="ĵ" d="M-1 529l-26 37q-7 10 6 19l130 101q6 4 10 4q3 0 11 -4l130 -101q8 -6 8 -13q0 -2 -2 -6l-26 -37q-9 -11 -23 -3l-97 61l-98 -61q-14 -8 -23 3zM60 -108v489q0 8 5.5 13.5t13.5 5.5h84q8 0 13.5 -5.5t5.5 -13.5v-489q0 -96 -52 -149t-134 -53q-36 0 -69.5 12.5 t-48.5 26.5q-6 5 -6 14q0 6 2 9l33 64q7 14 24 5q32 -20 59 -20q34 0 52 23.5t18 67.5z"/>
<glyph glyph-name="Kcommaaccent" horiz-adv-x="655" unicode="Ķ" d="M349 -91q33 0 58 -25.5t25 -81.5q0 -101 -90 -181q-7 -5 -12 -5t-11 6l-15 14q-10 12 3 23q10 7 22.5 19t29 42t16.5 61l-2 -1q-2 0 -4.5 -1t-6.5 -1.5t-8.5 -1t-9.5 -0.5q-27 0 -47 19.5t-20 46.5q0 28 20.5 47.5t51.5 19.5zM91 24v652q0 10 7 17t17 7h88q10 0 17 -7 t7 -17v-270l252 284q8 10 19 10h100q10 0 16 -6t6 -15q0 -7 -6 -15l-261 -294l280 -335q4 -5 4 -13q0 -9 -6 -15.5t-16 -6.5h-109q-13 0 -18 7l-261 322v-305q0 -10 -7 -17t-17 -7h-88q-10 0 -17 7t-7 17z"/>
<glyph glyph-name="kcommaaccent" horiz-adv-x="489" unicode="ķ" d="M260 -91q33 0 58 -25.5t25 -81.5q0 -101 -90 -181q-7 -5 -12 -5t-11 6l-15 14q-10 12 3 23q10 7 22.5 19t29 42t16.5 61l-2 -1q-2 0 -4.5 -1t-6.5 -1.5t-8.5 -1t-9.5 -0.5q-27 0 -47 19.5t-20 46.5q0 28 20.5 47.5t51.5 19.5zM60 19v662q0 7 6 13t13 6h85q8 0 13.5 -6 t5.5 -13v-433l138 140q14 12 25 12h91q18 0 18 -17q0 -5 -5 -12l-149 -152l178 -191q5 -7 5 -12q0 -6 -5 -11t-13 -5h-108q-11 0 -17 8l-158 180v-169q0 -7 -5.5 -13t-13.5 -6h-85q-7 0 -13 6t-6 13z"/>
<glyph glyph-name="kgreenlandic" horiz-adv-x="493" unicode="ĸ" d="M60 19v362q0 7 6 13t13 6h85q8 0 13.5 -6t5.5 -13v-159l151 166q10 12 25 12h91q18 0 18 -17q0 -5 -5 -12l-166 -176l182 -167q5 -7 5 -12q0 -6 -5 -11t-13 -5h-108q-6 0 -17 8l-158 154v-143q0 -7 -5.5 -13t-13.5 -6h-85q-7 0 -13 6t-6 13z"/>
<glyph glyph-name="Lacute" horiz-adv-x="505" unicode="Ĺ" d="M85 768q-18 -8 -25 7l-18 35q-1 2 -1 6q0 10 7 13l164 98q8 5 14 5q7 0 12 -8l28 -52q4 -8 4 -12q0 -10 -10 -15zM91 19v662q0 8 5.5 13.5t13.5 5.5h92q8 0 13.5 -6t5.5 -13v-561h255q8 0 13.5 -5.5t5.5 -13.5v-82q0 -8 -5.5 -13.5t-13.5 -5.5h-366q-8 0 -13.5 5.5 t-5.5 13.5z"/>
<glyph glyph-name="lacute" horiz-adv-x="242" unicode="ĺ" d="M49 745q-19 -7 -26 6l-17 36q-2 4 -2 6q0 7 8 13l163 97q5 4 13 4q9 0 13 -7l29 -51q3 -6 3 -12q0 -10 -9 -15zM60 19v662q0 7 6 13t13 6h84q7 0 13 -6t6 -13v-662q0 -7 -6 -13t-13 -6h-84q-7 0 -13 6t-6 13z"/>
<glyph glyph-name="Lcommaaccent" horiz-adv-x="506" unicode="Ļ" d="M292 -91q33 0 58 -25.5t25 -81.5q0 -101 -90 -181q-7 -5 -12 -5t-11 6l-15 14q-10 12 3 23q10 7 22.5 19t29 42t16.5 61l-2 -1q-2 0 -4.5 -1t-6.5 -1.5t-8.5 -1t-9.5 -0.5q-27 0 -47 19.5t-20 46.5q0 28 20.5 47.5t51.5 19.5zM91 19v662q0 8 5.5 13.5t13.5 5.5h92 q8 0 13.5 -6t5.5 -13v-561h255q8 0 13.5 -5.5t5.5 -13.5v-82q0 -8 -5.5 -13.5t-13.5 -5.5h-366q-8 0 -13.5 5.5t-5.5 13.5z"/>
<glyph glyph-name="lcommaaccent" horiz-adv-x="242" unicode="ļ" d="M117 -91q33 0 58 -25.5t25 -81.5q0 -101 -90 -181q-7 -5 -12 -5t-11 6l-15 14q-10 12 3 23q10 7 22.5 19t29 42t16.5 61l-2 -1q-2 0 -4.5 -1t-6.5 -1.5t-8.5 -1t-9.5 -0.5q-27 0 -47 19.5t-20 46.5q0 28 20.5 47.5t51.5 19.5zM60 19v662q0 7 6 13t13 6h84q7 0 13 -6 t6 -13v-662q0 -7 -6 -13t-13 -6h-84q-7 0 -13 6t-6 13z"/>
<glyph glyph-name="Lcaron" horiz-adv-x="505" unicode="Ľ" d="M397 710q33 0 58 -25.5t25 -81.5q0 -101 -90 -181q-13 -10 -23 1l-15 14q-10 12 3 23q10 7 22.5 19t29 42t16.5 61h-2q-2 -1 -4.5 -1.5t-6.5 -1.5t-8.5 -1.5t-9.5 -0.5q-27 0 -47 19.5t-20 46.5q0 28 20.5 47.5t51.5 19.5zM91 19v662q0 8 5.5 13.5t13.5 5.5h92 q8 0 13.5 -6t5.5 -13v-561h255q8 0 13.5 -5.5t5.5 -13.5v-82q0 -8 -5.5 -13.5t-13.5 -5.5h-366q-8 0 -13.5 5.5t-5.5 13.5z"/>
<glyph glyph-name="lcaron" horiz-adv-x="272" unicode="ľ" d="M318 423l-14 14q-11 11 2 23q10 7 22.5 19t29 42t16.5 61h-2q-2 -1 -4.5 -1.5t-6 -1.5t-8.5 -1.5t-9 -0.5q-28 0 -47.5 19t-19.5 47t20.5 47.5t50.5 19.5q33 0 58 -25.5t25 -81.5q0 -101 -90 -181q-13 -9 -23 1zM60 19v662q0 7 6 13t13 6h84q7 0 13 -6t6 -13v-662 q0 -7 -6 -13t-13 -6h-84q-7 0 -13 6t-6 13z"/>
<glyph glyph-name="Ldot" horiz-adv-x="577" unicode="Ŀ" d="M481 284q-30 0 -51 21t-21 51t21 51t51 21t51 -21t21 -51t-21 -51t-51 -21zM91 19v662q0 8 5.5 13.5t13.5 5.5h92q8 0 13.5 -6t5.5 -13v-561h255q8 0 13.5 -5.5t5.5 -13.5v-82q0 -8 -5.5 -13.5t-13.5 -5.5h-366q-8 0 -13.5 5.5t-5.5 13.5z"/>
<glyph glyph-name="ldot" horiz-adv-x="395" unicode="ŀ" d="M318 288q-30 0 -51 21t-21 51t21 51t51 21t51 -21t21 -51t-21 -51t-51 -21zM60 19v662q0 7 6 13t13 6h84q7 0 13 -6t6 -13v-662q0 -7 -6 -13t-13 -6h-84q-7 0 -13 6t-6 13z"/>
<glyph glyph-name="Lslash" horiz-adv-x="518" unicode="Ł" d="M104 19v287l-23 -12q-6 -4 -13.5 -2t-11.5 9l-7 12q-3 5 -3 10q0 11 9 15l49 27v316q0 8 5.5 13.5t13.5 5.5h92q7 0 13 -6t6 -13v-240l87 51q16 8 26 -7l7 -13q9 -14 -7 -25l-113 -66v-261h255q8 0 13.5 -5.5t5.5 -13.5v-82q0 -8 -5.5 -13.5t-13.5 -5.5h-366 q-8 0 -13.5 5.5t-5.5 13.5z"/>
<glyph glyph-name="lslash" horiz-adv-x="257" unicode="ł" d="M74 19v292l-34 -19q-17 -10 -26 7l-6 12q-3 5 -3 10q0 11 9 15l60 34v311q0 7 6 13t13 6h84q7 0 13 -6t6 -13v-239l63 37q17 10 26 -7l7 -13q2 -3 2 -9q0 -12 -9 -16l-89 -52v-363q0 -7 -6 -13t-13 -6h-84q-7 0 -13 6t-6 13z"/>
<glyph glyph-name="Nacute" horiz-adv-x="773" unicode="Ń" d="M319 768q-18 -8 -25 7l-18 35q-6 12 6 19l164 98q8 5 14 5q7 0 12 -8l28 -52q4 -8 4 -12q0 -10 -10 -15zM91 19v673q0 7 5.5 12.5t13.5 5.5h25l416 -442h1v413q0 8 5.5 13.5t13.5 5.5h92q7 0 13 -6t6 -13v-673q0 -7 -5.5 -12.5t-13.5 -5.5h-24l-418 459h-1v-430 q0 -8 -5.5 -13.5t-13.5 -5.5h-91q-8 0 -13.5 6t-5.5 13z"/>
<glyph glyph-name="nacute" horiz-adv-x="519" unicode="ń" d="M198 528q-19 -7 -26 6l-17 36q-6 11 6 19l163 97q5 4 13 4q9 0 13 -7l29 -51q9 -20 -6 -27zM60 19v362q0 8 5.5 13.5t13.5 5.5h38q12 0 17 -12l14 -37q55 59 141 59q90 0 134 -57t44 -142v-192q0 -7 -5.5 -13t-13.5 -6h-82q-8 0 -13.5 5.5t-5.5 13.5v198q0 39 -19.5 62 t-55.5 23t-60.5 -19.5t-33.5 -43.5v-220q0 -19 -25 -19h-74q-7 0 -13 6t-6 13z"/>
<glyph glyph-name="Ncommaaccent" horiz-adv-x="773" unicode="Ņ" d="M399 -91q33 0 58 -25.5t25 -81.5q0 -101 -90 -181q-7 -5 -12 -5t-11 6l-15 14q-10 12 3 23q10 7 22.5 19t29 42t16.5 61l-2 -1q-2 0 -4.5 -1t-6.5 -1.5t-8.5 -1t-9.5 -0.5q-27 0 -47 19.5t-20 46.5q0 28 20.5 47.5t51.5 19.5zM91 19v673q0 7 5.5 12.5t13.5 5.5h25 l416 -442h1v413q0 8 5.5 13.5t13.5 5.5h92q7 0 13 -6t6 -13v-673q0 -7 -5.5 -12.5t-13.5 -5.5h-24l-418 459h-1v-430q0 -8 -5.5 -13.5t-13.5 -5.5h-91q-8 0 -13.5 6t-5.5 13z"/>
<glyph glyph-name="ncommaaccent" horiz-adv-x="520" unicode="ņ" d="M259 -91q33 0 58 -25.5t25 -81.5q0 -101 -90 -181q-7 -5 -12 -5t-11 6l-15 14q-10 12 3 23q10 7 22.5 19t29 42t16.5 61l-2 -1q-2 0 -4.5 -1t-6.5 -1.5t-8.5 -1t-9.5 -0.5q-27 0 -47 19.5t-20 46.5q0 28 20.5 47.5t51.5 19.5zM60 19v362q0 8 5.5 13.5t13.5 5.5h38 q12 0 17 -12l14 -37q55 59 141 59q90 0 134 -57t44 -142v-192q0 -7 -5.5 -13t-13.5 -6h-82q-8 0 -13.5 5.5t-5.5 13.5v198q0 39 -19.5 62t-55.5 23t-60.5 -19.5t-33.5 -43.5v-220q0 -19 -25 -19h-74q-7 0 -13 6t-6 13z"/>
<glyph glyph-name="Ncaron" horiz-adv-x="773" unicode="Ň" d="M374 764l-130 101q-13 9 -6 19l26 37q4 7 11 7q5 0 12 -4l97 -61l98 61q7 4 12 4q7 0 11 -7l26 -37q7 -10 -6 -19l-130 -101q-10 -8 -21 0zM91 19v673q0 7 5.5 12.5t13.5 5.5h25l416 -442h1v413q0 8 5.5 13.5t13.5 5.5h92q7 0 13 -6t6 -13v-673q0 -7 -5.5 -12.5 t-13.5 -5.5h-24l-418 459h-1v-430q0 -8 -5.5 -13.5t-13.5 -5.5h-91q-8 0 -13.5 6t-5.5 13z"/>
<glyph glyph-name="ncaron" horiz-adv-x="519" unicode="ň" d="M259 524l-130 101q-13 9 -6 19l26 37q4 7 11 7q5 0 12 -4l97 -61l98 61q7 4 12 4q7 0 11 -7l26 -37q7 -10 -6 -19l-130 -101q-10 -8 -21 0zM60 19v362q0 8 5.5 13.5t13.5 5.5h38q12 0 17 -12l14 -37q55 59 141 59q90 0 134 -57t44 -142v-192q0 -7 -5.5 -13t-13.5 -6h-82 q-8 0 -13.5 5.5t-5.5 13.5v198q0 39 -19.5 62t-55.5 23t-60.5 -19.5t-33.5 -43.5v-220q0 -19 -25 -19h-74q-7 0 -13 6t-6 13z"/>
<glyph glyph-name="napostrophe" horiz-adv-x="519" unicode="ŉ" d="M-85 710q33 0 58 -25.5t25 -81.5q0 -101 -90 -181q-13 -10 -23 1l-15 14q-10 12 3 23q10 7 22.5 19t29 42t16.5 61h-2q-2 -1 -4.5 -1.5t-6.5 -1.5t-8.5 -1.5t-9.5 -0.5q-27 0 -47 19.5t-20 46.5q0 28 20.5 47.5t51.5 19.5zM60 19v362q0 8 5.5 13.5t13.5 5.5h38 q12 0 17 -12l14 -37q55 59 141 59q90 0 134 -57t44 -142v-192q0 -7 -5.5 -13t-13.5 -6h-82q-8 0 -13.5 5.5t-5.5 13.5v198q0 39 -19.5 62t-55.5 23t-60.5 -19.5t-33.5 -43.5v-220q0 -19 -25 -19h-74q-7 0 -13 6t-6 13z"/>
<glyph glyph-name="Eng" horiz-adv-x="773" unicode="Ŋ" d="M91 19v673q0 7 5.5 12.5t13.5 5.5h25l416 -442h1v413q0 8 5.5 13.5t13.5 5.5h92q7 0 13 -6t6 -13v-789q0 -96 -52 -149t-134 -53q-36 0 -69.5 12.5t-48.5 26.5q-12 9 -4 23l33 64q7 14 24 5q33 -20 59 -20q67 0 67 91v187l-336 370h-1v-430q0 -8 -5.5 -13.5t-13.5 -5.5 h-91q-8 0 -13.5 6t-5.5 13z"/>
<glyph glyph-name="eng" horiz-adv-x="519" unicode="ŋ" d="M60 19v362q0 8 5.5 13.5t13.5 5.5h38q12 0 17 -12l14 -37q55 59 141 59q90 0 134 -57t44 -142v-319q0 -96 -52 -149t-134 -53q-36 0 -69.5 12.5t-48.5 26.5q-12 9 -4 23l33 64q7 14 24 5q32 -20 59 -20q34 0 53 24t19 67v319q0 39 -19.5 62t-55.5 23t-60.5 -19.5 t-33.5 -43.5v-214q0 -19 -25 -19h-74q-7 0 -13 6t-6 13z"/>
<glyph glyph-name="Omacron" horiz-adv-x="800" unicode="Ō" d="M272 808q-8 0 -13.5 5t-5.5 13v34q0 19 19 19h256q19 0 19 -19v-34q0 -8 -5.5 -13t-13.5 -5h-256zM171 349q0 -95 67.5 -162t161.5 -67q95 0 162.5 67.5t67.5 161.5q0 95 -68 163t-162 68t-161.5 -68t-67.5 -163zM41 349q0 150 104.5 255.5t254.5 105.5t255 -105.5 t105 -255.5t-105 -254.5t-255 -104.5t-254.5 104.5t-104.5 254.5z"/>
<glyph glyph-name="omacron" horiz-adv-x="468" unicode="ō" d="M106 570q-8 0 -13.5 5t-5.5 13v34q0 19 19 19h256q19 0 19 -19v-34q0 -8 -5.5 -13t-13.5 -5h-256zM138 201q0 -43 28 -73t68 -30t68 30t28 73q0 42 -28 71.5t-68 29.5t-68 -29.5t-28 -71.5zM29 201q0 85 60.5 147t144.5 62t144.5 -62t60.5 -147q0 -86 -60 -148.5 t-145 -62.5t-145 62.5t-60 148.5z"/>
<glyph glyph-name="Obreve" horiz-adv-x="800" unicode="Ŏ" d="M400 766q-53 0 -96.5 35.5t-43.5 86.5q0 17 18 17h37q13 0 17 -14q8 -23 26 -38t42 -15q21 0 39.5 15.5t26.5 37.5q3 14 17 14h39q18 0 18 -19q0 -50 -44.5 -85t-95.5 -35zM171 349q0 -95 67.5 -162t161.5 -67q95 0 162.5 67.5t67.5 161.5q0 95 -68 163t-162 68 t-161.5 -68t-67.5 -163zM41 349q0 150 104.5 255.5t254.5 105.5t255 -105.5t105 -255.5t-105 -254.5t-255 -104.5t-254.5 104.5t-104.5 254.5z"/>
<glyph glyph-name="obreve" horiz-adv-x="468" unicode="ŏ" d="M235 528q-53 0 -96.5 35.5t-43.5 86.5q0 18 18 18h37q13 0 17 -14q8 -24 26 -38.5t42 -14.5q22 0 40 15.5t26 37.5q3 14 17 14h39q18 0 18 -20q0 -50 -44.5 -85t-95.5 -35zM138 201q0 -43 28 -73t68 -30t68 30t28 73q0 42 -28 71.5t-68 29.5t-68 -29.5t-28 -71.5zM29 201 q0 85 60.5 147t144.5 62t144.5 -62t60.5 -147q0 -86 -60 -148.5t-145 -62.5t-145 62.5t-60 148.5z"/>
<glyph glyph-name="Ohungarumlaut" horiz-adv-x="800" unicode="Ő" d="M313 768q-20 0 -20 14q0 1 0.5 2.5t0.5 2.5l37 141q6 19 19 19h76q21 0 21 -15q0 -4 -3 -10l-78 -139q-8 -15 -18 -15h-35zM479 768q-20 0 -20 14q0 1 0.5 2.5t0.5 2.5l37 141q6 19 19 19h76q21 0 21 -15q0 -6 -3 -10l-78 -139q-8 -15 -18 -15h-35zM171 349 q0 -95 67.5 -162t161.5 -67q95 0 162.5 67.5t67.5 161.5q0 95 -68 163t-162 68t-161.5 -68t-67.5 -163zM41 349q0 150 104.5 255.5t254.5 105.5t255 -105.5t105 -255.5t-105 -254.5t-255 -104.5t-254.5 104.5t-104.5 254.5z"/>
<glyph glyph-name="ohungarumlaut" horiz-adv-x="468" unicode="ő" d="M138 521q-20 0 -20 14q0 1 0.5 2.5t0.5 2.5l37 141q6 19 19 19h76q21 0 21 -15q0 -4 -3 -10l-78 -139q-7 -15 -18 -15h-35zM304 521q-20 0 -20 14q0 1 0.5 2.5t0.5 2.5l37 141q6 19 19 19h76q21 0 21 -15q0 -5 -3 -10l-78 -139q-7 -15 -18 -15h-35zM138 201q0 -43 28 -73 t68 -30t68 30t28 73q0 42 -28 71.5t-68 29.5t-68 -29.5t-28 -71.5zM29 201q0 85 60.5 147t144.5 62t144.5 -62t60.5 -147q0 -86 -60 -148.5t-145 -62.5t-145 62.5t-60 148.5z"/>
<glyph glyph-name="OE" horiz-adv-x="975" unicode="Œ" d="M171 349q0 -95 67.5 -163t161.5 -68q46 0 78 13v437q-39 14 -78 14q-94 0 -161.5 -69t-67.5 -164zM41 349q0 150 104.5 255.5t254.5 105.5q24 0 48 -2.5t36 -5.5l13 -2h407q8 0 13.5 -5.5t5.5 -13.5v-82q0 -8 -5.5 -13.5t-13.5 -5.5h-296v-164h247q7 0 13 -6t6 -13v-83 q0 -8 -5.5 -13.5t-13.5 -5.5h-247v-175h296q8 0 13.5 -5.5t5.5 -13.5v-82q0 -8 -5.5 -13.5t-13.5 -5.5h-407q-56 -10 -97 -10q-150 0 -254.5 104.5t-104.5 254.5z"/>
<glyph glyph-name="oe" horiz-adv-x="732" unicode="œ" d="M138 202q0 -43 28 -73.5t68 -30.5t68 30.5t28 73.5q0 42 -28 71t-68 29t-68 -29t-28 -71zM441 250h150q-1 28 -22.5 47.5t-50.5 19.5q-30 0 -51.5 -19t-25.5 -48zM29 202q0 85 60.5 146.5t144.5 61.5q83 0 143 -63q57 63 144 63q77 0 132 -52.5t55 -133.5q0 -13 -2 -27 q-2 -17 -19 -17h-255q4 -34 30 -61t65 -27q41 0 79 26q17 11 26 0l40 -47q12 -16 -1 -26q-57 -55 -149 -55q-87 0 -145 63q-58 -63 -143 -63q-84 0 -144.5 62.5t-60.5 149.5z"/>
<glyph glyph-name="Racute" horiz-adv-x="666" unicode="Ŕ" d="M258 768q-18 -8 -25 7l-18 35q-6 12 6 19l164 98q8 5 14 5q7 0 12 -8l28 -52q4 -8 4 -12q0 -10 -10 -15zM222 381h163q40 0 69.5 30t29.5 72q0 40 -29.5 68.5t-69.5 28.5h-163v-199zM91 19v662q0 8 5.5 13.5t13.5 5.5h286q90 0 154 -63t64 -152q0 -68 -40.5 -121.5 t-107.5 -80.5l137 -254q3 -5 3 -10q0 -19 -20 -19h-105q-11 0 -16 9l-133 265h-111v-255q0 -7 -5.5 -13t-13.5 -6h-92q-8 0 -13.5 5.5t-5.5 13.5z"/>
<glyph glyph-name="racute" horiz-adv-x="341" unicode="ŕ" d="M108 528q-19 -7 -26 6l-17 36q-6 11 6 19l163 97q5 4 13 4q9 0 13 -7l29 -51q9 -20 -6 -27zM60 19v362q0 8 5.5 13.5t13.5 5.5h38q13 0 18 -13l14 -39q43 62 113 62q32 0 55.5 -9t23.5 -23q0 -2 -2 -8l-37 -65q-9 -16 -23 -9q-18 6 -29 6q-27 0 -45.5 -13.5t-25.5 -27.5 v-242q0 -19 -23 -19h-77q-7 0 -13 6t-6 13z"/>
<glyph glyph-name="Rcommaaccent" horiz-adv-x="666" unicode="Ŗ" d="M338 -91q33 0 58 -25.5t25 -81.5q0 -101 -90 -181q-7 -5 -12 -5t-11 6l-15 14q-10 12 3 23q10 7 22.5 19t29 42t16.5 61l-2 -1q-2 0 -4.5 -1t-6.5 -1.5t-8.5 -1t-9.5 -0.5q-27 0 -47 19.5t-20 46.5q0 28 20.5 47.5t51.5 19.5zM222 381h163q40 0 69.5 30t29.5 72 q0 40 -29.5 68.5t-69.5 28.5h-163v-199zM91 19v662q0 8 5.5 13.5t13.5 5.5h286q90 0 154 -63t64 -152q0 -68 -40.5 -121.5t-107.5 -80.5l137 -254q3 -5 3 -10q0 -19 -20 -19h-105q-11 0 -16 9l-133 265h-111v-255q0 -7 -5.5 -13t-13.5 -6h-92q-8 0 -13.5 5.5t-5.5 13.5z"/>
<glyph glyph-name="rcommaaccent" horiz-adv-x="341" unicode="ŗ" d="M113 -91q33 0 58 -25.5t25 -81.5q0 -101 -90 -181q-7 -5 -12 -5t-11 6l-15 14q-10 12 3 23q10 7 22.5 19t29 42t16.5 61l-2 -1q-2 0 -4.5 -1t-6.5 -1.5t-8.5 -1t-9.5 -0.5q-27 0 -47 19.5t-20 46.5q0 28 20.5 47.5t51.5 19.5zM60 19v362q0 8 5.5 13.5t13.5 5.5h38 q13 0 18 -13l14 -39q43 62 113 62q32 0 55.5 -9t23.5 -23q0 -2 -2 -8l-37 -65q-9 -16 -23 -9q-18 6 -29 6q-27 0 -45.5 -13.5t-25.5 -27.5v-242q0 -19 -23 -19h-77q-7 0 -13 6t-6 13z"/>
<glyph glyph-name="Rcaron" horiz-adv-x="666" unicode="Ř" d="M313 764l-130 101q-13 9 -6 19l26 37q4 7 11 7q5 0 12 -4l97 -61l98 61q7 4 12 4q7 0 11 -7l26 -37q7 -10 -6 -19l-130 -101q-10 -8 -21 0zM222 381h163q40 0 69.5 30t29.5 72q0 40 -29.5 68.5t-69.5 28.5h-163v-199zM91 19v662q0 8 5.5 13.5t13.5 5.5h286q90 0 154 -63 t64 -152q0 -68 -40.5 -121.5t-107.5 -80.5l137 -254q3 -5 3 -10q0 -19 -20 -19h-105q-11 0 -16 9l-133 265h-111v-255q0 -7 -5.5 -13t-13.5 -6h-92q-8 0 -13.5 5.5t-5.5 13.5z"/>
<glyph glyph-name="rcaron" horiz-adv-x="341" unicode="ř" d="M164 524l-130 101q-8 6 -8 13q0 2 2 6l26 37q4 7 11 7q5 0 12 -4l97 -61l98 61q7 4 12 4q7 0 11 -7l26 -37q7 -10 -6 -19l-130 -101q-10 -8 -21 0zM60 19v362q0 8 5.5 13.5t13.5 5.5h38q13 0 18 -13l14 -39q43 62 113 62q32 0 55.5 -9t23.5 -23q0 -2 -2 -8l-37 -65 q-9 -16 -23 -9q-18 6 -29 6q-27 0 -45.5 -13.5t-25.5 -27.5v-242q0 -19 -23 -19h-77q-7 0 -13 6t-6 13z"/>
<glyph glyph-name="Sacute" horiz-adv-x="542" unicode="Ś" d="M203 768q-18 -8 -25 7l-18 35q-6 12 6 19l164 98q8 5 14 5q7 0 12 -8l28 -52q4 -8 4 -12q0 -10 -10 -15zM55 68q-10 10 -10 16q0 4 5 14l36 62q8 12 20 12q7 0 14 -5l5 -3q5 -4 11.5 -8t16.5 -10t20 -11.5t23 -11t25 -9.5t25 -6.5t25 -2.5q39 0 65 22.5t26 54.5 q0 37 -31 65.5t-96 54.5q-84 34 -136 85t-52 131q0 76 57.5 134t167.5 58q111 0 200 -67q10 -7 10 -20q0 -8 -4 -13l-38 -57q-10 -15 -24 -15q-6 0 -11 3q-88 55 -139 55q-40 0 -64 -22t-24 -48q0 -35 28 -61t90 -51q43 -17 74.5 -34.5t65 -44t51.5 -64t18 -83.5 q0 -81 -64 -139.5t-166 -58.5q-57 0 -108.5 17t-73.5 31.5t-38 29.5z"/>
<glyph glyph-name="sacute" horiz-adv-x="364" unicode="ś" d="M115 528q-19 -7 -26 6l-17 36q-6 11 6 19l163 97q5 4 13 4q9 0 13 -7l29 -51q9 -20 -6 -27zM44 27q-12 10 -6 21l27 54q6 16 23 7q45 -24 91 -24q34 0 34 25q0 14 -14 24t-53 26q-113 44 -113 132q0 50 37.5 84t109.5 34q76 0 123 -31q17 -11 9 -27l-25 -51 q-7 -13 -24 -7q-45 21 -83 21q-34 0 -34 -23q0 -12 9.5 -18t38.5 -18q5 -2 7 -3q67 -26 101 -56.5t34 -84.5q0 -52 -43 -87t-116 -35q-84 0 -133 37z"/>
<glyph glyph-name="Scircumflex" horiz-adv-x="542" unicode="Ŝ" d="M173 766q-14 -8 -23 3l-26 37q-7 10 6 19l130 101q6 4 10 4q3 0 11 -4l130 -101q13 -9 6 -19l-26 -37q-9 -11 -23 -3l-97 61zM55 68q-10 10 -10 16q0 4 5 14l36 62q8 12 20 12q7 0 14 -5l5 -3q5 -4 11.5 -8t16.5 -10t20 -11.5t23 -11t25 -9.5t25 -6.5t25 -2.5 q39 0 65 22.5t26 54.5q0 37 -31 65.5t-96 54.5q-84 34 -136 85t-52 131q0 76 57.5 134t167.5 58q111 0 200 -67q10 -7 10 -20q0 -8 -4 -13l-38 -57q-10 -15 -24 -15q-6 0 -11 3q-88 55 -139 55q-40 0 -64 -22t-24 -48q0 -35 28 -61t90 -51q43 -17 74.5 -34.5t65 -44 t51.5 -64t18 -83.5q0 -81 -64 -139.5t-166 -58.5q-57 0 -108.5 17t-73.5 31.5t-38 29.5z"/>
<glyph glyph-name="scircumflex" horiz-adv-x="364" unicode="ŝ" d="M60 529l-26 37q-2 4 -2 6q0 7 8 13l130 101q6 4 10 4q3 0 11 -4l130 -101q13 -9 6 -19l-26 -37q-9 -11 -23 -3l-97 61l-98 -61q-14 -8 -23 3zM44 27q-12 10 -6 21l27 54q6 16 23 7q45 -24 91 -24q34 0 34 25q0 14 -14 24t-53 26q-113 44 -113 132q0 50 37.5 84t109.5 34 q76 0 123 -31q17 -11 9 -27l-25 -51q-7 -13 -24 -7q-45 21 -83 21q-34 0 -34 -23q0 -12 9.5 -18t38.5 -18q5 -2 7 -3q67 -26 101 -56.5t34 -84.5q0 -52 -43 -87t-116 -35q-84 0 -133 37z"/>
<glyph glyph-name="Scedilla" horiz-adv-x="543" unicode="Ş" d="M55 68q-10 10 -10 16q0 4 5 14l36 62q8 12 20 12q7 0 14 -5l5 -3q5 -4 11.5 -8t16.5 -10t20 -11.5t23 -11t25 -9.5t25 -6.5t25 -2.5q39 0 65 22.5t26 54.5q0 37 -31 65.5t-96 54.5q-84 34 -136 85t-52 131q0 76 57.5 134t167.5 58q111 0 200 -67q10 -7 10 -20 q0 -8 -4 -13l-38 -57q-10 -15 -24 -15q-6 0 -11 3q-88 55 -139 55q-40 0 -64 -22t-24 -48q0 -35 28 -61t90 -51q43 -17 74.5 -34.5t65 -44t51.5 -64t18 -83.5q0 -80 -62.5 -138.5t-162.5 -59.5v-42q46 -6 71.5 -33.5t25.5 -69.5q0 -44 -31 -74.5t-75 -30.5q-46 0 -76 35 q-5 7 -5 12q0 8 8 16l20 17q11 11 21 -1q11 -12 30 -12q15 0 25 11t10 26q0 43 -73 49q-17 2 -17 18v84q-102 16 -159 73z"/>
<glyph glyph-name="scedilla" horiz-adv-x="366" unicode="ş" d="M45 27q-12 10 -6 21l27 54q6 16 23 7q45 -24 91 -24q34 0 34 25q0 14 -14 24t-53 26q-113 44 -113 132q0 50 37.5 84t109.5 34q77 0 123 -31q17 -11 9 -27l-25 -51q-7 -13 -24 -7q-45 21 -83 21q-34 0 -34 -23q0 -12 9.5 -18t38.5 -18q5 -2 7 -3q67 -26 101 -56.5 t34 -84.5q0 -50 -39.5 -84t-107.5 -37v-43q46 -6 71.5 -33.5t25.5 -69.5q0 -44 -31 -74.5t-75 -30.5q-46 0 -76 35q-5 7 -5 12q0 8 8 16l20 17q11 11 21 -1q11 -12 30 -12q15 0 25 11t10 26q0 43 -73 49q-17 2 -17 18v84q-50 9 -79 32z"/>
<glyph glyph-name="Scaron" horiz-adv-x="542" unicode="Š" d="M261 764l-130 101q-13 9 -6 19l26 37q4 7 11 7q5 0 12 -4l97 -61l98 61q7 4 12 4q7 0 11 -7l26 -37q7 -10 -6 -19l-130 -101q-10 -8 -21 0zM55 68q-10 10 -10 16q0 4 5 14l36 62q8 12 20 12q7 0 14 -5l5 -3q5 -4 11.5 -8t16.5 -10t20 -11.5t23 -11t25 -9.5t25 -6.5 t25 -2.5q39 0 65 22.5t26 54.5q0 37 -31 65.5t-96 54.5q-84 34 -136 85t-52 131q0 76 57.5 134t167.5 58q111 0 200 -67q10 -7 10 -20q0 -8 -4 -13l-38 -57q-10 -15 -24 -15q-6 0 -11 3q-88 55 -139 55q-40 0 -64 -22t-24 -48q0 -35 28 -61t90 -51q43 -17 74.5 -34.5t65 -44 t51.5 -64t18 -83.5q0 -81 -64 -139.5t-166 -58.5q-57 0 -108.5 17t-73.5 31.5t-38 29.5z"/>
<glyph glyph-name="scaron" horiz-adv-x="364" unicode="š" d="M175 524l-130 101q-13 9 -6 19l26 37q4 7 11 7q5 0 12 -4l97 -61l98 61q7 4 12 4q7 0 11 -7l26 -37q7 -10 -6 -19l-130 -101q-10 -8 -21 0zM44 27q-12 10 -6 21l27 54q6 16 23 7q45 -24 91 -24q34 0 34 25q0 14 -14 24t-53 26q-113 44 -113 132q0 50 37.5 84t109.5 34 q76 0 123 -31q17 -11 9 -27l-25 -51q-7 -13 -24 -7q-45 21 -83 21q-34 0 -34 -23q0 -12 9.5 -18t38.5 -18q5 -2 7 -3q67 -26 101 -56.5t34 -84.5q0 -52 -43 -87t-116 -35q-84 0 -133 37z"/>
<glyph glyph-name="Tcommaaccent" horiz-adv-x="501" unicode="Ţ" d="M245 -91q33 0 58 -25.5t25 -81.5q0 -101 -90 -181q-7 -5 -12 -5t-11 6l-15 14q-10 12 3 23q10 7 22.5 19t29 42t16.5 61l-2 -1q-2 0 -4.5 -1t-6.5 -1.5t-8.5 -1t-9.5 -0.5q-27 0 -47 19.5t-20 46.5q0 28 20.5 47.5t51.5 19.5zM185 19v561h-153q-8 0 -13.5 5.5t-5.5 13.5 v82q0 8 5.5 13.5t13.5 5.5h437q8 0 13.5 -5.5t5.5 -13.5v-82q0 -8 -5.5 -13.5t-13.5 -5.5h-153v-561q0 -7 -6 -13t-13 -6h-93q-8 0 -13.5 6t-5.5 13z"/>
<glyph glyph-name="tcommaaccent" horiz-adv-x="346" unicode="ţ" d="M193 -91q33 0 58 -25.5t25 -81.5q0 -101 -90 -181q-7 -5 -12 -5t-11 6l-15 14q-10 12 3 23q10 7 22.5 19t29 42t16.5 61l-2 -1q-2 0 -4.5 -1t-6.5 -1.5t-8.5 -1t-9.5 -0.5q-27 0 -47 19.5t-20 46.5q0 28 20.5 47.5t51.5 19.5zM81 119v176h-34q-7 0 -12.5 5.5t-5.5 13.5 v67q0 8 5 13.5t13 5.5h34v111q0 7 5.5 13t13.5 6l82 1q7 0 12.5 -5.5t5.5 -13.5v-112h88q19 0 19 -19v-67q0 -8 -5.5 -13.5t-13.5 -5.5h-88v-160q0 -32 31 -32q19 0 49 11q17 6 22 -11l20 -63q1 -2 1 -7q0 -13 -12 -17q-4 -2 -21.5 -8t-46.5 -12t-51 -6q-111 0 -111 129z "/>
<glyph glyph-name="Tcaron" horiz-adv-x="501" unicode="Ť" d="M239 764l-130 101q-13 9 -6 19l26 37q4 7 11 7q5 0 12 -4l97 -61l98 61q7 4 12 4q7 0 11 -7l26 -37q7 -10 -6 -19l-130 -101q-10 -8 -21 0zM185 19v561h-153q-8 0 -13.5 5.5t-5.5 13.5v82q0 8 5.5 13.5t13.5 5.5h437q8 0 13.5 -5.5t5.5 -13.5v-82q0 -8 -5.5 -13.5 t-13.5 -5.5h-153v-561q0 -7 -6 -13t-13 -6h-93q-8 0 -13.5 6t-5.5 13z"/>
<glyph glyph-name="tcaron" horiz-adv-x="345" unicode="ť" d="M398 423l-14 14q-11 11 2 23q10 7 22.5 19t29 42t16.5 61h-2q-2 -1 -4.5 -1.5t-6 -1.5t-8.5 -1.5t-9 -0.5q-28 0 -47.5 19t-19.5 47t20.5 47.5t50.5 19.5q33 0 58 -25.5t25 -81.5q0 -101 -90 -181q-13 -9 -23 1zM81 119v176h-34q-7 0 -12.5 5.5t-5.5 13.5v67q0 8 5 13.5 t13 5.5h34v111q0 7 5.5 13t13.5 6l82 1q7 0 12.5 -5.5t5.5 -13.5v-112h88q19 0 19 -19v-67q0 -8 -5.5 -13.5t-13.5 -5.5h-88v-160q0 -32 31 -32q19 0 49 11q17 6 22 -11l20 -63q1 -2 1 -7q0 -13 -12 -17q-4 -2 -21.5 -8t-46.5 -12t-51 -6q-111 0 -111 129z"/>
<glyph glyph-name="Tbar" horiz-adv-x="501" unicode="Ŧ" d="M185 19v272h-94q-7 0 -12.5 5.5t-5.5 13.5v13q0 8 5.5 13.5t12.5 5.5h94v238h-153q-8 0 -13.5 5.5t-5.5 13.5v82q0 8 5.5 13.5t13.5 5.5h437q8 0 13.5 -5.5t5.5 -13.5v-82q0 -8 -5.5 -13.5t-13.5 -5.5h-153v-238h98q8 0 13.5 -5.5t5.5 -13.5v-14q0 -8 -5.5 -13t-13.5 -5 h-98v-272q0 -7 -6 -13t-13 -6h-93q-8 0 -13.5 6t-5.5 13z"/>
<glyph glyph-name="tbar" horiz-adv-x="345" unicode="ŧ" d="M81 119v51h-31q-7 0 -12.5 5.5t-5.5 13.5v13q0 8 5.5 13.5t12.5 5.5h31v74h-34q-7 0 -12.5 5.5t-5.5 13.5v67q0 8 5 13.5t13 5.5h34v111q0 7 5.5 13t13.5 6l82 1q7 0 12.5 -5.5t5.5 -13.5v-112h88q19 0 19 -19v-67q0 -8 -5.5 -13.5t-13.5 -5.5h-88v-74h81q8 0 13.5 -5.5 t5.5 -13.5v-14q0 -8 -5.5 -13t-13.5 -5h-81v-34q0 -32 31 -32q21 0 49 10q17 6 22 -11l20 -63q1 -2 1 -6q0 -14 -12 -18q-4 -2 -21.5 -8t-46.5 -12t-51 -6q-111 0 -111 129z"/>
<glyph glyph-name="Utilde" horiz-adv-x="721" unicode="Ũ" d="M241 789l-29 21q-12 9 -6 23q8 15 12.5 22t19 25.5t33 27.5t39.5 9q28 0 59 -27.5t48 -27.5q16 0 31 22.5t23 22.5q6 0 11 -4l28 -20q6 -6 6 -14q0 -9 -5 -17q-30 -52 -60 -67q-17 -9 -37 -9q-28 0 -61.5 28t-47.5 28q-17 0 -31 -23.5t-23 -23.5q-5 0 -10 4zM82 265v416 q0 7 6 13t13 6h95q8 0 13.5 -5.5t5.5 -13.5v-409q0 -65 40.5 -108.5t104.5 -43.5t105 43.5t41 107.5v410q0 8 5.5 13.5t13.5 5.5h95q8 0 13.5 -6t5.5 -13v-416q0 -115 -80.5 -195t-198.5 -80q-117 0 -197.5 80t-80.5 195z"/>
<glyph glyph-name="utilde" horiz-adv-x="503" unicode="ũ" d="M133 562l-29 21q-12 9 -6 23q8 15 12.5 22t19 25.5t33 27.5t39.5 9q28 0 59 -27.5t48 -27.5q16 0 31 22.5t23 22.5q6 0 11 -4l28 -20q6 -6 6 -14q0 -10 -5 -17q-30 -52 -60 -67q-17 -9 -37 -9q-28 0 -61.5 28t-47.5 28q-17 0 -31 -23.5t-23 -23.5q-5 0 -10 4zM53 187v194 q0 8 5.5 13.5t13.5 5.5h82q8 0 13.5 -5.5t5.5 -13.5v-197q0 -40 19.5 -63t53.5 -23q30 0 52.5 23t27.5 52v208q0 11 5 15t17 4h76q8 0 13.5 -5.5t5.5 -13.5v-362q0 -7 -5.5 -13t-13.5 -6h-37q-13 0 -19 15l-12 33q-1 -1 -7.5 -7t-10 -9t-12 -9t-15 -10t-17 -9t-21 -7.5 t-24 -4.5t-27.5 -2q-87 0 -128 56t-41 141z"/>
<glyph glyph-name="Umacron" horiz-adv-x="721" unicode="Ū" d="M233 808q-8 0 -13.5 5t-5.5 13v34q0 19 19 19h256q19 0 19 -19v-34q0 -8 -5.5 -13t-13.5 -5h-256zM82 265v416q0 7 6 13t13 6h95q8 0 13.5 -5.5t5.5 -13.5v-409q0 -65 40.5 -108.5t104.5 -43.5t105 43.5t41 107.5v410q0 8 5.5 13.5t13.5 5.5h95q8 0 13.5 -6t5.5 -13v-416 q0 -115 -80.5 -195t-198.5 -80q-117 0 -197.5 80t-80.5 195z"/>
<glyph glyph-name="umacron" horiz-adv-x="503" unicode="ū" d="M125 570q-8 0 -13.5 5t-5.5 13v34q0 19 19 19h256q19 0 19 -19v-34q0 -8 -5.5 -13t-13.5 -5h-256zM53 187v194q0 8 5.5 13.5t13.5 5.5h82q8 0 13.5 -5.5t5.5 -13.5v-197q0 -40 19.5 -63t53.5 -23q30 0 52.5 23t27.5 52v208q0 11 5 15t17 4h76q8 0 13.5 -5.5t5.5 -13.5 v-362q0 -7 -5.5 -13t-13.5 -6h-37q-13 0 -19 15l-12 33q-1 -1 -7.5 -7t-10 -9t-12 -9t-15 -10t-17 -9t-21 -7.5t-24 -4.5t-27.5 -2q-87 0 -128 56t-41 141z"/>
<glyph glyph-name="Ubreve" horiz-adv-x="721" unicode="Ŭ" d="M362 766q-53 0 -96.5 35.5t-43.5 86.5q0 17 18 17h37q13 0 17 -14q8 -23 26 -38t42 -15q21 0 39.5 15.5t26.5 37.5q3 14 17 14h39q18 0 18 -19q0 -50 -44.5 -85t-95.5 -35zM82 265v416q0 7 6 13t13 6h95q8 0 13.5 -5.5t5.5 -13.5v-409q0 -65 40.5 -108.5t104.5 -43.5 t105 43.5t41 107.5v410q0 8 5.5 13.5t13.5 5.5h95q8 0 13.5 -6t5.5 -13v-416q0 -115 -80.5 -195t-198.5 -80q-117 0 -197.5 80t-80.5 195z"/>
<glyph glyph-name="ubreve" horiz-adv-x="503" unicode="ŭ" d="M254 528q-53 0 -96.5 35.5t-43.5 86.5q0 18 18 18h37q13 0 17 -14q8 -24 26 -38.5t42 -14.5q22 0 40 15.5t26 37.5q4 14 17 14h39q18 0 18 -20q0 -50 -44.5 -85t-95.5 -35zM53 187v194q0 8 5.5 13.5t13.5 5.5h82q8 0 13.5 -5.5t5.5 -13.5v-197q0 -40 19.5 -63t53.5 -23 q30 0 52.5 23t27.5 52v208q0 11 5 15t17 4h76q8 0 13.5 -5.5t5.5 -13.5v-362q0 -7 -5.5 -13t-13.5 -6h-37q-13 0 -19 15l-12 33q-1 -1 -7.5 -7t-10 -9t-12 -9t-15 -10t-17 -9t-21 -7.5t-24 -4.5t-27.5 -2q-87 0 -128 56t-41 141z"/>
<glyph glyph-name="Uring" horiz-adv-x="721" unicode="Ů" d="M362 817q19 0 33.5 15t14.5 35q0 19 -14 33.5t-34 14.5t-35 -14.5t-15 -33.5t15 -34.5t35 -15.5zM362 754q-47 0 -80 33t-33 80t33 80t80 33t80 -33t33 -80t-33 -80t-80 -33zM82 265v416q0 7 6 13t13 6h95q8 0 13.5 -5.5t5.5 -13.5v-409q0 -65 40.5 -108.5t104.5 -43.5 t105 43.5t41 107.5v410q0 8 5.5 13.5t13.5 5.5h95q8 0 13.5 -6t5.5 -13v-416q0 -115 -80.5 -195t-198.5 -80q-117 0 -197.5 80t-80.5 195z"/>
<glyph glyph-name="uring" horiz-adv-x="503" unicode="ů" d="M252 547q19 0 33.5 15t14.5 35q0 19 -14 33.5t-34 14.5t-35 -14.5t-15 -33.5t15 -34.5t35 -15.5zM252 484q-47 0 -80 33t-33 80t33 80t80 33t80 -33t33 -80t-33 -80t-80 -33zM53 187v194q0 8 5.5 13.5t13.5 5.5h82q8 0 13.5 -5.5t5.5 -13.5v-197q0 -40 19.5 -63t53.5 -23 q30 0 52.5 23t27.5 52v208q0 11 5 15t17 4h76q8 0 13.5 -5.5t5.5 -13.5v-362q0 -7 -5.5 -13t-13.5 -6h-37q-13 0 -19 15l-12 33q-1 -1 -7.5 -7t-10 -9t-12 -9t-15 -10t-17 -9t-21 -7.5t-24 -4.5t-27.5 -2q-87 0 -128 56t-41 141z"/>
<glyph glyph-name="Uhungarumlaut" horiz-adv-x="721" unicode="Ű" d="M266 768q-20 0 -20 14q0 1 0.5 2.5t0.5 2.5l37 141q6 19 19 19h76q21 0 21 -15q0 -4 -3 -10l-78 -139q-7 -15 -18 -15h-35zM432 768q-20 0 -20 14q0 1 0.5 2.5t0.5 2.5l37 141q6 19 19 19h76q21 0 21 -15q0 -6 -3 -10l-78 -139q-7 -15 -18 -15h-35zM82 265v416q0 7 6 13 t13 6h95q8 0 13.5 -5.5t5.5 -13.5v-409q0 -65 40.5 -108.5t104.5 -43.5t105 43.5t41 107.5v410q0 8 5.5 13.5t13.5 5.5h95q8 0 13.5 -6t5.5 -13v-416q0 -115 -80.5 -195t-198.5 -80q-117 0 -197.5 80t-80.5 195z"/>
<glyph glyph-name="uhungarumlaut" horiz-adv-x="503" unicode="ű" d="M159 521q-20 0 -20 14q0 1 0.5 2.5t0.5 2.5l37 141q6 19 19 19h76q21 0 21 -15q0 -4 -3 -10l-78 -139q-8 -15 -18 -15h-35zM325 521q-20 0 -20 14q0 1 0.5 2.5t0.5 2.5l37 141q6 19 19 19h76q21 0 21 -15q0 -5 -3 -10l-78 -139q-8 -15 -18 -15h-35zM53 187v194 q0 8 5.5 13.5t13.5 5.5h82q8 0 13.5 -5.5t5.5 -13.5v-197q0 -40 19.5 -63t53.5 -23q30 0 52.5 23t27.5 52v208q0 11 5 15t17 4h76q8 0 13.5 -5.5t5.5 -13.5v-362q0 -7 -5.5 -13t-13.5 -6h-37q-13 0 -19 15l-12 33q-1 -1 -7.5 -7t-10 -9t-12 -9t-15 -10t-17 -9t-21 -7.5 t-24 -4.5t-27.5 -2q-87 0 -128 56t-41 141z"/>
<glyph glyph-name="Uogonek" horiz-adv-x="725" unicode="Ų" d="M84 265v416q0 7 6 13t13 6h95q8 0 13.5 -5.5t5.5 -13.5v-409q0 -65 40.5 -108.5t104.5 -43.5t105 43.5t41 107.5v410q0 8 5.5 13.5t13.5 5.5h95q8 0 13.5 -6t5.5 -13v-416q0 -109 -73 -187.5t-183 -86.5q-37 -44 -37 -87q0 -27 17.5 -45.5t48.5 -18.5q10 0 46 9 q8 2 14 -3t6 -14v-30q0 -13 -14 -19q-40 -10 -66 -10q-55 0 -91 28t-36 82q0 60 48 110q-103 14 -170 91t-67 181z"/>
<glyph glyph-name="uogonek" horiz-adv-x="503" unicode="ų" d="M53 187v194q0 8 5.5 13.5t13.5 5.5h82q8 0 13.5 -5.5t5.5 -13.5v-191q0 -40 19.5 -63t53.5 -23q30 0 52.5 23t27.5 52v202q0 11 5 15t17 4h76q8 0 13.5 -5.5t5.5 -13.5v-362q0 -7 -5.5 -13t-13.5 -6h-6q-45 -45 -45 -96q0 -27 17.5 -45.5t48.5 -18.5q10 0 46 9q8 2 14 -3 t6 -14v-30q0 -13 -14 -19q-40 -10 -66 -10q-55 0 -91 28t-36 82q0 35 18 67.5t31.5 45t21.5 17.5l-13 35q-1 -1 -7.5 -7t-10 -9t-12 -9t-15 -10t-17 -9t-21 -7.5t-24 -4.5t-27.5 -2q-87 0 -128 56t-41 141z"/>
<glyph glyph-name="Wcircumflex" horiz-adv-x="899" unicode="Ŵ" d="M352 766q-14 -8 -23 3l-26 37q-7 10 6 19l130 101q6 4 10 4q3 0 11 -4l130 -101q13 -9 6 -19l-26 -37q-9 -11 -23 -3l-97 61zM218 4l-189 672q-1 2 -1 7q0 17 19 17h92q14 0 18 -14l104 -399h4l159 412q4 11 17 11h18q13 0 17 -11l160 -412h4l102 399q4 14 18 14h92 q19 0 19 -17q0 -5 -1 -7l-189 -672q-3 -14 -18 -14h-16q-13 0 -17 11l-179 453h-5l-177 -453q-5 -11 -17 -11h-16q-14 0 -18 14z"/>
<glyph glyph-name="wcircumflex" horiz-adv-x="616" unicode="ŵ" d="M186 529l-26 37q-7 10 6 19l130 101q6 4 10 4q3 0 11 -4l130 -101q13 -9 6 -19l-26 -37q-9 -11 -23 -3l-97 61l-98 -61q-14 -8 -23 3zM143 1l-125 376q-2 6 -2 8q0 15 19 15h72q15 0 18 -12l60 -179h1l102 192q4 9 16 9h8q11 0 16 -9l101 -192h1l60 179q4 12 23 12h65 q19 0 19 -16q0 -5 -1 -7l-125 -376q-4 -11 -18 -11h-4q-11 0 -16 9l-126 233h-1l-125 -233q-5 -9 -16 -9h-5q-13 0 -17 11z"/>
<glyph glyph-name="Ycircumflex" horiz-adv-x="583" unicode="Ŷ" d="M194 766q-14 -8 -23 3l-26 37q-7 10 6 19l130 101q6 4 10 4q3 0 11 -4l130 -101q13 -9 6 -19l-26 -37q-9 -11 -23 -3l-97 61zM225 19v318l-228 334q-3 5 -3 11q0 18 19 18h102q9 0 16 -9l160 -230l160 230q7 9 16 9h103q19 0 19 -18q0 -6 -3 -11l-231 -333v-319 q0 -7 -5.5 -13t-13.5 -6h-92q-8 0 -13.5 5.5t-5.5 13.5z"/>
<glyph glyph-name="ycircumflex" horiz-adv-x="463" unicode="ŷ" d="M112 529l-26 37q-7 10 6 19l130 101q6 4 10 4q3 0 11 -4l130 -101q13 -9 6 -19l-26 -37q-9 -11 -23 -3l-97 61l-98 -61q-14 -8 -23 3zM171 28l-163 346q-2 6 -2 9q0 17 19 17h90q11 0 17 -11l101 -226h1l100 226q6 11 24 11h80q9 0 14.5 -5t5.5 -12q0 -5 -3 -9l-306 -662 q-6 -12 -17 -12h-86q-19 0 -19 17q0 7 2 10z"/>
<glyph glyph-name="Ydieresis" horiz-adv-x="583" unicode="Ÿ" d="M167 775q-26 0 -44.5 19t-18.5 45t18.5 44.5t44.5 18.5t45 -18.5t19 -44.5t-19 -45t-45 -19zM414 775q-26 0 -44.5 19t-18.5 45t18.5 44.5t44.5 18.5t45 -18.5t19 -44.5t-19 -45t-45 -19zM225 19v318l-228 334q-3 5 -3 11q0 18 19 18h102q9 0 16 -9l160 -230l160 230 q7 9 16 9h103q19 0 19 -18q0 -6 -3 -11l-231 -333v-319q0 -7 -5.5 -13t-13.5 -6h-92q-8 0 -13.5 5.5t-5.5 13.5z"/>
<glyph glyph-name="Zacute" horiz-adv-x="538" unicode="Ź" d="M214 768q-18 -8 -25 7l-18 35q-6 12 6 19l164 98q8 5 14 5q7 0 12 -8l28 -52q4 -8 4 -12q0 -10 -10 -15zM25 19v18l298 538v4h-250q-7 0 -13 5.5t-6 13.5v83q0 7 6 13t13 6h418q7 0 13 -6t6 -13v-13l-294 -545v-2h255q8 0 13.5 -5.5t5.5 -13.5v-83q0 -8 -5.5 -13.5 t-13.5 -5.5h-427q-8 0 -13.5 6t-5.5 13z"/>
<glyph glyph-name="zacute" horiz-adv-x="366" unicode="ź" d="M123 528q-19 -7 -26 6l-17 36q-6 11 6 19l163 97q5 4 13 4q9 0 13 -7l29 -51q9 -20 -6 -27zM30 19v10l142 262v2h-114q-7 0 -12.5 5.5t-5.5 13.5v69q0 8 5 13.5t13 5.5h264q8 0 14 -5.5t6 -12.5q0 -4 -3 -9l-145 -264v-3h108q19 0 19 -19v-68q0 -8 -5.5 -13.5t-13.5 -5.5 h-253q-7 0 -13 6t-6 13z"/>
<glyph glyph-name="Zdotaccent" horiz-adv-x="538" unicode="Ż" d="M281 781q-30 0 -51 21t-21 51t21 51t51 21t51 -21t21 -51t-21 -51t-51 -21zM25 19v18l298 538v4h-250q-7 0 -13 5.5t-6 13.5v83q0 7 6 13t13 6h418q7 0 13 -6t6 -13v-13l-294 -545v-2h255q8 0 13.5 -5.5t5.5 -13.5v-83q0 -8 -5.5 -13.5t-13.5 -5.5h-427q-8 0 -13.5 6 t-5.5 13z"/>
<glyph glyph-name="zdotaccent" horiz-adv-x="366" unicode="ż" d="M195 536q-30 0 -51 21t-21 51t21 51t51 21t51 -21t21 -51t-21 -51t-51 -21zM30 19v10l142 262v2h-114q-7 0 -12.5 5.5t-5.5 13.5v69q0 8 5 13.5t13 5.5h264q8 0 14 -5.5t6 -12.5q0 -4 -3 -9l-145 -264v-3h108q19 0 19 -19v-68q0 -8 -5.5 -13.5t-13.5 -5.5h-253 q-7 0 -13 6t-6 13z"/>
<glyph glyph-name="Zcaron" horiz-adv-x="538" unicode="Ž" d="M269 764l-130 101q-13 9 -6 19l26 37q4 7 11 7q5 0 12 -4l97 -61l98 61q7 4 12 4q7 0 11 -7l26 -37q7 -10 -6 -19l-130 -101q-10 -8 -21 0zM25 19v18l298 538v4h-250q-7 0 -13 5.5t-6 13.5v83q0 7 6 13t13 6h418q7 0 13 -6t6 -13v-13l-294 -545v-2h255q8 0 13.5 -5.5 t5.5 -13.5v-83q0 -8 -5.5 -13.5t-13.5 -5.5h-427q-8 0 -13.5 6t-5.5 13z"/>
<glyph glyph-name="zcaron" horiz-adv-x="366" unicode="ž" d="M180 524l-130 101q-13 9 -6 19l26 37q4 7 11 7q5 0 12 -4l97 -61l98 61q7 4 12 4q7 0 11 -7l26 -37q2 -4 2 -6q0 -7 -8 -13l-130 -101q-10 -8 -21 0zM30 19v10l142 262v2h-114q-7 0 -12.5 5.5t-5.5 13.5v69q0 8 5 13.5t13 5.5h264q8 0 14 -5.5t6 -12.5q0 -4 -3 -9 l-145 -264v-3h108q19 0 19 -19v-68q0 -8 -5.5 -13.5t-13.5 -5.5h-253q-7 0 -13 6t-6 13z"/>
<glyph glyph-name="florin" horiz-adv-x="371" unicode="ƒ" d="M111 -108v404h-75q-8 0 -13.5 5.5t-5.5 13.5v66q0 19 19 19h75v109q0 95 53.5 148t139.5 53q64 0 111 -39q7 -7 7 -16q0 -5 -3 -8l-37 -62q-10 -14 -24 -5q-5 4 -22.5 10.5t-30.5 6.5q-29 0 -49 -22.5t-20 -66.5v-108h100q19 0 19 -19v-66q0 -8 -5.5 -13.5t-13.5 -5.5 h-100v-405q0 -95 -54 -148t-140 -53q-64 0 -111 39q-6 6 -6 15q0 5 2 9l38 62q9 14 24 5q4 -4 21.5 -10.5t30.5 -6.5q29 0 49.5 22.5t20.5 66.5z"/>
<glyph glyph-name="Aringacute" horiz-adv-x="663" unicode="Ǻ" d="M231 239h201l-100 220h-3zM335 715q19 0 33.5 15t14.5 35q0 19 -14.5 33.5t-33.5 14.5q-20 0 -35 -14.5t-15 -33.5t15.5 -34.5t34.5 -15.5zM17 0q-19 0 -19 17q0 3 2 9l293 634q-32 12 -51.5 40.5t-19.5 64.5q0 47 33 80t80 33t80 -33t33 -80q0 -36 -21 -65.5t-54 -41.5 l290 -632q2 -6 2 -9q0 -17 -19 -17h-87q-19 0 -29 20l-49 108h-299l-49 -108q-8 -20 -29 -20h-87zM240 886l-18 35q-1 2 -1 6q0 9 7 13l164 98q8 5 14 5q7 0 12 -8l28 -52q4 -8 4 -12q0 -10 -10 -15l-175 -77q-7 -3 -12 -3q-8 0 -13 10z"/>
<glyph glyph-name="aringacute" d="M148 662q-19 -7 -26 6l-17 36q-6 11 6 19l163 97q5 4 13 4q9 0 13 -7l29 -51q9 -20 -6 -27zM219 490q19 0 33.5 15t14.5 35t-14.5 34t-33.5 14q-20 0 -35 -14.5t-15 -33.5q0 -20 15.5 -35t34.5 -15zM219 427q-47 0 -80 33t-33 80t33 80t80 33t80 -33t33 -80t-33 -80 t-80 -33zM141 127q0 -23 14.5 -37.5t37.5 -14.5q22 0 42.5 14t26.5 25v55q-27 12 -56 12t-47 -15t-18 -39zM31 127q0 55 43 90.5t117 35.5q18 0 36 -2.5t27 -5.5l10 -3q1 38 -11.5 53.5t-40.5 15.5q-63 0 -112 -15q-2 -1 -6 -1q-14 0 -17 19l-9 52q0 1 -0.5 3t-0.5 3 q0 13 15 19q6 2 24 6t50.5 8.5t61.5 4.5q89 0 121.5 -42.5t32.5 -131.5v-217q0 -7 -6 -13t-13 -6h-36q-11 0 -17 14l-12 27q-56 -51 -122 -51q-61 0 -98 37t-37 100z" unicode="ǻ"/>
<glyph glyph-name="AEacute" horiz-adv-x="900" unicode="Ǽ" d="M551 769q-18 -8 -25 7l-18 35q-6 12 6 19l164 98q8 5 14 5q7 0 12 -8l28 -52q4 -8 4 -12q0 -10 -10 -15zM262 239h140v226zM1 0q-16 0 -16 14q0 7 4 12l401 643q15 24 25 28q7 3 19 3h395q8 0 13.5 -5.5t5.5 -13.5v-82q0 -8 -5.5 -13.5t-13.5 -5.5h-299v-164h250 q8 0 13.5 -6t5.5 -13v-83q0 -8 -5.5 -13.5t-13.5 -5.5h-250v-175h299q8 0 13.5 -5.5t5.5 -13.5v-82q0 -8 -5.5 -13.5t-13.5 -5.5h-408q-8 0 -13.5 5.5t-5.5 13.5v109h-210l-71 -113q-10 -15 -25 -15h-95z"/>
<glyph glyph-name="aeacute" horiz-adv-x="670" unicode="ǽ" d="M311 528q-19 -7 -26 6l-17 36q-6 11 6 19l163 97q5 4 13 4q9 0 13 -7l29 -51q9 -20 -6 -27zM140 130q0 -24 16.5 -39t39.5 -15q20 0 36.5 10.5t23.5 21.5l6 10v52q-27 13 -62 13q-25 0 -42.5 -15t-17.5 -38zM379 251h150q-1 28 -22.5 47.5t-50.5 19.5q-30 0 -51.5 -19 t-25.5 -48zM30 127q0 55 42 90.5t114 35.5q18 0 37 -2t29 -4l10 -2q-2 41 -12.5 57t-42.5 16q-48 0 -109 -16q-19 -2 -23 16l-9 54q-2 16 16 20q74 18 136 18q89 0 121 -41q52 41 120 41q78 0 132.5 -52.5t54.5 -133.5q0 -44 -21 -44h-255q4 -34 30 -61t65 -27q41 0 79 26 q17 11 26 0l40 -47q12 -16 -1 -26q-59 -55 -149 -55q-96 0 -150 65q-18 -23 -55.5 -44t-86.5 -21q-62 0 -100 37t-38 100z"/>
<glyph glyph-name="Oslashacute" horiz-adv-x="799" unicode="Ǿ" d="M330 768q-18 -8 -25 7l-18 35q-6 12 6 19l164 98q8 5 14 5q7 0 12 -8l28 -52q4 -8 4 -12q0 -10 -10 -15zM257 170q63 -50 143 -50q94 0 162 68t68 162q0 81 -51 142zM221 207l323 322q-66 51 -144 51q-94 0 -161.5 -68t-67.5 -163q0 -79 50 -142zM63 23q-13 13 -1 26 l65 64q-86 100 -86 236q0 150 104.5 255.5t254.5 105.5q133 0 236 -88l68 67q13 13 26 0l10 -10q12 -12 0 -26l-68 -68q88 -103 88 -235q0 -150 -105 -255t-255 -105q-138 0 -236 87l-65 -65q-13 -12 -26 1z"/>
<glyph glyph-name="oslashacute" horiz-adv-x="468" unicode="ǿ" d="M185 112q22 -14 50 -14q40 0 67.5 30.5t27.5 73.5q0 25 -11 47zM150 152l134 135q-21 15 -49 15q-40 0 -68 -29t-28 -71q0 -28 11 -50zM51 24q-13 14 -1 26l22 22q-42 57 -42 130q0 85 60.5 146.5t144.5 61.5q70 0 126 -46l26 26q12 14 26 0l10 -10q14 -12 0 -26l-26 -26 q42 -57 42 -126q0 -87 -60 -149.5t-144 -62.5q-71 0 -127 45l-21 -22q-5 -5 -13.5 -5t-13.5 6zM163 528q-7 -3 -13 -3q-8 0 -13 9l-17 36q-2 4 -2 6q0 7 8 13l163 97q5 4 13 4q9 0 13 -7l29 -51q3 -6 3 -12q0 -10 -9 -15z"/>
<glyph glyph-name="Scommaaccent" horiz-adv-x="542" unicode="Ș" d="M275 -91q33 0 58 -25.5t25 -81.5q0 -101 -90 -181q-7 -5 -12 -5t-11 6l-15 14q-10 12 3 23q10 7 22.5 19t29 42t16.5 61l-2 -1q-2 0 -4.5 -1t-6.5 -1.5t-8.5 -1t-9.5 -0.5q-27 0 -47 19.5t-20 46.5q0 28 20.5 47.5t51.5 19.5zM55 68q-10 10 -10 16q0 4 5 14l36 62 q8 12 20 12q7 0 14 -5l5 -3q5 -4 11.5 -8t16.5 -10t20 -11.5t23 -11t25 -9.5t25 -6.5t25 -2.5q39 0 65 22.5t26 54.5q0 37 -31 65.5t-96 54.5q-84 34 -136 85t-52 131q0 76 57.5 134t167.5 58q111 0 200 -67q10 -7 10 -20q0 -8 -4 -13l-38 -57q-10 -15 -24 -15q-6 0 -11 3 q-88 55 -139 55q-40 0 -64 -22t-24 -48q0 -35 28 -61t90 -51q43 -17 74.5 -34.5t65 -44t51.5 -64t18 -83.5q0 -81 -64 -139.5t-166 -58.5q-57 0 -108.5 17t-73.5 31.5t-38 29.5z"/>
<glyph glyph-name="scommaaccent" horiz-adv-x="364" unicode="ș" d="M184 -91q33 0 58 -25.5t25 -81.5q0 -101 -90 -181q-7 -5 -12 -5t-11 6l-15 14q-10 12 3 23q10 7 22.5 19t29 42t16.5 61l-2 -1q-2 0 -4.5 -1t-6.5 -1.5t-8.5 -1t-9.5 -0.5q-27 0 -47 19.5t-20 46.5q0 28 20.5 47.5t51.5 19.5zM44 27q-12 10 -6 21l27 54q6 16 23 7 q45 -24 91 -24q34 0 34 25q0 14 -14 24t-53 26q-113 44 -113 132q0 50 37.5 84t109.5 34q76 0 123 -31q17 -11 9 -27l-25 -51q-7 -13 -24 -7q-45 21 -83 21q-34 0 -34 -23q0 -12 9.5 -18t38.5 -18q5 -2 7 -3q67 -26 101 -56.5t34 -84.5q0 -52 -43 -87t-116 -35 q-84 0 -133 37z"/>
<glyph glyph-name="uni021A" horiz-adv-x="501" unicode="Ț" d="M246 -91q33 0 58 -25.5t25 -81.5q0 -101 -90 -181q-7 -5 -12 -5t-11 6l-15 14q-10 12 3 23q10 7 22.5 19t29 42t16.5 61l-2 -1q-2 0 -4.5 -1t-6.5 -1.5t-8.5 -1t-9.5 -0.5q-27 0 -47 19.5t-20 46.5q0 28 20.5 47.5t51.5 19.5zM185 19v561h-153q-8 0 -13.5 5.5t-5.5 13.5 v82q0 8 5.5 13.5t13.5 5.5h437q8 0 13.5 -5.5t5.5 -13.5v-82q0 -8 -5.5 -13.5t-13.5 -5.5h-153v-561q0 -7 -6 -13t-13 -6h-93q-8 0 -13.5 6t-5.5 13z"/>
<glyph glyph-name="uni021B" horiz-adv-x="346" unicode="ț" d="M193 -91q33 0 58 -25.5t25 -81.5q0 -101 -90 -181q-7 -5 -12 -5t-11 6l-15 14q-10 12 3 23q10 7 22.5 19t29 42t16.5 61l-2 -1q-2 0 -4.5 -1t-6.5 -1.5t-8.5 -1t-9.5 -0.5q-27 0 -47 19.5t-20 46.5q0 28 20.5 47.5t51.5 19.5zM81 119v176h-34q-7 0 -12.5 5.5t-5.5 13.5 v67q0 8 5 13.5t13 5.5h34v111q0 7 5.5 13t13.5 6l82 1q7 0 12.5 -5.5t5.5 -13.5v-112h88q19 0 19 -19v-67q0 -8 -5.5 -13.5t-13.5 -5.5h-88v-160q0 -32 31 -32q19 0 49 11q17 6 22 -11l20 -63q1 -2 1 -7q0 -13 -12 -17q-4 -2 -21.5 -8t-46.5 -12t-51 -6q-111 0 -111 129z "/>
<glyph glyph-name="dotlessj" horiz-adv-x="242" unicode="ȷ" d="M60 -108v489q0 8 5.5 13.5t13.5 5.5h84q8 0 13.5 -5.5t5.5 -13.5v-489q0 -96 -52 -149t-134 -53q-36 0 -69.5 12.5t-48.5 26.5q-6 5 -6 14q0 6 2 9l33 64q7 14 24 5q32 -20 59 -20q34 0 52 23.5t18 67.5z"/>
<glyph glyph-name="circumflex" horiz-adv-x="373" unicode="ˆ" d="M63 529l-26 37q-2 4 -2 6q0 7 8 13l130 101q6 4 10 4q3 0 11 -4l130 -101q8 -6 8 -13q0 -2 -2 -6l-26 -37q-4 -7 -11 -7q-5 0 -12 4l-97 61l-98 -61q-7 -4 -12 -4q-7 0 -11 7z"/>
<glyph glyph-name="caron" horiz-adv-x="373" unicode="ˇ" d="M174 524l-130 101q-8 6 -8 13q0 2 2 6l26 37q4 7 11 7q5 0 12 -4l97 -61l98 61q7 4 12 4q7 0 11 -7l26 -37q2 -4 2 -6q0 -7 -8 -13l-130 -101q-6 -4 -10 -4q-3 0 -11 4z"/>
<glyph glyph-name="uni02C9" horiz-adv-x="414" unicode="ˉ" d="M79 570q-8 0 -13.5 5t-5.5 13v34q0 19 19 19h256q19 0 19 -19v-34q0 -8 -5.5 -13t-13.5 -5h-256z"/>
<glyph glyph-name="breve" horiz-adv-x="346" unicode="˘" d="M173 528q-53 0 -96.5 35.5t-43.5 86.5q0 18 18 18h37q13 0 17 -14q8 -24 26 -38.5t42 -14.5q22 0 40 15.5t26 37.5q3 14 17 14h39q18 0 18 -20q0 -50 -44.5 -85t-95.5 -35z"/>
<glyph glyph-name="dotaccent" horiz-adv-x="219" unicode="˙" d="M109 536q-30 0 -51 21t-21 51t21 51t51 21t51 -21t21 -51t-21 -51t-51 -21z"/>
<glyph glyph-name="ring" horiz-adv-x="290" unicode="˚" d="M145 547q19 0 33.5 15t14.5 35q0 19 -14.5 33.5t-33.5 14.5q-20 0 -35 -14.5t-15 -33.5t15.5 -34.5t34.5 -15.5zM145 484q-47 0 -80 33t-33 80t33 80t80 33t80 -33t33 -80t-33 -80t-80 -33z"/>
<glyph glyph-name="ogonek" horiz-adv-x="276" unicode="˛" d="M107 14h64q-7 -5 -17 -15t-27 -38.5t-17 -56.5q0 -27 17.5 -45.5t48.5 -18.5q10 0 46 9q8 2 14 -3t6 -14v-30q0 -13 -14 -19q-40 -10 -66 -10q-55 0 -91 28t-36 82q0 23 7.5 44.5t18 36.5t21 27t18.5 17z"/>
<glyph glyph-name="tilde" horiz-adv-x="380" unicode="˜" d="M70 562l-29 21q-7 6 -7 16q0 5 1 7q8 15 12.5 22t19 25.5t33 27.5t39.5 9q28 0 59 -27.5t48 -27.5q16 0 31 22.5t23 22.5q6 0 11 -4l28 -20q7 -7 7 -14q0 -8 -6 -17q-30 -52 -60 -67q-17 -9 -37 -9q-28 0 -61.5 28t-47.5 28q-17 0 -31 -23.5t-23 -23.5q-5 0 -10 4z"/>
<glyph glyph-name="hungarumlaut" horiz-adv-x="392" unicode="˝" d="M58 521q-20 0 -20 14q0 1 0.5 2.5t0.5 2.5l37 141q6 19 19 19h76q21 0 21 -15q0 -4 -3 -10l-78 -139q-7 -15 -18 -15h-35zM224 521q-20 0 -20 14q0 1 0.5 2.5t0.5 2.5l37 141q6 19 19 19h76q21 0 21 -15q0 -5 -3 -10l-78 -139q-7 -15 -18 -15h-35z"/>
<glyph glyph-name="Wgrave" horiz-adv-x="899" unicode="Ẁ" d="M520 768l-175 77q-10 5 -10 15q0 4 4 12l28 52q4 7 13 7q5 0 13 -4l164 -98q12 -7 6 -19l-18 -35q-7 -15 -25 -7zM218 4l-189 672q-1 2 -1 7q0 17 19 17h92q14 0 18 -14l104 -399h4l159 412q4 11 17 11h18q13 0 17 -11l160 -412h4l102 399q4 14 18 14h92q19 0 19 -17 q0 -5 -1 -7l-189 -672q-3 -14 -18 -14h-16q-13 0 -17 11l-179 453h-5l-177 -453q-5 -11 -17 -11h-16q-14 0 -18 14z"/>
<glyph glyph-name="wgrave" horiz-adv-x="616" unicode="ẁ" d="M377 528l-175 77q-16 8 -6 27l28 51q4 7 13 7q8 0 13 -4l164 -97q12 -6 6 -19l-18 -36q-6 -14 -25 -6zM143 1l-125 376q-2 6 -2 8q0 15 19 15h72q15 0 18 -12l60 -179h1l102 192q4 9 16 9h8q11 0 16 -9l101 -192h1l60 179q4 12 23 12h65q19 0 19 -16q0 -5 -1 -7 l-125 -376q-4 -11 -18 -11h-4q-11 0 -16 9l-126 233h-1l-125 -233q-5 -9 -16 -9h-5q-13 0 -17 11z"/>
<glyph glyph-name="Wacute" horiz-adv-x="899" unicode="Ẃ" d="M379 768q-18 -8 -25 7l-18 35q-6 12 6 19l164 98q8 5 14 5q7 0 12 -8l28 -52q4 -8 4 -12q0 -10 -10 -15zM218 4l-189 672q-1 2 -1 7q0 17 19 17h92q14 0 18 -14l104 -399h4l159 412q4 11 17 11h18q13 0 17 -11l160 -412h4l102 399q4 14 18 14h92q19 0 19 -17q0 -5 -1 -7 l-189 -672q-3 -14 -18 -14h-16q-13 0 -17 11l-179 453h-5l-177 -453q-5 -11 -17 -11h-16q-14 0 -18 14z"/>
<glyph glyph-name="wacute" horiz-adv-x="616" unicode="ẃ" d="M237 528q-19 -7 -26 6l-17 36q-6 11 6 19l163 97q5 4 13 4q9 0 13 -7l29 -51q9 -20 -6 -27zM143 1l-125 376q-2 6 -2 8q0 15 19 15h72q15 0 18 -12l60 -179h1l102 192q4 9 16 9h8q11 0 16 -9l101 -192h1l60 179q4 12 23 12h65q19 0 19 -16q0 -5 -1 -7l-125 -376 q-4 -11 -18 -11h-4q-11 0 -16 9l-126 233h-1l-125 -233q-5 -9 -16 -9h-5q-13 0 -17 11z"/>
<glyph glyph-name="Wdieresis" horiz-adv-x="899" unicode="Ẅ" d="M325 775q-26 0 -44.5 19t-18.5 45t18.5 44.5t44.5 18.5t45 -18.5t19 -44.5t-19 -45t-45 -19zM572 775q-26 0 -44.5 19t-18.5 45t18.5 44.5t44.5 18.5t45 -18.5t19 -44.5t-19 -45t-45 -19zM218 4l-189 672q-1 2 -1 7q0 17 19 17h92q14 0 18 -14l104 -399h4l159 412 q4 11 17 11h18q13 0 17 -11l160 -412h4l102 399q4 14 18 14h92q19 0 19 -17q0 -5 -1 -7l-189 -672q-3 -14 -18 -14h-16q-13 0 -17 11l-179 453h-5l-177 -453q-5 -11 -17 -11h-16q-14 0 -18 14z"/>
<glyph glyph-name="wdieresis" horiz-adv-x="616" unicode="ẅ" d="M206 551q-26 0 -44.5 19t-18.5 45t18.5 44.5t44.5 18.5t45 -18.5t19 -44.5t-19 -45t-45 -19zM407 551q-26 0 -44.5 19t-18.5 45t18.5 44.5t44.5 18.5t45 -18.5t19 -44.5t-19 -45t-45 -19zM143 1l-125 376q-2 6 -2 8q0 15 19 15h72q15 0 18 -12l60 -179h1l102 192 q4 9 16 9h8q11 0 16 -9l101 -192h1l60 179q4 12 23 12h65q19 0 19 -16q0 -5 -1 -7l-125 -376q-4 -11 -18 -11h-4q-11 0 -16 9l-126 233h-1l-125 -233q-5 -9 -16 -9h-5q-13 0 -17 11z"/>
<glyph glyph-name="Ygrave" horiz-adv-x="583" unicode="Ỳ" d="M362 768l-175 77q-10 5 -10 15q0 4 4 12l28 52q4 7 13 7q5 0 13 -4l164 -98q12 -7 6 -19l-18 -35q-7 -15 -25 -7zM225 19v318l-228 334q-3 5 -3 11q0 18 19 18h102q9 0 16 -9l160 -230l160 230q7 9 16 9h103q19 0 19 -18q0 -6 -3 -11l-231 -333v-319q0 -7 -5.5 -13 t-13.5 -6h-92q-8 0 -13.5 5.5t-5.5 13.5z"/>
<glyph glyph-name="ygrave" horiz-adv-x="463" unicode="ỳ" d="M303 528l-175 77q-16 8 -6 27l28 51q4 7 13 7q8 0 13 -4l164 -97q12 -6 6 -19l-18 -36q-6 -14 -25 -6zM171 28l-163 346q-2 6 -2 9q0 17 19 17h90q11 0 17 -11l101 -226h1l100 226q6 11 24 11h80q9 0 14.5 -5t5.5 -12q0 -5 -3 -9l-306 -662q-6 -12 -17 -12h-86 q-19 0 -19 17q0 7 2 10z"/>
<glyph glyph-name="endash" horiz-adv-x="539" unicode="–" d="M72 210q-8 0 -13.5 5t-5.5 13v37q0 19 19 19h395q19 0 19 -19v-37q0 -8 -5.5 -13t-13.5 -5h-395z"/>
<glyph glyph-name="emdash" horiz-adv-x="759" unicode="—" d="M72 210q-8 0 -13.5 5t-5.5 13v37q0 19 19 19h615q19 0 19 -19v-37q0 -8 -5.5 -13t-13.5 -5h-615z"/>
<glyph glyph-name="quoteleft" horiz-adv-x="198" unicode="‘" d="M106 414q-32 0 -57 26t-25 82q0 101 90 181q7 5 11 5q5 0 11 -6l15 -15q10 -12 -3 -22l-5 -5q-5 -4 -8 -7l-9 -9t-10.5 -11.5t-10 -13.5t-9.5 -16t-8 -17.5t-6 -20.5t-2 -22l4 1q5 2 12.5 3t14.5 1q27 0 47 -19.5t20 -47.5q0 -27 -21 -47t-51 -20z"/>
<glyph glyph-name="quoteright" horiz-adv-x="196" unicode="’" d="M62 423l-14 14q-11 11 2 23q10 7 22.5 19t29 42t16.5 61h-2q-2 -1 -4.5 -1.5t-6 -1.5t-8.5 -1.5t-9 -0.5q-28 0 -47.5 19t-19.5 47t20.5 47.5t50.5 19.5q33 0 58 -25.5t25 -81.5q0 -101 -90 -181q-7 -5 -11 -5q-6 0 -12 6z"/>
<glyph glyph-name="quotesinglbase" horiz-adv-x="228" unicode="‚" d="M37 57q0 27 21 47t51 20q32 0 57.5 -26t25.5 -82q0 -101 -90 -181q-7 -5 -12 -5t-11 6l-15 15q-10 11 3 22q10 7 22.5 19.5t29 42t16.5 60.5l-2 -1q-2 0 -4.5 -1t-6.5 -1.5t-8.5 -1t-9.5 -0.5q-27 0 -47 19.5t-20 47.5z"/>
<glyph glyph-name="quotedblleft" horiz-adv-x="392" unicode="“" d="M106 416q-32 0 -57 25.5t-25 81.5q0 101 90 181q7 5 11 5q5 0 11 -6l15 -14q11 -13 -3 -23q-67 -55 -68 -122l4 1l12.5 2.5t14.5 1.5q27 0 47 -19.5t20 -46.5q0 -28 -20.5 -47.5t-51.5 -19.5zM299 416q-33 0 -58 25.5t-25 81.5q0 101 90 181q7 5 12 5t11 -6l15 -14 q10 -12 -3 -23q-67 -55 -68 -122h2q2 1 4.5 1.5t6.5 1.5t8.5 1.5t9.5 0.5q27 0 47 -19.5t20 -46.5q0 -28 -20.5 -47.5t-51.5 -19.5z"/>
<glyph glyph-name="quotedblright" horiz-adv-x="389" unicode="”" d="M62 423l-14 14q-11 11 2 23q10 7 22.5 19t29 42t16.5 61h-2q-2 -1 -4.5 -1.5t-6 -1.5t-8.5 -1.5t-9 -0.5q-28 0 -47.5 19t-19.5 47t20.5 47.5t50.5 19.5q33 0 58 -25.5t25 -81.5q0 -101 -90 -181q-7 -5 -11 -5q-6 0 -12 6zM255 423l-15 14q-10 12 3 23q10 7 22.5 19 t29 42t16.5 61h-2q-2 -1 -4.5 -1.5t-6.5 -1.5t-8.5 -1.5t-9.5 -0.5q-27 0 -47 19.5t-20 46.5q0 28 20.5 47.5t51.5 19.5q33 0 58 -25.5t25 -81.5q0 -101 -90 -181q-7 -5 -12 -5t-11 6z"/>
<glyph glyph-name="quotedblbase" horiz-adv-x="421" unicode="„" d="M38 57q0 27 20.5 47t50.5 20q32 0 57.5 -26t25.5 -82q0 -101 -90 -181q-7 -5 -12 -5t-11 6l-14 15q-11 11 2 22q10 7 23 19.5t29 42t16 60.5l-5 -1q-4 -2 -11 -3t-14 -1q-28 0 -47.5 19.5t-19.5 47.5zM230 57q0 27 21 47t51 20q32 0 57.5 -26t25.5 -82q0 -101 -90 -181 q-7 -5 -12 -5t-11 6l-15 15q-10 11 3 22q10 7 22.5 19.5t29 42t16.5 60.5l-2 -1q-2 0 -4.5 -1t-6.5 -1.5t-8.5 -1t-9.5 -0.5q-27 0 -47 19.5t-20 47.5z"/>
<glyph glyph-name="bullet" horiz-adv-x="389" unicode="•" d="M192 95q-52 0 -90.5 38.5t-38.5 90.5q0 54 38.5 93.5t90.5 39.5q55 0 94 -39t39 -94q0 -53 -39 -91t-94 -38z"/>
<glyph glyph-name="guilsinglleft" horiz-adv-x="271" unicode="‹" d="M130 39l-104 155q-4 5 -4 12q0 6 4 12l109 148q7 12 18 12h57q19 0 19 -17q0 -4 -4 -14l-68 -139l65 -147q3 -8 3 -13q0 -17 -18 -17h-62q-9 0 -15 8z"/>
<glyph glyph-name="guilsinglright" horiz-adv-x="271" unicode="›" d="M63 31q-18 0 -18 17q0 6 3 13l65 147l-68 139q-4 10 -4 14q0 17 19 17h57q11 0 18 -12l109 -148q4 -6 4 -12q0 -7 -4 -12l-104 -155q-6 -8 -15 -8h-62z"/>
<glyph glyph-name="fraction" horiz-adv-x="123" unicode="⁄" d="M-60 10q-5 -10 -17 -10h-48q-8 0 -13.5 5t-5.5 13q0 6 2 9l343 663q5 10 17 10h50q8 0 13.5 -5t5.5 -13q0 -6 -2 -9z"/>
<glyph glyph-name="zerosuperior" horiz-adv-x="357" unicode="⁰" d="M179 564q44 0 44 88t-44 88t-44 -88t44 -88zM179 494q-61 0 -94 42t-33 116q0 75 32.5 116.5t94.5 41.5q61 0 93 -41.5t32 -116.5t-32 -116.5t-93 -41.5z"/>
<glyph glyph-name="foursuperior" horiz-adv-x="370" unicode="⁴" d="M123 620h74v83zM206 504q-10 0 -10 9v48h-137q-9 0 -9 8v51l163 177q3 3 8 3h41q9 0 9 -9v-170h40q9 0 9 -8v-43q0 -9 -9 -9h-40v-48q0 -9 -9 -9h-56z"/>
<glyph glyph-name="fivesuperior" horiz-adv-x="326" unicode="⁵" d="M152 494q-63 0 -96 38q-4 4 -4 8q0 2 3 7l27 33q7 10 15 2q21 -21 57 -21q18 0 31.5 11t13.5 27q0 17 -13 27t-35 10h-74q-15 0 -15 16v139q0 9 9 9h160q9 0 9 -9v-44q0 -9 -9 -9h-103v-39h35q54 0 84 -26t30 -73q0 -46 -34.5 -76t-90.5 -30z"/>
<glyph glyph-name="sixsuperior" horiz-adv-x="334" unicode="⁶" d="M170 563q17 0 28.5 11t11.5 27t-11.5 27.5t-28.5 11.5q-15 0 -28 -9.5t-17 -20.5q1 -18 13.5 -32.5t31.5 -14.5zM170 494q-56 0 -88 35t-32 89q0 46 20 83.5t50.5 60t53.5 34.5t42 18q2 1 6 1q8 0 12 -9l13 -34q4 -12 -9 -16q-27 -8 -60.5 -28t-43.5 -46q26 13 55 13 q38 0 66.5 -25.5t28.5 -71.5q0 -43 -33.5 -73.5t-80.5 -30.5z"/>
<glyph glyph-name="sevensuperior" horiz-adv-x="322" unicode="⁷" d="M68 504q-11 0 -11 8v6l116 218h-109q-10 0 -10 8v47q0 9 10 9h199q9 0 9 -9v-14l-132 -264q-5 -9 -15 -9h-57z"/>
<glyph glyph-name="eightsuperior" horiz-adv-x="342" unicode="⁸" d="M171 556q16 0 27 9t11 23q0 13 -10.5 24t-27.5 12q-17 -1 -28 -12t-11 -24q0 -14 11.5 -23t27.5 -9zM171 686q15 1 23.5 10t8.5 21t-9.5 21.5t-23.5 9.5q-13 0 -22.5 -9.5t-9.5 -21.5q0 -28 33 -31zM170 494q-53 0 -86.5 24.5t-33.5 61.5q0 21 14.5 39.5t26 26t19.5 10.5 v1q-19 8 -35 26t-16 44q0 37 32 60t79 23q48 0 80.5 -23t32.5 -60q0 -26 -16.5 -44t-35.5 -26v-1q23 -7 42 -26.5t19 -49.5q0 -37 -33.5 -61.5t-88.5 -24.5z"/>
<glyph glyph-name="ninesuperior" horiz-adv-x="334" unicode="⁹" d="M164 662q15 0 28 9.5t17 20.5q-1 18 -13.5 32.5t-31.5 14.5q-17 0 -28.5 -11t-11.5 -27t11.5 -27.5t28.5 -11.5zM118 488q-2 -1 -6 -1q-8 0 -12 9l-13 34q-4 12 9 16q27 8 60.5 28t43.5 46q-26 -13 -55 -13q-38 0 -66.5 25.5t-28.5 71.5q0 43 33.5 73.5t80.5 30.5 q56 0 88 -35t32 -89q0 -46 -20 -83.5t-50.5 -60t-53.5 -34.5t-42 -18z"/>
<glyph glyph-name="zeroinferior" horiz-adv-x="357" unicode="₀" d="M135 -2q0 -88 44 -88t44 88t-44 88t-44 -88zM52 -2q0 75 32.5 116.5t94.5 41.5q61 0 93 -41.5t32 -116.5t-32 -116.5t-93 -41.5t-94 42t-33 116z"/>
<glyph glyph-name="oneinferior" horiz-adv-x="241" unicode="₁" d="M52 57l-2 31q0 5 7 11l74 47h51q9 0 9 -9v-278q0 -9 -9 -9h-62q-10 0 -10 9v193l-49 -4q-9 0 -9 9z"/>
<glyph glyph-name="twoinferior" horiz-adv-x="316" unicode="₂" d="M85 70l-22 31q-9 12 3 21q41 34 94 34q47 0 76.5 -25.5t29.5 -66.5t-37 -86l-54 -64h80q9 0 9 -9v-46q0 -9 -9 -9h-195q-10 0 -10 9v17l110 126q25 28 25 50q0 15 -11 25t-29 10q-26 0 -44 -20q-9 -6 -16 3z"/>
<glyph glyph-name="threeinferior" horiz-adv-x="317" unicode="₃" d="M91 15q0 14 15 14h29q19 0 30 8.5t11 22.5q0 13 -10.5 21.5t-27.5 8.5q-21 0 -39 -16q-9 -5 -15 3l-24 29q-11 11 1 18q33 32 89 32q48 0 78 -22.5t30 -60.5q0 -25 -15.5 -43t-35.5 -27v-1q60 -23 60 -76q0 -40 -33.5 -63t-83.5 -23q-58 0 -95 33q-5 5 -5 9q0 3 4 9 l22 29q6 9 17 2l3 -2q2 -1 6.5 -3.5t10 -5t13 -4t14.5 -1.5q42 0 42 31q0 33 -47 33h-29q-15 0 -15 14v31z"/>
<glyph glyph-name="fourinferior" horiz-adv-x="370" unicode="₄" d="M123 -34h74v83zM50 -34l163 177q3 3 8 3h41q9 0 9 -9v-170h40q9 0 9 -8v-43q0 -9 -9 -9h-40v-48q0 -9 -9 -9h-56q-10 0 -10 9v48h-137q-9 0 -9 8v51z"/>
<glyph glyph-name="fiveinferior" horiz-adv-x="326" unicode="₅" d="M62 -2v139q0 9 9 9h160q9 0 9 -9v-44q0 -9 -9 -9h-103v-39h35q54 0 84 -26t30 -73q0 -46 -34.5 -76t-90.5 -30q-63 0 -96 38q-4 4 -4 8q0 2 3 7l27 33q7 10 15 2q21 -21 57 -21q18 0 31.5 11t13.5 27q0 17 -13 27t-35 10h-74q-15 0 -15 16z"/>
<glyph glyph-name="sixinferior" horiz-adv-x="334" unicode="₆" d="M125 -44q1 -18 13.5 -32.5t31.5 -14.5q17 0 28.5 11t11.5 27t-11.5 27.5t-28.5 11.5q-15 0 -28 -9.5t-17 -20.5zM50 -36q0 46 20 83.5t50.5 60t53.5 34.5t42 18q2 1 6 1q8 0 12 -9l13 -34q4 -12 -9 -16q-27 -8 -60.5 -28t-43.5 -46q26 13 55 13q38 0 66.5 -25.5 t28.5 -71.5q0 -43 -33.5 -73.5t-80.5 -30.5q-56 0 -88 35t-32 89z"/>
<glyph glyph-name="seveninferior" horiz-adv-x="322" unicode="₇" d="M64 82q-10 0 -10 8v47q0 9 10 9h199q9 0 9 -9v-14l-132 -264q-5 -9 -15 -9h-57q-11 0 -11 8v6l116 218h-109z"/>
<glyph glyph-name="eightinferior" horiz-adv-x="342" unicode="₈" d="M132 -66q0 -14 11.5 -23t27.5 -9t27 9t11 23q0 13 -10.5 24t-27.5 12q-17 -1 -28 -12t-11 -24zM138 63q0 -28 33 -31q15 1 23.5 10t8.5 21t-9.5 21.5t-23.5 9.5q-13 0 -22.5 -9.5t-9.5 -21.5zM50 -74q0 21 14.5 39.5t26 26t19.5 10.5v1q-19 8 -35 26t-16 44q0 37 32 60 t79 23q48 0 80.5 -23t32.5 -60q0 -26 -16.5 -44t-35.5 -26v-1q23 -7 42 -26.5t19 -49.5q0 -37 -33.5 -61.5t-88.5 -24.5q-53 0 -86.5 24.5t-33.5 61.5z"/>
<glyph glyph-name="nineinferior" horiz-adv-x="334" unicode="₉" d="M124 47q0 -16 11.5 -27.5t28.5 -11.5q15 0 28 9.5t17 20.5q-1 18 -13.5 32.5t-31.5 14.5q-17 0 -28.5 -11t-11.5 -27zM50 50q0 43 33.5 73.5t80.5 30.5q56 0 88 -35t32 -89q0 -46 -20 -83.5t-50.5 -60t-53.5 -34.5t-42 -18q-2 -1 -6 -1q-8 0 -12 9l-13 34q-4 12 9 16 q27 8 60.5 28t43.5 46q-26 -13 -55 -13q-38 0 -66.5 25.5t-28.5 71.5z"/>
<glyph glyph-name="Euro" horiz-adv-x="718" unicode="€" d="M38 250q-7 0 -12.5 5.5t-5.5 13.5v13q0 8 5.5 13.5t12.5 5.5h39q-3 24 -3 48q0 14 1 21h-37q-7 0 -12.5 5.5t-5.5 13.5v13q0 8 5.5 13.5t12.5 5.5h43q25 125 124.5 207t229.5 82q138 0 242 -93q7 -6 7 -14t-6 -14l-60 -62q-13 -14 -27 0q-64 58 -153 58q-76 0 -134 -46 t-79 -118h233q8 0 13.5 -5.5t5.5 -13.5v-15q0 -8 -5.5 -13t-13.5 -5h-243v-17q0 -30 5 -51h198q8 0 13.5 -5.5t5.5 -13.5v-14q0 -8 -5.5 -13t-13.5 -5h-180q27 -58 80.5 -93.5t120.5 -35.5q83 0 153 57q13 12 25 0l62 -64q5 -4 5 -12q0 -9 -6 -15q-100 -97 -243 -97 q-123 0 -218.5 73t-128.5 187h-50z"/>
<glyph glyph-name="uni2215" horiz-adv-x="123" unicode="∕" d="M-60 10q-5 -10 -17 -10h-48q-8 0 -13.5 5t-5.5 13q0 6 2 9l343 663q5 10 17 10h50q8 0 13.5 -5t5.5 -13q0 -6 -2 -9z"/>
</font>
</defs>
</svg>
